# SSTK version 0.8.0
# 23
mtllib original-23.mtl
o 3dw.5334cfe15f80099f15ac67104577aee7/Model/mesh1/mesh1-geometry/material_5#mesh1-geometry
v 0.846815 0.426952 -0.058183
v 0.846815 -0.434573 -0.058183
v 0.846815 0.426952 0.182382
v 0.846815 -0.434573 0.182382
v 0.846815 0.426952 0.182382
v 0.846815 -0.434573 -0.058183
v 0.846815 0.426952 0.182382
v 0.846815 -0.434573 -0.058183
v 0.846815 0.426952 -0.058183
v 0.846815 -0.434573 -0.058183
v 0.846815 0.426952 0.182382
v 0.846815 -0.434573 0.182382
vt 0 0
vt 0 1
vt 1 0
vt 1 1
vn -1 0 0
vn 1 0 0
usemtl material_0_0
f 1/1/1 2/1/1 3/1/1
f 4/1/1 5/1/1 6/1/1
usemtl material_1_0
f 7/2/2 8/3/2 9/4/2
f 10/3/2 11/2/2 12/1/2
