# SSTK version 0.8.0
# 6
mtllib original-6.mtl
o 3dw.5334cfe15f80099f15ac67104577aee7/Model/mesh1/mesh1-geometry/material_1/component_4#mesh1-geometry
v -0.900454 -0.041937 0.125353
v -0.900454 0.012276 0.182382
v -0.900454 -0.041937 0.182382
v -0.900454 -0.041937 0.182382
v -0.900454 0.012276 0.182382
v -0.900454 -0.041937 0.125353
v -0.900454 -0.041937 0.194491
v -0.900454 0.012276 0.182382
v -0.900454 -0.041937 0.182382
v -0.900454 -0.041937 0.182382
v -0.900454 0.012276 0.182382
v -0.900454 -0.041937 0.194491
v -0.900454 0.012276 0.182382
v -0.900454 -0.041937 0.125353
v -0.900454 0.012276 0.125353
v -0.900454 0.012276 0.125353
v -0.900454 -0.041937 0.125353
v -0.900454 0.012276 0.182382
v -0.900454 0.012276 0.182382
v -0.900454 -0.041937 0.194491
v -0.900454 0.012276 0.194491
v -0.900454 0.012276 0.194491
v -0.900454 -0.041937 0.194491
v -0.900454 0.012276 0.182382
vt 0 0
vn 1 0 0
vn -1 0 0
usemtl material_0_0
f 1/1/1 2/1/1 3/1/1
f 4/1/2 5/1/2 6/1/2
f 7/1/2 8/1/2 9/1/2
f 10/1/1 11/1/1 12/1/1
f 13/1/1 14/1/1 15/1/1
f 16/1/2 17/1/2 18/1/2
f 19/1/2 20/1/2 21/1/2
f 22/1/1 23/1/1 24/1/1
