# SSTK version 0.8.0
# 19
mtllib original-19.mtl
o 3dw.5334cfe15f80099f15ac67104577aee7/Model/mesh1/mesh1-geometry/material_4/component_6#mesh1-geometry
v -0.820608 0.237083 -0.179182
v -0.812830 0.218308 -0.179182
v -0.677993 0.218308 -0.179182
v -0.823260 0.257232 -0.179182
v -0.820608 0.237083 -0.179182
v -0.670216 0.237083 -0.179182
v -0.745412 0.335081 -0.179182
v -0.765560 0.332428 -0.179182
v -0.725263 0.332428 -0.179182
v -0.765560 0.332428 -0.179182
v -0.784336 0.324651 -0.179182
v -0.706487 0.324651 -0.179182
v -0.820608 0.277381 -0.179182
v -0.823260 0.257232 -0.179182
v -0.667563 0.257232 -0.179182
v -0.677993 0.218308 -0.179182
v -0.812830 0.218308 -0.179182
v -0.690365 0.202185 -0.179182
v -0.670216 0.237083 -0.179182
v -0.820608 0.237083 -0.179182
v -0.677993 0.218308 -0.179182
v -0.667563 0.257232 -0.179182
v -0.823260 0.257232 -0.179182
v -0.670216 0.237083 -0.179182
v -0.812830 0.218308 -0.179182
v -0.800459 0.202185 -0.179182
v -0.690365 0.202185 -0.179182
v -0.784336 0.324651 -0.179182
v -0.800459 0.312279 -0.179182
v -0.690365 0.312279 -0.179182
v -0.725263 0.332428 -0.179182
v -0.765560 0.332428 -0.179182
v -0.706487 0.324651 -0.179182
v -0.706487 0.324651 -0.179182
v -0.784336 0.324651 -0.179182
v -0.690365 0.312279 -0.179182
v -0.812830 0.296156 -0.179182
v -0.820608 0.277381 -0.179182
v -0.670216 0.277381 -0.179182
v -0.670216 0.277381 -0.179182
v -0.820608 0.277381 -0.179182
v -0.667563 0.257232 -0.179182
v -0.690365 0.202185 -0.179182
v -0.800459 0.202185 -0.179182
v -0.706487 0.189813 -0.179182
v -0.800459 0.202185 -0.179182
v -0.784336 0.189813 -0.179182
v -0.706487 0.189813 -0.179182
v -0.784336 0.189813 -0.179182
v -0.765560 0.182036 -0.179182
v -0.725263 0.182036 -0.179182
v -0.690365 0.312279 -0.179182
v -0.800459 0.312279 -0.179182
v -0.677993 0.296156 -0.179182
v -0.800459 0.312279 -0.179182
v -0.812830 0.296156 -0.179182
v -0.677993 0.296156 -0.179182
v -0.677993 0.296156 -0.179182
v -0.812830 0.296156 -0.179182
v -0.670216 0.277381 -0.179182
v -0.706487 0.189813 -0.179182
v -0.784336 0.189813 -0.179182
v -0.725263 0.182036 -0.179182
v -0.745412 0.179383 -0.179182
v -0.725263 0.182036 -0.179182
v -0.765560 0.182036 -0.179182
v -0.677993 0.218308 -0.179182
v -0.812830 0.218308 -0.179182
v -0.820608 0.237083 -0.179182
v -0.670216 0.237083 -0.179182
v -0.820608 0.237083 -0.179182
v -0.823260 0.257232 -0.179182
v -0.725263 0.332428 -0.179182
v -0.765560 0.332428 -0.179182
v -0.745412 0.335081 -0.179182
v -0.706487 0.324651 -0.179182
v -0.784336 0.324651 -0.179182
v -0.765560 0.332428 -0.179182
v -0.667563 0.257232 -0.179182
v -0.823260 0.257232 -0.179182
v -0.820608 0.277381 -0.179182
v -0.690365 0.202185 -0.179182
v -0.812830 0.218308 -0.179182
v -0.677993 0.218308 -0.179182
v -0.677993 0.218308 -0.179182
v -0.820608 0.237083 -0.179182
v -0.670216 0.237083 -0.179182
v -0.670216 0.237083 -0.179182
v -0.823260 0.257232 -0.179182
v -0.667563 0.257232 -0.179182
v -0.690365 0.202185 -0.179182
v -0.800459 0.202185 -0.179182
v -0.812830 0.218308 -0.179182
v -0.690365 0.312279 -0.179182
v -0.800459 0.312279 -0.179182
v -0.784336 0.324651 -0.179182
v -0.706487 0.324651 -0.179182
v -0.765560 0.332428 -0.179182
v -0.725263 0.332428 -0.179182
v -0.690365 0.312279 -0.179182
v -0.784336 0.324651 -0.179182
v -0.706487 0.324651 -0.179182
v -0.670216 0.277381 -0.179182
v -0.820608 0.277381 -0.179182
v -0.812830 0.296156 -0.179182
v -0.667563 0.257232 -0.179182
v -0.820608 0.277381 -0.179182
v -0.670216 0.277381 -0.179182
v -0.706487 0.189813 -0.179182
v -0.800459 0.202185 -0.179182
v -0.690365 0.202185 -0.179182
v -0.706487 0.189813 -0.179182
v -0.784336 0.189813 -0.179182
v -0.800459 0.202185 -0.179182
v -0.725263 0.182036 -0.179182
v -0.765560 0.182036 -0.179182
v -0.784336 0.189813 -0.179182
v -0.677993 0.296156 -0.179182
v -0.800459 0.312279 -0.179182
v -0.690365 0.312279 -0.179182
v -0.677993 0.296156 -0.179182
v -0.812830 0.296156 -0.179182
v -0.800459 0.312279 -0.179182
v -0.670216 0.277381 -0.179182
v -0.812830 0.296156 -0.179182
v -0.677993 0.296156 -0.179182
v -0.725263 0.182036 -0.179182
v -0.784336 0.189813 -0.179182
v -0.706487 0.189813 -0.179182
v -0.765560 0.182036 -0.179182
v -0.725263 0.182036 -0.179182
v -0.745412 0.179383 -0.179182
vt -0.6913490295410156 0.12737800180912018
vt -0.692454993724823 0.12381699681282043
vt -0.711633026599884 0.12381699681282043
vt -0.6909710168838501 0.13119900226593018
vt -0.7127400040626526 0.12737800180912018
vt -0.7020440101623535 0.14596299827098846
vt -0.6991779804229736 0.14545999467372894
vt -0.7049099802970886 0.14545999467372894
vt -0.69650799036026 0.14398500323295593
vt -0.7075809836387634 0.14398500323295593
vt -0.6913490295410156 0.13502000272274017
vt -0.7131170034408569 0.13119900226593018
vt -0.7098739743232727 0.12075900286436081
vt -0.6942139863967896 0.12075900286436081
vt -0.6942139863967896 0.14163799583911896
vt -0.7098739743232727 0.14163799583911896
vt -0.692454993724823 0.13858099281787872
vt -0.7127400040626526 0.13502000272274017
vt -0.7075809836387634 0.11841300129890442
vt -0.69650799036026 0.11841300129890442
vt -0.6991779804229736 0.11693800240755081
vt -0.7049099802970886 0.11693800240755081
vt -0.711633026599884 0.13858099281787872
vt -0.7020440101623535 0.11643499881029129
vt 0.17102600634098053 0.5609549880027771
vt 0.18614999949932098 0.5609549880027771
vt 0.18702200055122375 0.5628679990768433
vt 0.17015400528907776 0.5628679990768433
vt 0.18731899559497833 0.5649210214614868
vt 0.17632800340652466 0.5725839734077454
vt 0.18084800243377686 0.5725839734077454
vt 0.17858800292015076 0.5728539824485779
vt 0.17422200739383698 0.5717909932136536
vt 0.18295399844646454 0.5717909932136536
vt 0.169855996966362 0.5649210214614868
vt 0.18702200055122375 0.5669739842414856
vt 0.17241300642490387 0.5593119859695435
vt 0.18476200103759766 0.5593119859695435
vt 0.17241300642490387 0.5705310106277466
vt 0.18476200103759766 0.5705310106277466
vt 0.17015400528907776 0.5669739842414856
vt 0.18614999949932098 0.5688880085945129
vt 0.17422200739383698 0.5580509901046753
vt 0.18295399844646454 0.5580509901046753
vt 0.17632800340652466 0.5572590231895447
vt 0.18084800243377686 0.5572590231895447
vt 0.17102600634098053 0.5688880085945129
vt 0.17858800292015076 0.556988000869751
vn 0 0 1
vn 0 0 -1
usemtl material_0_0
f 1/1/1 2/2/1 3/3/1
f 4/4/1 5/1/1 6/5/1
f 7/6/1 8/7/1 9/8/1
f 10/7/1 11/9/1 12/10/1
f 13/11/1 14/4/1 15/12/1
f 16/3/1 17/2/1 18/13/1
f 19/5/1 20/1/1 21/3/1
f 22/12/1 23/4/1 24/5/1
f 25/2/1 26/14/1 27/13/1
f 28/9/1 29/15/1 30/16/1
f 31/8/1 32/7/1 33/10/1
f 34/10/1 35/9/1 36/16/1
f 37/17/1 38/11/1 39/18/1
f 40/18/1 41/11/1 42/12/1
f 43/13/1 44/14/1 45/19/1
f 46/14/1 47/20/1 48/19/1
f 49/20/1 50/21/1 51/22/1
f 52/16/1 53/15/1 54/23/1
f 55/15/1 56/17/1 57/23/1
f 58/23/1 59/17/1 60/18/1
f 61/19/1 62/20/1 63/22/1
f 64/24/1 65/22/1 66/21/1
usemtl material_1_0
f 67/25/2 68/26/2 69/27/2
f 70/28/2 71/27/2 72/29/2
f 73/30/2 74/31/2 75/32/2
f 76/33/2 77/34/2 78/31/2
f 79/35/2 80/29/2 81/36/2
f 82/37/2 83/26/2 84/25/2
f 85/25/2 86/27/2 87/28/2
f 88/28/2 89/29/2 90/35/2
f 91/37/2 92/38/2 93/26/2
f 94/39/2 95/40/2 96/34/2
f 97/33/2 98/31/2 99/30/2
f 100/39/2 101/34/2 102/33/2
f 103/41/2 104/36/2 105/42/2
f 106/35/2 107/36/2 108/41/2
f 109/43/2 110/38/2 111/37/2
f 112/43/2 113/44/2 114/38/2
f 115/45/2 116/46/2 117/44/2
f 118/47/2 119/40/2 120/39/2
f 121/47/2 122/42/2 123/40/2
f 124/41/2 125/42/2 126/47/2
f 127/45/2 128/44/2 129/43/2
f 130/46/2 131/45/2 132/48/2
