# SSTK version 0.8.0
# 16
mtllib original-16.mtl
o 3dw.5334cfe15f80099f15ac67104577aee7/Model/mesh1/mesh1-geometry/material_4/component_3#mesh1-geometry
v 0.699958 -0.152115 -0.179182
v 0.526837 -0.152115 -0.179182
v 0.698967 -0.155136 -0.179182
v 0.698967 -0.155136 -0.179182
v 0.527828 -0.155136 -0.179182
v 0.697601 -0.158008 -0.179182
v 0.700560 -0.148993 -0.179182
v 0.526235 -0.148993 -0.179182
v 0.699958 -0.152115 -0.179182
v 0.697601 -0.158008 -0.179182
v 0.529194 -0.158008 -0.179182
v 0.695884 -0.160683 -0.179182
v 0.526837 -0.152115 -0.179182
v 0.527828 -0.155136 -0.179182
v 0.698967 -0.155136 -0.179182
v 0.526235 -0.148993 -0.179182
v 0.526837 -0.152115 -0.179182
v 0.699958 -0.152115 -0.179182
v 0.527828 -0.155136 -0.179182
v 0.529194 -0.158008 -0.179182
v 0.697601 -0.158008 -0.179182
v 0.526034 -0.145820 -0.179182
v 0.526235 -0.148993 -0.179182
v 0.700560 -0.148993 -0.179182
v 0.700761 -0.145820 -0.179182
v 0.526034 -0.145820 -0.179182
v 0.700560 -0.148993 -0.179182
v 0.695884 -0.160683 -0.179182
v 0.530911 -0.160683 -0.179182
v 0.693841 -0.163120 -0.179182
v 0.529194 -0.158008 -0.179182
v 0.530911 -0.160683 -0.179182
v 0.695884 -0.160683 -0.179182
v 0.526235 -0.142647 -0.179182
v 0.526034 -0.145820 -0.179182
v 0.700761 -0.145820 -0.179182
v 0.700560 -0.142647 -0.179182
v 0.526235 -0.142647 -0.179182
v 0.700761 -0.145820 -0.179182
v 0.532954 -0.163120 -0.179182
v 0.693841 -0.163120 -0.179182
v 0.530911 -0.160683 -0.179182
v 0.526837 -0.139525 -0.179182
v 0.526235 -0.142647 -0.179182
v 0.700560 -0.142647 -0.179182
v 0.699958 -0.139525 -0.179182
v 0.526837 -0.139525 -0.179182
v 0.700560 -0.142647 -0.179182
v 0.527828 -0.136504 -0.179182
v 0.526837 -0.139525 -0.179182
v 0.699958 -0.139525 -0.179182
v 0.698967 -0.136504 -0.179182
v 0.527828 -0.136504 -0.179182
v 0.699958 -0.139525 -0.179182
v 0.529194 -0.133633 -0.179182
v 0.527828 -0.136504 -0.179182
v 0.698967 -0.136504 -0.179182
v 0.697601 -0.133633 -0.179182
v 0.529194 -0.133633 -0.179182
v 0.698967 -0.136504 -0.179182
v 0.530911 -0.130957 -0.179182
v 0.529194 -0.133633 -0.179182
v 0.697601 -0.133633 -0.179182
v 0.695884 -0.130957 -0.179182
v 0.530911 -0.130957 -0.179182
v 0.697601 -0.133633 -0.179182
v 0.532954 -0.128521 -0.179182
v 0.530911 -0.130957 -0.179182
v 0.695884 -0.130957 -0.179182
v 0.693841 -0.128521 -0.179182
v 0.532954 -0.128521 -0.179182
v 0.695884 -0.130957 -0.179182
v 0.698967 -0.155136 -0.179182
v 0.526837 -0.152115 -0.179182
v 0.699958 -0.152115 -0.179182
v 0.697601 -0.158008 -0.179182
v 0.527828 -0.155136 -0.179182
v 0.698967 -0.155136 -0.179182
v 0.699958 -0.152115 -0.179182
v 0.526235 -0.148993 -0.179182
v 0.700560 -0.148993 -0.179182
v 0.695884 -0.160683 -0.179182
v 0.529194 -0.158008 -0.179182
v 0.697601 -0.158008 -0.179182
v 0.698967 -0.155136 -0.179182
v 0.527828 -0.155136 -0.179182
v 0.526837 -0.152115 -0.179182
v 0.699958 -0.152115 -0.179182
v 0.526837 -0.152115 -0.179182
v 0.526235 -0.148993 -0.179182
v 0.697601 -0.158008 -0.179182
v 0.529194 -0.158008 -0.179182
v 0.527828 -0.155136 -0.179182
v 0.700560 -0.148993 -0.179182
v 0.526235 -0.148993 -0.179182
v 0.526034 -0.145820 -0.179182
v 0.700560 -0.148993 -0.179182
v 0.526034 -0.145820 -0.179182
v 0.700761 -0.145820 -0.179182
v 0.693841 -0.163120 -0.179182
v 0.530911 -0.160683 -0.179182
v 0.695884 -0.160683 -0.179182
v 0.695884 -0.160683 -0.179182
v 0.530911 -0.160683 -0.179182
v 0.529194 -0.158008 -0.179182
v 0.700761 -0.145820 -0.179182
v 0.526034 -0.145820 -0.179182
v 0.526235 -0.142647 -0.179182
v 0.700761 -0.145820 -0.179182
v 0.526235 -0.142647 -0.179182
v 0.700560 -0.142647 -0.179182
v 0.530911 -0.160683 -0.179182
v 0.693841 -0.163120 -0.179182
v 0.532954 -0.163120 -0.179182
v 0.700560 -0.142647 -0.179182
v 0.526235 -0.142647 -0.179182
v 0.526837 -0.139525 -0.179182
v 0.700560 -0.142647 -0.179182
v 0.526837 -0.139525 -0.179182
v 0.699958 -0.139525 -0.179182
v 0.699958 -0.139525 -0.179182
v 0.526837 -0.139525 -0.179182
v 0.527828 -0.136504 -0.179182
v 0.699958 -0.139525 -0.179182
v 0.527828 -0.136504 -0.179182
v 0.698967 -0.136504 -0.179182
v 0.698967 -0.136504 -0.179182
v 0.527828 -0.136504 -0.179182
v 0.529194 -0.133633 -0.179182
v 0.698967 -0.136504 -0.179182
v 0.529194 -0.133633 -0.179182
v 0.697601 -0.133633 -0.179182
v 0.697601 -0.133633 -0.179182
v 0.529194 -0.133633 -0.179182
v 0.530911 -0.130957 -0.179182
v 0.697601 -0.133633 -0.179182
v 0.530911 -0.130957 -0.179182
v 0.695884 -0.130957 -0.179182
v 0.695884 -0.130957 -0.179182
v 0.530911 -0.130957 -0.179182
v 0.532954 -0.128521 -0.179182
v 0.695884 -0.130957 -0.179182
v 0.532954 -0.128521 -0.179182
v 0.693841 -0.128521 -0.179182
vt -0.9076269865036011 0.05356699973344803
vt -0.8830029964447021 0.05356699973344803
vt -0.9074860215187073 0.052994001656770706
vt -0.8831440210342407 0.052994001656770706
vt -0.9072920083999634 0.05245000123977661
vt -0.9077119827270508 0.054159000515937805
vt -0.8829169869422913 0.054159000515937805
vt -0.8833379745483398 0.05245000123977661
vt -0.9070469737052917 0.051941998302936554
vt -0.8828889727592468 0.054760999977588654
vt -0.9077410101890564 0.054760999977588654
vt -0.8835819959640503 0.051941998302936554
vt -0.9067569971084595 0.0514799989759922
vt -0.8829169869422913 0.0553629994392395
vt -0.9077119827270508 0.0553629994392395
vt -0.8838729858398438 0.0514799989759922
vt -0.8830029964447021 0.05595500022172928
vt -0.9076269865036011 0.05595500022172928
vt -0.8831440210342407 0.0565279982984066
vt -0.9074860215187073 0.0565279982984066
vt -0.8833379745483398 0.057071998715400696
vt -0.9072920083999634 0.057071998715400696
vt -0.8835819959640503 0.05758000165224075
vt -0.9070469737052917 0.05758000165224075
vt -0.8838729858398438 0.058042000979185104
vt -0.9067569971084595 0.058042000979185104
vt 0.016582999378442764 0.5228999853134155
vt 0.03589000180363655 0.5232080221176147
vt 0.016472000628709793 0.5232080221176147
vt 0.016736000776290894 0.5226070284843445
vt 0.03577800095081329 0.5228999853134155
vt 0.03595700114965439 0.5235260128974915
vt 0.01640399917960167 0.5235260128974915
vt 0.01692900061607361 0.5223349928855896
vt 0.035624999552965164 0.5226070284843445
vt 0.03598000109195709 0.5238490104675293
vt 0.016381999477744102 0.5238490104675293
vt 0.01715799979865551 0.5220869779586792
vt 0.03543199971318245 0.5223349928855896
vt 0.03595700114965439 0.5241730213165283
vt 0.01640399917960167 0.5241730213165283
vt 0.0352029986679554 0.5220869779586792
vt 0.03589000180363655 0.524491012096405
vt 0.016472000628709793 0.524491012096405
vt 0.03577800095081329 0.5247989892959595
vt 0.016582999378442764 0.5247989892959595
vt 0.035624999552965164 0.5250909924507141
vt 0.016736000776290894 0.5250909924507141
vt 0.03543199971318245 0.5253639817237854
vt 0.01692900061607361 0.5253639817237854
vt 0.0352029986679554 0.5256119966506958
vt 0.01715799979865551 0.5256119966506958
vn 0 0 1
vn 0 0 -1
usemtl material_0_0
f 1/1/1 2/2/1 3/3/1
f 4/3/1 5/4/1 6/5/1
f 7/6/1 8/7/1 9/1/1
f 10/5/1 11/8/1 12/9/1
f 13/2/1 14/4/1 15/3/1
f 16/7/1 17/2/1 18/1/1
f 19/4/1 20/8/1 21/5/1
f 22/10/1 23/7/1 24/6/1
f 25/11/1 26/10/1 27/6/1
f 28/9/1 29/12/1 30/13/1
f 31/8/1 32/12/1 33/9/1
f 34/14/1 35/10/1 36/11/1
f 37/15/1 38/14/1 39/11/1
f 40/16/1 41/13/1 42/12/1
f 43/17/1 44/14/1 45/15/1
f 46/18/1 47/17/1 48/15/1
f 49/19/1 50/17/1 51/18/1
f 52/20/1 53/19/1 54/18/1
f 55/21/1 56/19/1 57/20/1
f 58/22/1 59/21/1 60/20/1
f 61/23/1 62/21/1 63/22/1
f 64/24/1 65/23/1 66/22/1
f 67/25/1 68/23/1 69/24/1
f 70/26/1 71/25/1 72/24/1
usemtl material_1_0
f 73/27/2 74/28/2 75/29/2
f 76/30/2 77/31/2 78/27/2
f 79/29/2 80/32/2 81/33/2
f 82/34/2 83/35/2 84/30/2
f 85/27/2 86/31/2 87/28/2
f 88/29/2 89/28/2 90/32/2
f 91/30/2 92/35/2 93/31/2
f 94/33/2 95/32/2 96/36/2
f 97/33/2 98/36/2 99/37/2
f 100/38/2 101/39/2 102/34/2
f 103/34/2 104/39/2 105/35/2
f 106/37/2 107/36/2 108/40/2
f 109/37/2 110/40/2 111/41/2
f 112/39/2 113/38/2 114/42/2
f 115/41/2 116/40/2 117/43/2
f 118/41/2 119/43/2 120/44/2
f 121/44/2 122/43/2 123/45/2
f 124/44/2 125/45/2 126/46/2
f 127/46/2 128/45/2 129/47/2
f 130/46/2 131/47/2 132/48/2
f 133/48/2 134/47/2 135/49/2
f 136/48/2 137/49/2 138/50/2
f 139/50/2 140/49/2 141/51/2
f 142/50/2 143/51/2 144/52/2
