# SSTK version 0.8.0
# 4
mtllib original-4.mtl
o 3dw.5334cfe15f80099f15ac67104577aee7/Model/mesh1/mesh1-geometry/material_1/component_2#mesh1-geometry
v 0.138757 -0.427653 -0.016137
v 0.138757 -0.427653 -0.068036
v 0.138602 -0.427653 -0.013345
v 0.138757 -0.427653 -0.068036
v 0.138586 -0.427653 -0.071123
v 0.138602 -0.427653 -0.013345
v 0.138602 -0.427653 -0.013345
v 0.138586 -0.427653 -0.071123
v 0.138083 -0.427653 -0.010598
v 0.138586 -0.427653 -0.071123
v 0.138074 -0.427653 -0.074172
v 0.138083 -0.427653 -0.010598
v 0.138083 -0.427653 -0.010598
v 0.137230 -0.427653 -0.077145
v 0.137207 -0.427653 -0.007943
v 0.138074 -0.427653 -0.074172
v 0.137230 -0.427653 -0.077145
v 0.138083 -0.427653 -0.010598
v 0.137207 -0.427653 -0.007943
v 0.136062 -0.427653 -0.080007
v 0.135990 -0.427653 -0.005425
v 0.137230 -0.427653 -0.077145
v 0.136062 -0.427653 -0.080007
v 0.137207 -0.427653 -0.007943
v 0.135990 -0.427653 -0.005425
v 0.134586 -0.427653 -0.082723
v 0.134452 -0.427653 -0.003090
v 0.136062 -0.427653 -0.080007
v 0.134586 -0.427653 -0.082723
v 0.135990 -0.427653 -0.005425
v 0.134452 -0.427653 -0.003090
v 0.132818 -0.427653 -0.085259
v 0.132621 -0.427653 -0.000977
v 0.134586 -0.427653 -0.082723
v 0.132818 -0.427653 -0.085259
v 0.134452 -0.427653 -0.003090
v 0.132621 -0.427653 -0.000977
v 0.130781 -0.427653 -0.087585
v 0.130528 -0.427653 0.000877
v 0.130528 -0.427653 0.000877
v 0.128501 -0.427653 -0.089671
v 0.128209 -0.427653 0.002440
v 0.132818 -0.427653 -0.085259
v 0.130781 -0.427653 -0.087585
v 0.132621 -0.427653 -0.000977
v 0.128209 -0.427653 0.002440
v 0.126003 -0.427653 -0.091492
v 0.125705 -0.427653 0.003685
v 0.130781 -0.427653 -0.087585
v 0.128501 -0.427653 -0.089671
v 0.130528 -0.427653 0.000877
v 0.128501 -0.427653 -0.089671
v 0.126003 -0.427653 -0.091492
v 0.128209 -0.427653 0.002440
v 0.125705 -0.427653 0.003685
v 0.123319 -0.427653 -0.093026
v 0.123060 -0.427653 0.004589
v 0.126003 -0.427653 -0.091492
v 0.123319 -0.427653 -0.093026
v 0.125705 -0.427653 0.003685
v 0.123060 -0.427653 0.004589
v 0.120483 -0.427653 -0.094255
v 0.120318 -0.427653 0.005138
v 0.123319 -0.427653 -0.093026
v 0.120483 -0.427653 -0.094255
v 0.123060 -0.427653 0.004589
v 0.117528 -0.427653 -0.095163
v -0.026226 -0.427653 -0.095163
v -0.025340 -0.427653 -0.071300
v 0.120483 -0.427653 -0.094255
v 0.117528 -0.427653 -0.095163
v 0.117528 -0.427653 0.005323
v -0.026226 -0.427653 -0.095163
v -0.029646 -0.427653 -0.094178
v -0.028877 -0.427653 -0.070070
v -0.029646 -0.427653 -0.094178
v -0.032975 -0.427653 -0.092922
v -0.032006 -0.427653 -0.068013
v 0.120318 -0.427653 0.005138
v 0.120483 -0.427653 -0.094255
v 0.117528 -0.427653 0.005323
v -0.040856 -0.427653 0.005132
v -0.042216 -0.427653 -0.087621
v -0.043489 -0.427653 0.004565
v -0.043489 -0.427653 0.004565
v -0.044980 -0.427653 -0.085380
v -0.046017 -0.427653 0.003633
v -0.038169 -0.427653 0.005323
v -0.039281 -0.427653 -0.089633
v -0.040856 -0.427653 0.005132
v -0.025340 -0.427653 -0.071300
v -0.026226 -0.427653 -0.095163
v -0.027147 -0.427653 -0.070794
v -0.023486 -0.427653 -0.071578
v 0.117528 -0.427653 -0.095163
v -0.025340 -0.427653 -0.071300
v 0.117528 -0.427653 -0.095163
v 0.113163 -0.427653 -0.021854
v 0.117528 -0.427653 0.005323
v -0.028877 -0.427653 -0.070070
v -0.029646 -0.427653 -0.094178
v -0.030505 -0.427653 -0.069138
v -0.027147 -0.427653 -0.070794
v -0.026226 -0.427653 -0.095163
v -0.028877 -0.427653 -0.070070
v -0.032006 -0.427653 -0.068013
v -0.032975 -0.427653 -0.092922
v -0.033356 -0.427653 -0.066710
v -0.030505 -0.427653 -0.069138
v -0.029646 -0.427653 -0.094178
v -0.032006 -0.427653 -0.068013
v 0.117528 -0.427653 0.005323
v -0.037344 -0.427653 -0.021854
v -0.038169 -0.427653 0.005323
v -0.046017 -0.427653 0.003633
v -0.047557 -0.427653 -0.082926
v -0.048387 -0.427653 0.002354
v -0.042216 -0.427653 -0.087621
v -0.044980 -0.427653 -0.085380
v -0.043489 -0.427653 0.004565
v -0.039281 -0.427653 -0.089633
v -0.042216 -0.427653 -0.087621
v -0.040856 -0.427653 0.005132
v -0.044980 -0.427653 -0.085380
v -0.047557 -0.427653 -0.082926
v -0.046017 -0.427653 0.003633
v -0.037344 -0.427653 -0.056454
v -0.039281 -0.427653 -0.089633
v -0.038169 -0.427653 0.005323
v 0.097612 -0.427653 -0.071578
v 0.117528 -0.427653 -0.095163
v -0.023486 -0.427653 -0.071578
v 0.113163 -0.427653 -0.021854
v -0.037344 -0.427653 -0.021854
v 0.117528 -0.427653 0.005323
v 0.113163 -0.427653 -0.021854
v 0.117528 -0.427653 -0.095163
v 0.113163 -0.427653 -0.056454
v -0.032975 -0.427653 -0.092922
v -0.036194 -0.427653 -0.091404
v -0.035525 -0.427653 -0.063659
v -0.033356 -0.427653 -0.066710
v -0.032975 -0.427653 -0.092922
v -0.034535 -0.427653 -0.065252
v -0.037344 -0.427653 -0.056454
v -0.038169 -0.427653 0.005323
v -0.037344 -0.427653 -0.021854
v -0.048387 -0.427653 0.002354
v -0.049929 -0.427653 -0.080273
v -0.050554 -0.427653 0.000754
v -0.047557 -0.427653 -0.082926
v -0.049929 -0.427653 -0.080273
v -0.048387 -0.427653 0.002354
v -0.036194 -0.427653 -0.091404
v -0.039281 -0.427653 -0.089633
v -0.037344 -0.427653 -0.056454
v 0.099607 -0.427653 -0.071450
v 0.117528 -0.427653 -0.095163
v 0.097612 -0.427653 -0.071578
v 0.113163 -0.427653 -0.056454
v 0.117528 -0.427653 -0.095163
v 0.112980 -0.427653 -0.058444
v -0.035525 -0.427653 -0.063659
v -0.036194 -0.427653 -0.091404
v -0.036312 -0.427653 -0.061956
v -0.034535 -0.427653 -0.065252
v -0.032975 -0.427653 -0.092922
v -0.035525 -0.427653 -0.063659
v -0.050554 -0.427653 0.000754
v -0.052081 -0.427653 -0.077439
v -0.052474 -0.427653 -0.001136
v -0.049929 -0.427653 -0.080273
v -0.052081 -0.427653 -0.077439
v -0.050554 -0.427653 0.000754
v -0.037228 -0.427653 -0.058326
v -0.036194 -0.427653 -0.091404
v -0.037344 -0.427653 -0.056454
v 0.101569 -0.427653 -0.071067
v 0.117528 -0.427653 -0.095163
v 0.099607 -0.427653 -0.071450
v 0.112980 -0.427653 -0.058444
v 0.117528 -0.427653 -0.095163
v 0.112542 -0.427653 -0.060395
v -0.036312 -0.427653 -0.061956
v -0.036194 -0.427653 -0.091404
v -0.036882 -0.427653 -0.060169
v -0.052081 -0.427653 -0.077439
v -0.054000 -0.427653 -0.074442
v -0.052474 -0.427653 -0.001136
v -0.036882 -0.427653 -0.060169
v -0.036194 -0.427653 -0.091404
v -0.037228 -0.427653 -0.058326
v 0.103466 -0.427653 -0.070435
v 0.117528 -0.427653 -0.095163
v 0.101569 -0.427653 -0.071067
v 0.112542 -0.427653 -0.060395
v 0.117528 -0.427653 -0.095163
v 0.111858 -0.427653 -0.062273
v -0.052474 -0.427653 -0.001136
v -0.054000 -0.427653 -0.074442
v -0.054108 -0.427653 -0.003277
v 0.105266 -0.427653 -0.069566
v 0.117528 -0.427653 -0.095163
v 0.103466 -0.427653 -0.070435
v 0.111858 -0.427653 -0.062273
v 0.117528 -0.427653 -0.095163
v 0.110939 -0.427653 -0.064048
v -0.054108 -0.427653 -0.003277
v -0.054000 -0.427653 -0.074442
v -0.055424 -0.427653 -0.005628
v 0.106939 -0.427653 -0.068472
v 0.117528 -0.427653 -0.095163
v 0.105266 -0.427653 -0.069566
v 0.110939 -0.427653 -0.064048
v 0.117528 -0.427653 -0.095163
v 0.109799 -0.427653 -0.065691
v -0.055424 -0.427653 -0.005628
v -0.055672 -0.427653 -0.071301
v -0.056396 -0.427653 -0.008140
v -0.054000 -0.427653 -0.074442
v -0.055672 -0.427653 -0.071301
v -0.055424 -0.427653 -0.005628
v 0.108459 -0.427653 -0.067174
v 0.117528 -0.427653 -0.095163
v 0.106939 -0.427653 -0.068472
v 0.109799 -0.427653 -0.065691
v 0.117528 -0.427653 -0.095163
v 0.108459 -0.427653 -0.067174
v -0.056396 -0.427653 -0.008140
v -0.055672 -0.427653 -0.071301
v -0.057004 -0.427653 -0.010764
v -0.057088 -0.427653 -0.016137
v -0.057237 -0.427653 -0.013448
v -0.057004 -0.427653 -0.010764
v -0.057004 -0.427653 -0.010764
v -0.055672 -0.427653 -0.071301
v -0.057088 -0.427653 -0.016137
v -0.057088 -0.427653 -0.068036
v -0.057088 -0.427653 -0.016137
v -0.055672 -0.427653 -0.071301
v 0.138602 -0.427653 -0.013345
v 0.138757 -0.427653 -0.068036
v 0.138757 -0.427653 -0.016137
v 0.138602 -0.427653 -0.013345
v 0.138586 -0.427653 -0.071123
v 0.138757 -0.427653 -0.068036
v 0.138083 -0.427653 -0.010598
v 0.138586 -0.427653 -0.071123
v 0.138602 -0.427653 -0.013345
v 0.138083 -0.427653 -0.010598
v 0.138074 -0.427653 -0.074172
v 0.138586 -0.427653 -0.071123
v 0.137207 -0.427653 -0.007943
v 0.137230 -0.427653 -0.077145
v 0.138083 -0.427653 -0.010598
v 0.138083 -0.427653 -0.010598
v 0.137230 -0.427653 -0.077145
v 0.138074 -0.427653 -0.074172
v 0.135990 -0.427653 -0.005425
v 0.136062 -0.427653 -0.080007
v 0.137207 -0.427653 -0.007943
v 0.137207 -0.427653 -0.007943
v 0.136062 -0.427653 -0.080007
v 0.137230 -0.427653 -0.077145
v 0.134452 -0.427653 -0.003090
v 0.134586 -0.427653 -0.082723
v 0.135990 -0.427653 -0.005425
v 0.135990 -0.427653 -0.005425
v 0.134586 -0.427653 -0.082723
v 0.136062 -0.427653 -0.080007
v 0.132621 -0.427653 -0.000977
v 0.132818 -0.427653 -0.085259
v 0.134452 -0.427653 -0.003090
v 0.134452 -0.427653 -0.003090
v 0.132818 -0.427653 -0.085259
v 0.134586 -0.427653 -0.082723
v 0.130528 -0.427653 0.000877
v 0.130781 -0.427653 -0.087585
v 0.132621 -0.427653 -0.000977
v 0.128209 -0.427653 0.002440
v 0.128501 -0.427653 -0.089671
v 0.130528 -0.427653 0.000877
v 0.132621 -0.427653 -0.000977
v 0.130781 -0.427653 -0.087585
v 0.132818 -0.427653 -0.085259
v 0.125705 -0.427653 0.003685
v 0.126003 -0.427653 -0.091492
v 0.128209 -0.427653 0.002440
v 0.130528 -0.427653 0.000877
v 0.128501 -0.427653 -0.089671
v 0.130781 -0.427653 -0.087585
v 0.128209 -0.427653 0.002440
v 0.126003 -0.427653 -0.091492
v 0.128501 -0.427653 -0.089671
v 0.123060 -0.427653 0.004589
v 0.123319 -0.427653 -0.093026
v 0.125705 -0.427653 0.003685
v 0.125705 -0.427653 0.003685
v 0.123319 -0.427653 -0.093026
v 0.126003 -0.427653 -0.091492
v 0.120318 -0.427653 0.005138
v 0.120483 -0.427653 -0.094255
v 0.123060 -0.427653 0.004589
v 0.123060 -0.427653 0.004589
v 0.120483 -0.427653 -0.094255
v 0.123319 -0.427653 -0.093026
v -0.025340 -0.427653 -0.071300
v -0.026226 -0.427653 -0.095163
v 0.117528 -0.427653 -0.095163
v 0.117528 -0.427653 0.005323
v 0.117528 -0.427653 -0.095163
v 0.120483 -0.427653 -0.094255
v -0.028877 -0.427653 -0.070070
v -0.029646 -0.427653 -0.094178
v -0.026226 -0.427653 -0.095163
v -0.032006 -0.427653 -0.068013
v -0.032975 -0.427653 -0.092922
v -0.029646 -0.427653 -0.094178
v 0.117528 -0.427653 0.005323
v 0.120483 -0.427653 -0.094255
v 0.120318 -0.427653 0.005138
v -0.043489 -0.427653 0.004565
v -0.042216 -0.427653 -0.087621
v -0.040856 -0.427653 0.005132
v -0.046017 -0.427653 0.003633
v -0.044980 -0.427653 -0.085380
v -0.043489 -0.427653 0.004565
v -0.040856 -0.427653 0.005132
v -0.039281 -0.427653 -0.089633
v -0.038169 -0.427653 0.005323
v -0.027147 -0.427653 -0.070794
v -0.026226 -0.427653 -0.095163
v -0.025340 -0.427653 -0.071300
v -0.025340 -0.427653 -0.071300
v 0.117528 -0.427653 -0.095163
v -0.023486 -0.427653 -0.071578
v 0.117528 -0.427653 0.005323
v 0.113163 -0.427653 -0.021854
v 0.117528 -0.427653 -0.095163
v -0.030505 -0.427653 -0.069138
v -0.029646 -0.427653 -0.094178
v -0.028877 -0.427653 -0.070070
v -0.028877 -0.427653 -0.070070
v -0.026226 -0.427653 -0.095163
v -0.027147 -0.427653 -0.070794
v -0.033356 -0.427653 -0.066710
v -0.032975 -0.427653 -0.092922
v -0.032006 -0.427653 -0.068013
v -0.032006 -0.427653 -0.068013
v -0.029646 -0.427653 -0.094178
v -0.030505 -0.427653 -0.069138
v -0.038169 -0.427653 0.005323
v -0.037344 -0.427653 -0.021854
v 0.117528 -0.427653 0.005323
v -0.048387 -0.427653 0.002354
v -0.047557 -0.427653 -0.082926
v -0.046017 -0.427653 0.003633
v -0.043489 -0.427653 0.004565
v -0.044980 -0.427653 -0.085380
v -0.042216 -0.427653 -0.087621
v -0.040856 -0.427653 0.005132
v -0.042216 -0.427653 -0.087621
v -0.039281 -0.427653 -0.089633
v -0.046017 -0.427653 0.003633
v -0.047557 -0.427653 -0.082926
v -0.044980 -0.427653 -0.085380
v -0.038169 -0.427653 0.005323
v -0.039281 -0.427653 -0.089633
v -0.037344 -0.427653 -0.056454
v -0.023486 -0.427653 -0.071578
v 0.117528 -0.427653 -0.095163
v 0.097612 -0.427653 -0.071578
v 0.117528 -0.427653 0.005323
v -0.037344 -0.427653 -0.021854
v 0.113163 -0.427653 -0.021854
v 0.113163 -0.427653 -0.056454
v 0.117528 -0.427653 -0.095163
v 0.113163 -0.427653 -0.021854
v -0.035525 -0.427653 -0.063659
v -0.036194 -0.427653 -0.091404
v -0.032975 -0.427653 -0.092922
v -0.034535 -0.427653 -0.065252
v -0.032975 -0.427653 -0.092922
v -0.033356 -0.427653 -0.066710
v -0.037344 -0.427653 -0.021854
v -0.038169 -0.427653 0.005323
v -0.037344 -0.427653 -0.056454
v -0.050554 -0.427653 0.000754
v -0.049929 -0.427653 -0.080273
v -0.048387 -0.427653 0.002354
v -0.048387 -0.427653 0.002354
v -0.049929 -0.427653 -0.080273
v -0.047557 -0.427653 -0.082926
v -0.037344 -0.427653 -0.056454
v -0.039281 -0.427653 -0.089633
v -0.036194 -0.427653 -0.091404
v 0.097612 -0.427653 -0.071578
v 0.117528 -0.427653 -0.095163
v 0.099607 -0.427653 -0.071450
v 0.112980 -0.427653 -0.058444
v 0.117528 -0.427653 -0.095163
v 0.113163 -0.427653 -0.056454
v -0.036312 -0.427653 -0.061956
v -0.036194 -0.427653 -0.091404
v -0.035525 -0.427653 -0.063659
v -0.035525 -0.427653 -0.063659
v -0.032975 -0.427653 -0.092922
v -0.034535 -0.427653 -0.065252
v -0.052474 -0.427653 -0.001136
v -0.052081 -0.427653 -0.077439
v -0.050554 -0.427653 0.000754
v -0.050554 -0.427653 0.000754
v -0.052081 -0.427653 -0.077439
v -0.049929 -0.427653 -0.080273
v -0.037344 -0.427653 -0.056454
v -0.036194 -0.427653 -0.091404
v -0.037228 -0.427653 -0.058326
v 0.099607 -0.427653 -0.071450
v 0.117528 -0.427653 -0.095163
v 0.101569 -0.427653 -0.071067
v 0.112542 -0.427653 -0.060395
v 0.117528 -0.427653 -0.095163
v 0.112980 -0.427653 -0.058444
v -0.036882 -0.427653 -0.060169
v -0.036194 -0.427653 -0.091404
v -0.036312 -0.427653 -0.061956
v -0.052474 -0.427653 -0.001136
v -0.054000 -0.427653 -0.074442
v -0.052081 -0.427653 -0.077439
v -0.037228 -0.427653 -0.058326
v -0.036194 -0.427653 -0.091404
v -0.036882 -0.427653 -0.060169
v 0.101569 -0.427653 -0.071067
v 0.117528 -0.427653 -0.095163
v 0.103466 -0.427653 -0.070435
v 0.111858 -0.427653 -0.062273
v 0.117528 -0.427653 -0.095163
v 0.112542 -0.427653 -0.060395
v -0.054108 -0.427653 -0.003277
v -0.054000 -0.427653 -0.074442
v -0.052474 -0.427653 -0.001136
v 0.103466 -0.427653 -0.070435
v 0.117528 -0.427653 -0.095163
v 0.105266 -0.427653 -0.069566
v 0.110939 -0.427653 -0.064048
v 0.117528 -0.427653 -0.095163
v 0.111858 -0.427653 -0.062273
v -0.055424 -0.427653 -0.005628
v -0.054000 -0.427653 -0.074442
v -0.054108 -0.427653 -0.003277
v 0.105266 -0.427653 -0.069566
v 0.117528 -0.427653 -0.095163
v 0.106939 -0.427653 -0.068472
v 0.109799 -0.427653 -0.065691
v 0.117528 -0.427653 -0.095163
v 0.110939 -0.427653 -0.064048
v -0.056396 -0.427653 -0.008140
v -0.055672 -0.427653 -0.071301
v -0.055424 -0.427653 -0.005628
v -0.055424 -0.427653 -0.005628
v -0.055672 -0.427653 -0.071301
v -0.054000 -0.427653 -0.074442
v 0.106939 -0.427653 -0.068472
v 0.117528 -0.427653 -0.095163
v 0.108459 -0.427653 -0.067174
v 0.108459 -0.427653 -0.067174
v 0.117528 -0.427653 -0.095163
v 0.109799 -0.427653 -0.065691
v -0.057004 -0.427653 -0.010764
v -0.055672 -0.427653 -0.071301
v -0.056396 -0.427653 -0.008140
v -0.057004 -0.427653 -0.010764
v -0.057237 -0.427653 -0.013448
v -0.057088 -0.427653 -0.016137
v -0.057088 -0.427653 -0.016137
v -0.055672 -0.427653 -0.071301
v -0.057004 -0.427653 -0.010764
v -0.055672 -0.427653 -0.071301
v -0.057088 -0.427653 -0.016137
v -0.057088 -0.427653 -0.068036
vt 0 0
vt -0.430307000875473 0.3208659887313843
vt -0.43023499846458435 0.2853330075740814
vt -0.43022799491882324 0.3190520107746124
vt -0.430323988199234 0.28332799673080444
vt -0.43057599663734436 0.3226509988307953
vt -0.4305889904499054 0.28134700655937195
vt -0.4310300052165985 0.3243759870529175
vt -0.43102699518203735 0.2794150114059448
vt -0.4316610097885132 0.32601198554039
vt -0.43163299560546875 0.27755600214004517
vt -0.4324580132961273 0.32752901315689087
vt -0.4323990046977997 0.2757909893989563
vt -0.4334070086479187 0.328902006149292
vt -0.4333159923553467 0.2741430103778839
vt -0.4344930052757263 0.3301059901714325
vt -0.43437299132347107 0.27263298630714417
vt -0.43569499254226685 0.3311220109462738
vt -0.43555599451065063 0.2712770104408264
vt -0.4369930028915405 0.331930011510849
vt -0.43685099482536316 0.27009400725364685
vt -0.43836501240730286 0.3325180113315582
vt -0.43824300169944763 0.2690970003604889
vt -0.43978598713874817 0.33287501335144043
vt -0.4397140145301819 0.26829901337623596
vt -0.5153290033340454 0.2832129895687103
vt -0.5157920122146606 0.26770898699760437
vt -0.44124698638916016 0.26770898699760437
vt -0.4412330090999603 0.3329949975013733
vt -0.5171629786491394 0.28401198983192444
vt -0.5175650119781494 0.2683489918708801
vt -0.5187849998474121 0.2853490114212036
vt -0.5192909836769104 0.2691650092601776
vt -0.5247300267219543 0.33250299096107483
vt -0.5240820050239563 0.27260899543762207
vt -0.5233650207519531 0.3328709900379181
vt -0.5260409712791443 0.33189699053764343
vt -0.5255159735679626 0.2740649878978729
vt -0.5225600004196167 0.2713020145893097
vt -0.5219720005989075 0.3329949975013733
vt -0.5162659883499146 0.2835409939289093
vt -0.5143669843673706 0.28303200006484985
vt -0.44350001215934753 0.31533798575401306
vt -0.5180069804191589 0.28461700677871704
vt -0.5194849967956543 0.2861950099468231
vt -0.5215470194816589 0.31533798575401306
vt -0.5272709727287292 0.3310660123825073
vt -0.5268509984016418 0.2756589949131012
vt -0.5215520262718201 0.2928589880466461
vt -0.451570987701416 0.28303200006484985
vt -0.4435049891471863 0.2928589880466461
vt -0.520609974861145 0.2881770133972168
vt -0.5209599733352661 0.2701509892940521
vt -0.5200960040092468 0.2871420085430145
vt -0.5283939838409424 0.3300260007381439
vt -0.5280809998512268 0.2773829996585846
vt -0.45053601264953613 0.2831149995326996
vt -0.44359999895095825 0.2915650010108948
vt -0.5210170149803162 0.28928399085998535
vt -0.5293899774551392 0.32879799604415894
vt -0.5291969776153564 0.2792240083217621
vt -0.5214920043945312 0.2916420102119446
vt -0.44951900839805603 0.2833639979362488
vt -0.4438270032405853 0.2902980148792267
vt -0.5213130116462708 0.2904439866542816
vt -0.5301910042762756 0.2811709940433502
vt -0.4485349953174591 0.2837750017642975
vt -0.44418200850486755 0.2890779972076416
vt -0.5302379727363586 0.32740700244903564
vt -0.4476020038127899 0.2843399941921234
vt -0.4446589946746826 0.28792399168014526
vt -0.5309209823608398 0.3258799910545349
vt -0.4467340111732483 0.28505000472068787
vt -0.445250004529953 0.286857008934021
vt -0.5314249992370605 0.32424798607826233
vt -0.5310580134391785 0.28321200609207153
vt -0.44594600796699524 0.2858940064907074
vt -0.5317410230636597 0.3225429952144623
vt -0.5318610072135925 0.3208000063896179
vt -0.5317850112915039 0.3190520107746124
vt -0.5317919850349426 0.2853330075740814
vn 0 1 0
vn 0 -1 0
usemtl material_0_0
f 1/1/1 2/1/1 3/1/1
f 4/1/1 5/1/1 6/1/1
f 7/1/1 8/1/1 9/1/1
f 10/1/1 11/1/1 12/1/1
f 13/1/1 14/1/1 15/1/1
f 16/1/1 17/1/1 18/1/1
f 19/1/1 20/1/1 21/1/1
f 22/1/1 23/1/1 24/1/1
f 25/1/1 26/1/1 27/1/1
f 28/1/1 29/1/1 30/1/1
f 31/1/1 32/1/1 33/1/1
f 34/1/1 35/1/1 36/1/1
f 37/1/1 38/1/1 39/1/1
f 40/1/1 41/1/1 42/1/1
f 43/1/1 44/1/1 45/1/1
f 46/1/1 47/1/1 48/1/1
f 49/1/1 50/1/1 51/1/1
f 52/1/1 53/1/1 54/1/1
f 55/1/1 56/1/1 57/1/1
f 58/1/1 59/1/1 60/1/1
f 61/1/1 62/1/1 63/1/1
f 64/1/1 65/1/1 66/1/1
f 67/1/1 68/1/1 69/1/1
f 70/1/1 71/1/1 72/1/1
f 73/1/1 74/1/1 75/1/1
f 76/1/1 77/1/1 78/1/1
f 79/1/1 80/1/1 81/1/1
f 82/1/1 83/1/1 84/1/1
f 85/1/1 86/1/1 87/1/1
f 88/1/1 89/1/1 90/1/1
f 91/1/1 92/1/1 93/1/1
f 94/1/1 95/1/1 96/1/1
f 97/1/1 98/1/1 99/1/1
f 100/1/1 101/1/1 102/1/1
f 103/1/1 104/1/1 105/1/1
f 106/1/1 107/1/1 108/1/1
f 109/1/1 110/1/1 111/1/1
f 112/1/1 113/1/1 114/1/1
f 115/1/1 116/1/1 117/1/1
f 118/1/1 119/1/1 120/1/1
f 121/1/1 122/1/1 123/1/1
f 124/1/1 125/1/1 126/1/1
f 127/1/1 128/1/1 129/1/1
f 130/1/1 131/1/1 132/1/1
f 133/1/1 134/1/1 135/1/1
f 136/1/1 137/1/1 138/1/1
f 139/1/1 140/1/1 141/1/1
f 142/1/1 143/1/1 144/1/1
f 145/1/1 146/1/1 147/1/1
f 148/1/1 149/1/1 150/1/1
f 151/1/1 152/1/1 153/1/1
f 154/1/1 155/1/1 156/1/1
f 157/1/1 158/1/1 159/1/1
f 160/1/1 161/1/1 162/1/1
f 163/1/1 164/1/1 165/1/1
f 166/1/1 167/1/1 168/1/1
f 169/1/1 170/1/1 171/1/1
f 172/1/1 173/1/1 174/1/1
f 175/1/1 176/1/1 177/1/1
f 178/1/1 179/1/1 180/1/1
f 181/1/1 182/1/1 183/1/1
f 184/1/1 185/1/1 186/1/1
f 187/1/1 188/1/1 189/1/1
f 190/1/1 191/1/1 192/1/1
f 193/1/1 194/1/1 195/1/1
f 196/1/1 197/1/1 198/1/1
f 199/1/1 200/1/1 201/1/1
f 202/1/1 203/1/1 204/1/1
f 205/1/1 206/1/1 207/1/1
f 208/1/1 209/1/1 210/1/1
f 211/1/1 212/1/1 213/1/1
f 214/1/1 215/1/1 216/1/1
f 217/1/1 218/1/1 219/1/1
f 220/1/1 221/1/1 222/1/1
f 223/1/1 224/1/1 225/1/1
f 226/1/1 227/1/1 228/1/1
f 229/1/1 230/1/1 231/1/1
f 232/1/1 233/1/1 234/1/1
f 235/1/1 236/1/1 237/1/1
f 238/1/1 239/1/1 240/1/1
usemtl material_1_0
f 241/2/2 242/3/2 243/4/2
f 244/2/2 245/5/2 246/3/2
f 247/6/2 248/5/2 249/2/2
f 250/6/2 251/7/2 252/5/2
f 253/8/2 254/9/2 255/6/2
f 256/6/2 257/9/2 258/7/2
f 259/10/2 260/11/2 261/8/2
f 262/8/2 263/11/2 264/9/2
f 265/12/2 266/13/2 267/10/2
f 268/10/2 269/13/2 270/11/2
f 271/14/2 272/15/2 273/12/2
f 274/12/2 275/15/2 276/13/2
f 277/16/2 278/17/2 279/14/2
f 280/18/2 281/19/2 282/16/2
f 283/14/2 284/17/2 285/15/2
f 286/20/2 287/21/2 288/18/2
f 289/16/2 290/19/2 291/17/2
f 292/18/2 293/21/2 294/19/2
f 295/22/2 296/23/2 297/20/2
f 298/20/2 299/23/2 300/21/2
f 301/24/2 302/25/2 303/22/2
f 304/22/2 305/25/2 306/23/2
f 307/26/2 308/27/2 309/28/2
f 310/29/2 311/28/2 312/25/2
f 313/30/2 314/31/2 315/27/2
f 316/32/2 317/33/2 318/31/2
f 319/29/2 320/25/2 321/24/2
f 322/34/2 323/35/2 324/36/2
f 325/37/2 326/38/2 327/34/2
f 328/36/2 329/39/2 330/40/2
f 331/41/2 332/27/2 333/26/2
f 334/26/2 335/28/2 336/42/2
f 337/29/2 338/43/2 339/28/2
f 340/44/2 341/31/2 342/30/2
f 343/30/2 344/27/2 345/41/2
f 346/45/2 347/33/2 348/32/2
f 349/32/2 350/31/2 351/44/2
f 352/40/2 353/46/2 354/29/2
f 355/47/2 356/48/2 357/37/2
f 358/34/2 359/38/2 360/35/2
f 361/36/2 362/35/2 363/39/2
f 364/37/2 365/48/2 366/38/2
f 367/40/2 368/39/2 369/49/2
f 370/42/2 371/28/2 372/50/2
f 373/29/2 374/46/2 375/43/2
f 376/51/2 377/28/2 378/43/2
f 379/52/2 380/53/2 381/33/2
f 382/54/2 383/33/2 384/45/2
f 385/46/2 386/40/2 387/49/2
f 388/55/2 389/56/2 390/47/2
f 391/47/2 392/56/2 393/48/2
f 394/49/2 395/39/2 396/53/2
f 397/50/2 398/28/2 399/57/2
f 400/58/2 401/28/2 402/51/2
f 403/59/2 404/53/2 405/52/2
f 406/52/2 407/33/2 408/54/2
f 409/60/2 410/61/2 411/55/2
f 412/55/2 413/61/2 414/56/2
f 415/49/2 416/53/2 417/62/2
f 418/57/2 419/28/2 420/63/2
f 421/64/2 422/28/2 423/58/2
f 424/65/2 425/53/2 426/59/2
f 427/60/2 428/66/2 429/61/2
f 430/62/2 431/53/2 432/65/2
f 433/63/2 434/28/2 435/67/2
f 436/68/2 437/28/2 438/64/2
f 439/69/2 440/66/2 441/60/2
f 442/67/2 443/28/2 444/70/2
f 445/71/2 446/28/2 447/68/2
f 448/72/2 449/66/2 450/69/2
f 451/70/2 452/28/2 453/73/2
f 454/74/2 455/28/2 456/71/2
f 457/75/2 458/76/2 459/72/2
f 460/72/2 461/76/2 462/66/2
f 463/73/2 464/28/2 465/77/2
f 466/77/2 467/28/2 468/74/2
f 469/78/2 470/76/2 471/75/2
f 472/78/2 473/79/2 474/80/2
f 475/80/2 476/76/2 477/78/2
f 478/76/2 479/80/2 480/81/2
