# SSTK version 0.8.0
# 50
mtllib original-50.mtl
o 3dw.5334cfe15f80099f15ac67104577aee7/Model/mesh1/mesh1-geometry/material_15/component_3#mesh1-geometry
v -0.743142 -0.050026 -0.179182
v -0.743142 -0.050026 -0.193022
v -0.752097 -0.048847 -0.179182
v -0.752097 -0.048847 -0.179182
v -0.752097 -0.048847 -0.193022
v -0.760441 -0.045390 -0.179182
v -0.760441 -0.045390 -0.179182
v -0.760441 -0.045390 -0.193022
v -0.767607 -0.039892 -0.179182
v -0.773106 -0.032726 -0.179182
v -0.767607 -0.039892 -0.179182
v -0.773106 -0.032726 -0.193022
v -0.776562 -0.024381 -0.179182
v -0.773106 -0.032726 -0.179182
v -0.776562 -0.024381 -0.193022
v -0.777741 -0.015426 -0.179182
v -0.776562 -0.024381 -0.179182
v -0.777741 -0.015426 -0.193022
v -0.776562 -0.006471 -0.179182
v -0.777741 -0.015426 -0.179182
v -0.776562 -0.006471 -0.193022
v -0.773106 0.001873 -0.179182
v -0.776562 -0.006471 -0.179182
v -0.773106 0.001873 -0.193022
v -0.767607 0.009039 -0.179182
v -0.773106 0.001873 -0.179182
v -0.767607 0.009039 -0.193022
v -0.767607 0.009039 -0.179182
v -0.767607 0.009039 -0.193022
v -0.760441 0.014538 -0.179182
v -0.760441 0.014538 -0.179182
v -0.760441 0.014538 -0.193022
v -0.752097 0.017994 -0.179182
v -0.752097 -0.048847 -0.193022
v -0.752097 -0.048847 -0.179182
v -0.743142 -0.050026 -0.193022
v -0.743142 -0.050026 -0.193022
v -0.743142 -0.050026 -0.179182
v -0.734187 -0.048847 -0.193022
v -0.760441 -0.045390 -0.193022
v -0.760441 -0.045390 -0.179182
v -0.752097 -0.048847 -0.193022
v -0.767607 -0.039892 -0.193022
v -0.767607 -0.039892 -0.179182
v -0.760441 -0.045390 -0.193022
v -0.767607 -0.039892 -0.193022
v -0.773106 -0.032726 -0.193022
v -0.767607 -0.039892 -0.179182
v -0.773106 -0.032726 -0.193022
v -0.776562 -0.024381 -0.193022
v -0.773106 -0.032726 -0.179182
v -0.776562 -0.024381 -0.193022
v -0.777741 -0.015426 -0.193022
v -0.776562 -0.024381 -0.179182
v -0.777741 -0.015426 -0.193022
v -0.776562 -0.006471 -0.193022
v -0.777741 -0.015426 -0.179182
v -0.776562 -0.006471 -0.193022
v -0.773106 0.001873 -0.193022
v -0.776562 -0.006471 -0.179182
v -0.773106 0.001873 -0.193022
v -0.767607 0.009039 -0.193022
v -0.773106 0.001873 -0.179182
v -0.760441 0.014538 -0.193022
v -0.760441 0.014538 -0.179182
v -0.767607 0.009039 -0.193022
v -0.752097 0.017994 -0.179182
v -0.752097 0.017994 -0.193022
v -0.743142 0.019173 -0.179182
v -0.752097 0.017994 -0.193022
v -0.752097 0.017994 -0.179182
v -0.760441 0.014538 -0.193022
v -0.743142 0.019173 -0.179182
v -0.743142 0.019173 -0.193022
v -0.734187 0.017994 -0.179182
v -0.734187 -0.048847 -0.179182
v -0.734187 -0.048847 -0.193022
v -0.743142 -0.050026 -0.179182
v -0.743142 0.019173 -0.193022
v -0.743142 0.019173 -0.179182
v -0.752097 0.017994 -0.193022
v -0.734187 0.017994 -0.179182
v -0.734187 0.017994 -0.193022
v -0.725842 0.014538 -0.179182
v -0.734187 0.017994 -0.193022
v -0.734187 0.017994 -0.179182
v -0.743142 0.019173 -0.193022
v -0.734187 -0.048847 -0.193022
v -0.734187 -0.048847 -0.179182
v -0.725842 -0.045390 -0.193022
v -0.725842 0.014538 -0.193022
v -0.725842 0.014538 -0.179182
v -0.734187 0.017994 -0.193022
v -0.725842 -0.045390 -0.179182
v -0.725842 -0.045390 -0.193022
v -0.734187 -0.048847 -0.179182
v -0.725842 -0.045390 -0.193022
v -0.725842 -0.045390 -0.179182
v -0.718676 -0.039892 -0.193022
v -0.713178 -0.032726 -0.193022
v -0.718676 -0.039892 -0.193022
v -0.713178 -0.032726 -0.179182
v -0.709721 -0.024381 -0.193022
v -0.713178 -0.032726 -0.193022
v -0.709721 -0.024381 -0.179182
v -0.708542 -0.015426 -0.193022
v -0.709721 -0.024381 -0.193022
v -0.708542 -0.015426 -0.179182
v -0.709721 -0.006471 -0.193022
v -0.708542 -0.015426 -0.193022
v -0.709721 -0.006471 -0.179182
v -0.713178 0.001873 -0.193022
v -0.709721 -0.006471 -0.193022
v -0.713178 0.001873 -0.179182
v -0.718676 0.009039 -0.193022
v -0.713178 0.001873 -0.193022
v -0.718676 0.009039 -0.179182
v -0.718676 0.009039 -0.193022
v -0.718676 0.009039 -0.179182
v -0.725842 0.014538 -0.193022
v -0.725842 0.014538 -0.179182
v -0.725842 0.014538 -0.193022
v -0.718676 0.009039 -0.179182
v -0.718676 -0.039892 -0.179182
v -0.718676 -0.039892 -0.193022
v -0.725842 -0.045390 -0.179182
v -0.718676 -0.039892 -0.179182
v -0.713178 -0.032726 -0.179182
v -0.718676 -0.039892 -0.193022
v -0.713178 -0.032726 -0.179182
v -0.709721 -0.024381 -0.179182
v -0.713178 -0.032726 -0.193022
v -0.709721 -0.024381 -0.179182
v -0.708542 -0.015426 -0.179182
v -0.709721 -0.024381 -0.193022
v -0.708542 -0.015426 -0.179182
v -0.709721 -0.006471 -0.179182
v -0.708542 -0.015426 -0.193022
v -0.709721 -0.006471 -0.179182
v -0.713178 0.001873 -0.179182
v -0.709721 -0.006471 -0.193022
v -0.713178 0.001873 -0.179182
v -0.718676 0.009039 -0.179182
v -0.713178 0.001873 -0.193022
v -0.752097 -0.048847 -0.179182
v -0.743142 -0.050026 -0.193022
v -0.743142 -0.050026 -0.179182
v -0.760441 -0.045390 -0.179182
v -0.752097 -0.048847 -0.193022
v -0.752097 -0.048847 -0.179182
v -0.767607 -0.039892 -0.179182
v -0.760441 -0.045390 -0.193022
v -0.760441 -0.045390 -0.179182
v -0.773106 -0.032726 -0.193022
v -0.767607 -0.039892 -0.179182
v -0.773106 -0.032726 -0.179182
v -0.776562 -0.024381 -0.193022
v -0.773106 -0.032726 -0.179182
v -0.776562 -0.024381 -0.179182
v -0.777741 -0.015426 -0.193022
v -0.776562 -0.024381 -0.179182
v -0.777741 -0.015426 -0.179182
v -0.776562 -0.006471 -0.193022
v -0.777741 -0.015426 -0.179182
v -0.776562 -0.006471 -0.179182
v -0.773106 0.001873 -0.193022
v -0.776562 -0.006471 -0.179182
v -0.773106 0.001873 -0.179182
v -0.767607 0.009039 -0.193022
v -0.773106 0.001873 -0.179182
v -0.767607 0.009039 -0.179182
v -0.760441 0.014538 -0.179182
v -0.767607 0.009039 -0.193022
v -0.767607 0.009039 -0.179182
v -0.752097 0.017994 -0.179182
v -0.760441 0.014538 -0.193022
v -0.760441 0.014538 -0.179182
v -0.743142 -0.050026 -0.193022
v -0.752097 -0.048847 -0.179182
v -0.752097 -0.048847 -0.193022
v -0.734187 -0.048847 -0.193022
v -0.743142 -0.050026 -0.179182
v -0.743142 -0.050026 -0.193022
v -0.752097 -0.048847 -0.193022
v -0.760441 -0.045390 -0.179182
v -0.760441 -0.045390 -0.193022
v -0.760441 -0.045390 -0.193022
v -0.767607 -0.039892 -0.179182
v -0.767607 -0.039892 -0.193022
v -0.767607 -0.039892 -0.179182
v -0.773106 -0.032726 -0.193022
v -0.767607 -0.039892 -0.193022
v -0.773106 -0.032726 -0.179182
v -0.776562 -0.024381 -0.193022
v -0.773106 -0.032726 -0.193022
v -0.776562 -0.024381 -0.179182
v -0.777741 -0.015426 -0.193022
v -0.776562 -0.024381 -0.193022
v -0.777741 -0.015426 -0.179182
v -0.776562 -0.006471 -0.193022
v -0.777741 -0.015426 -0.193022
v -0.776562 -0.006471 -0.179182
v -0.773106 0.001873 -0.193022
v -0.776562 -0.006471 -0.193022
v -0.773106 0.001873 -0.179182
v -0.767607 0.009039 -0.193022
v -0.773106 0.001873 -0.193022
v -0.767607 0.009039 -0.193022
v -0.760441 0.014538 -0.179182
v -0.760441 0.014538 -0.193022
v -0.743142 0.019173 -0.179182
v -0.752097 0.017994 -0.193022
v -0.752097 0.017994 -0.179182
v -0.760441 0.014538 -0.193022
v -0.752097 0.017994 -0.179182
v -0.752097 0.017994 -0.193022
v -0.734187 0.017994 -0.179182
v -0.743142 0.019173 -0.193022
v -0.743142 0.019173 -0.179182
v -0.743142 -0.050026 -0.179182
v -0.734187 -0.048847 -0.193022
v -0.734187 -0.048847 -0.179182
v -0.752097 0.017994 -0.193022
v -0.743142 0.019173 -0.179182
v -0.743142 0.019173 -0.193022
v -0.725842 0.014538 -0.179182
v -0.734187 0.017994 -0.193022
v -0.734187 0.017994 -0.179182
v -0.743142 0.019173 -0.193022
v -0.734187 0.017994 -0.179182
v -0.734187 0.017994 -0.193022
v -0.725842 -0.045390 -0.193022
v -0.734187 -0.048847 -0.179182
v -0.734187 -0.048847 -0.193022
v -0.734187 0.017994 -0.193022
v -0.725842 0.014538 -0.179182
v -0.725842 0.014538 -0.193022
v -0.734187 -0.048847 -0.179182
v -0.725842 -0.045390 -0.193022
v -0.725842 -0.045390 -0.179182
v -0.718676 -0.039892 -0.193022
v -0.725842 -0.045390 -0.179182
v -0.725842 -0.045390 -0.193022
v -0.713178 -0.032726 -0.179182
v -0.718676 -0.039892 -0.193022
v -0.713178 -0.032726 -0.193022
v -0.709721 -0.024381 -0.179182
v -0.713178 -0.032726 -0.193022
v -0.709721 -0.024381 -0.193022
v -0.708542 -0.015426 -0.179182
v -0.709721 -0.024381 -0.193022
v -0.708542 -0.015426 -0.193022
v -0.709721 -0.006471 -0.179182
v -0.708542 -0.015426 -0.193022
v -0.709721 -0.006471 -0.193022
v -0.713178 0.001873 -0.179182
v -0.709721 -0.006471 -0.193022
v -0.713178 0.001873 -0.193022
v -0.718676 0.009039 -0.179182
v -0.713178 0.001873 -0.193022
v -0.718676 0.009039 -0.193022
v -0.725842 0.014538 -0.193022
v -0.718676 0.009039 -0.179182
v -0.718676 0.009039 -0.193022
v -0.718676 0.009039 -0.179182
v -0.725842 0.014538 -0.193022
v -0.725842 0.014538 -0.179182
v -0.725842 -0.045390 -0.179182
v -0.718676 -0.039892 -0.193022
v -0.718676 -0.039892 -0.179182
v -0.718676 -0.039892 -0.193022
v -0.713178 -0.032726 -0.179182
v -0.718676 -0.039892 -0.179182
v -0.713178 -0.032726 -0.193022
v -0.709721 -0.024381 -0.179182
v -0.713178 -0.032726 -0.179182
v -0.709721 -0.024381 -0.193022
v -0.708542 -0.015426 -0.179182
v -0.709721 -0.024381 -0.179182
v -0.708542 -0.015426 -0.193022
v -0.709721 -0.006471 -0.179182
v -0.708542 -0.015426 -0.179182
v -0.709721 -0.006471 -0.193022
v -0.713178 0.001873 -0.179182
v -0.709721 -0.006471 -0.179182
v -0.713178 0.001873 -0.193022
v -0.718676 0.009039 -0.179182
v -0.713178 0.001873 -0.179182
vt -0.33960700035095215 -0.9189590215682983
vt -0.3415760099887848 -0.9189590215682983
vt -0.33960700035095215 -0.9172459840774536
vt -0.33960700035095215 -0.835640013217926
vt -0.3415760099887848 -0.835640013217926
vt -0.33960700035095215 -0.8339269757270813
vt -0.33960700035095215 -0.6954330205917358
vt -0.3415760099887848 -0.6954330205917358
vt -0.33960700035095215 -0.6937199831008911
vt -0.33960700035095215 -0.5061789751052856
vt -0.33960700035095215 -0.5078909993171692
vt -0.3415760099887848 -0.5061789751052856
vt -0.33960700035095215 -0.2840830087661743
vt -0.33960700035095215 -0.28579598665237427
vt -0.3415760099887848 -0.2840830087661743
vt -0.33960700035095215 -0.042569998651742935
vt -0.33960700035095215 -0.04428299888968468
vt -0.3415760099887848 -0.042569998651742935
vt -0.33960700035095215 0.20190300047397614
vt -0.33960700035095215 0.2001899927854538
vt -0.3415760099887848 0.20190300047397614
vt -0.33960700035095215 0.43267500400543213
vt -0.33960700035095215 0.4309619963169098
vt -0.3415760099887848 0.43267500400543213
vt -0.33960700035095215 0.6340190172195435
vt -0.33960700035095215 0.6323059797286987
vt -0.3415760099887848 0.6340190172195435
vt -0.33960700035095215 0.7905009984970093
vt -0.3415760099887848 0.7905009984970093
vt -0.33960700035095215 0.7922139763832092
vt -0.33960700035095215 0.8947659730911255
vt -0.3415760099887848 0.8947659730911255
vt -0.33960700035095215 0.8964790105819702
vt -0.3415760099887848 -0.9172459840774536
vt 0.3415760099887848 0.9379969835281372
vt 0.33960700035095215 0.9379969835281372
vt 0.3415760099887848 0.9397100210189819
vt -0.3415760099887848 -0.8339269757270813
vt -0.3415760099887848 -0.6937199831008911
vt -0.3415760099887848 -0.5078909993171692
vt -0.3415760099887848 -0.28579598665237427
vt -0.3415760099887848 -0.04428299888968468
vt -0.3415760099887848 0.2001899927854538
vt -0.3415760099887848 0.4309619963169098
vt -0.3415760099887848 0.6323059797286987
vt -0.3415760099887848 0.7922139763832092
vt -0.33960700035095215 0.9379969835281372
vt -0.3415760099887848 0.9379969835281372
vt -0.33960700035095215 0.9397100210189819
vt -0.3415760099887848 0.8964790105819702
vt 0.33960700035095215 -0.9172459840774536
vt 0.3415760099887848 -0.9172459840774536
vt 0.33960700035095215 -0.9189590215682983
vt 0.33960700035095215 0.9397100210189819
vt -0.3415760099887848 0.9397100210189819
vt 0.33960700035095215 -0.8339269757270813
vt 0.3415760099887848 -0.8339269757270813
vt 0.33960700035095215 -0.835640013217926
vt 0.3415760099887848 -0.9189590215682983
vt 0.3415760099887848 0.8947659730911255
vt 0.33960700035095215 0.8947659730911255
vt 0.3415760099887848 0.8964790105819702
vt 0.3415760099887848 -0.835640013217926
vt 0.33960700035095215 0.8964790105819702
vt 0.3415760099887848 0.7905009984970093
vt 0.33960700035095215 0.7905009984970093
vt 0.3415760099887848 0.7922139763832092
vt 0.3415760099887848 0.6340190172195435
vt 0.3415760099887848 0.6323059797286987
vt 0.33960700035095215 0.6340190172195435
vt 0.3415760099887848 0.43267500400543213
vt 0.3415760099887848 0.4309619963169098
vt 0.33960700035095215 0.43267500400543213
vt 0.3415760099887848 0.20190300047397614
vt 0.3415760099887848 0.2001899927854538
vt 0.33960700035095215 0.20190300047397614
vt 0.3415760099887848 -0.042569998651742935
vt 0.3415760099887848 -0.04428299888968468
vt 0.33960700035095215 -0.042569998651742935
vt 0.3415760099887848 -0.2840830087661743
vt 0.3415760099887848 -0.28579598665237427
vt 0.33960700035095215 -0.2840830087661743
vt 0.3415760099887848 -0.5061789751052856
vt 0.3415760099887848 -0.5078909993171692
vt 0.33960700035095215 -0.5061789751052856
vt 0.3415760099887848 -0.6954330205917358
vt 0.33960700035095215 -0.6954330205917358
vt 0.3415760099887848 -0.6937199831008911
vt 0.33960700035095215 -0.6937199831008911
vt 0.33960700035095215 0.7922139763832092
vt 0.33960700035095215 0.6323059797286987
vt 0.33960700035095215 0.4309619963169098
vt 0.33960700035095215 0.2001899927854538
vt 0.33960700035095215 -0.04428299888968468
vt 0.33960700035095215 -0.28579598665237427
vt 0.33960700035095215 -0.5078909993171692
vt 0 0
vn 0 1 0
vn 0.25881897461707376 0.9659258451755842 0
vn 0.5000001873976233 0.8660252955903434 0
vn 0.7071067811865476 0.7071067811865476 0
vn 0.8660252955903434 0.5000001873976233 0
vn 0.9659258451755842 0.25881897461707376 0
vn 1 0 0
vn 0.9659258451755842 -0.25881897461707376 0
vn 0.8660252955903434 -0.5000001873976233 0
vn 0.7071067811865476 -0.7071067811865476 0
vn 0.5000001873976233 -0.8660252955903434 0
vn 0.25881897461707376 -0.9659258451755842 0
vn -0.25881897461707376 0.9659258451755842 0
vn 0 -1 0
vn -0.25881897461707376 -0.9659258451755842 0
vn -0.5000001873976233 -0.8660252955903434 0
vn -0.5000001873976233 0.8660252955903434 0
vn -0.7071067811865476 0.7071067811865476 0
vn -0.8660252955903434 0.5000001873976233 0
vn -0.9659258451755842 0.25881897461707376 0
vn -1 0 0
vn -0.9659258451755842 -0.25881897461707376 0
vn -0.8660252955903434 -0.5000001873976233 0
vn -0.7071067811865476 -0.7071067811865476 0
usemtl material_0_0
f 1/1/1 2/2/1 3/3/2
f 4/4/2 5/5/2 6/6/3
f 7/7/3 8/8/3 9/9/4
f 10/10/5 11/11/4 12/12/5
f 13/13/6 14/14/5 15/15/6
f 16/16/7 17/17/6 18/18/7
f 19/19/8 20/20/7 21/21/8
f 22/22/9 23/23/8 24/24/9
f 25/25/10 26/26/9 27/27/10
f 28/28/10 29/29/10 30/30/11
f 31/31/11 32/32/11 33/33/12
f 34/34/2 35/3/2 36/2/1
f 37/35/1 38/36/1 39/37/13
f 40/38/3 41/6/3 42/5/2
f 43/39/4 44/9/4 45/8/3
f 46/40/4 47/12/5 48/11/4
f 49/41/5 50/15/6 51/14/5
f 52/42/6 53/18/7 54/17/6
f 55/43/7 56/21/8 57/20/7
f 58/44/8 59/24/9 60/23/8
f 61/45/9 62/27/10 63/26/9
f 64/46/11 65/30/11 66/29/10
f 67/47/12 68/48/12 69/49/14
f 70/50/12 71/33/12 72/32/11
f 73/51/14 74/52/14 75/53/15
f 76/54/13 77/37/13 78/36/1
f 79/55/14 80/49/14 81/48/12
f 82/56/15 83/57/15 84/58/16
f 85/59/15 86/53/15 87/52/14
f 88/60/13 89/61/13 90/62/17
f 91/63/16 92/58/16 93/57/15
f 94/64/17 95/62/17 96/61/13
f 97/65/17 98/66/17 99/67/18
f 100/68/19 101/69/18 102/70/19
f 103/71/20 104/72/19 105/73/20
f 106/74/21 107/75/20 108/76/21
f 109/77/22 110/78/21 111/79/22
f 112/80/23 113/81/22 114/82/23
f 115/83/24 116/84/23 117/85/24
f 118/86/24 119/87/24 120/88/16
f 121/89/16 122/88/16 123/87/24
f 124/90/18 125/67/18 126/66/17
f 127/91/18 128/70/19 129/69/18
f 130/92/19 131/73/20 132/72/19
f 133/93/20 134/76/21 135/75/20
f 136/94/21 137/79/22 138/78/21
f 139/95/22 140/82/23 141/81/22
f 142/96/23 143/85/24 144/84/23
usemtl material_1_0
f 145/97/15 146/97/14 147/97/14
f 148/97/16 149/97/15 150/97/15
f 151/97/24 152/97/16 153/97/16
f 154/97/23 155/97/24 156/97/23
f 157/97/22 158/97/23 159/97/22
f 160/97/21 161/97/22 162/97/21
f 163/97/20 164/97/21 165/97/20
f 166/97/19 167/97/20 168/97/19
f 169/97/18 170/97/19 171/97/18
f 172/97/17 173/97/18 174/97/18
f 175/97/13 176/97/17 177/97/17
f 178/97/14 179/97/15 180/97/15
f 181/97/12 182/97/14 183/97/14
f 184/97/15 185/97/16 186/97/16
f 187/97/16 188/97/24 189/97/24
f 190/97/24 191/97/23 192/97/24
f 193/97/23 194/97/22 195/97/23
f 196/97/22 197/97/21 198/97/22
f 199/97/21 200/97/20 201/97/21
f 202/97/20 203/97/19 204/97/20
f 205/97/19 206/97/18 207/97/19
f 208/97/18 209/97/17 210/97/17
f 211/97/1 212/97/13 213/97/13
f 214/97/17 215/97/13 216/97/13
f 217/97/2 218/97/1 219/97/1
f 220/97/14 221/97/12 222/97/12
f 223/97/13 224/97/1 225/97/1
f 226/97/3 227/97/2 228/97/2
f 229/97/1 230/97/2 231/97/2
f 232/97/11 233/97/12 234/97/12
f 235/97/2 236/97/3 237/97/3
f 238/97/12 239/97/11 240/97/11
f 241/97/10 242/97/11 243/97/11
f 244/97/9 245/97/10 246/97/9
f 247/97/8 248/97/9 249/97/8
f 250/97/7 251/97/8 252/97/7
f 253/97/6 254/97/7 255/97/6
f 256/97/5 257/97/6 258/97/5
f 259/97/4 260/97/5 261/97/4
f 262/97/3 263/97/4 264/97/4
f 265/97/4 266/97/3 267/97/3
f 268/97/11 269/97/10 270/97/10
f 271/97/10 272/97/9 273/97/10
f 274/97/9 275/97/8 276/97/9
f 277/97/8 278/97/7 279/97/8
f 280/97/7 281/97/6 282/97/7
f 283/97/6 284/97/5 285/97/6
f 286/97/5 287/97/4 288/97/5
