# SSTK version 0.8.0
# 33
mtllib original-33.mtl
o 3dw.5334cfe15f80099f15ac67104577aee7/Model/mesh1/mesh1-geometry/material_8/component_2#mesh1-geometry
v -0.660289 -0.041937 0.194491
v -0.900454 -0.041937 0.194491
v -0.660289 0.012276 0.194491
v -0.900454 0.012276 0.194491
v -0.660289 0.012276 0.194491
v -0.900454 -0.041937 0.194491
v -0.660289 0.012276 0.194491
v -0.900454 -0.041937 0.194491
v -0.660289 -0.041937 0.194491
v -0.900454 -0.041937 0.194491
v -0.660289 0.012276 0.194491
v -0.900454 0.012276 0.194491
vt 0 0
vt 0.13745200634002686 0.518671989440918
vt 0 0.45574501156806946
vt 0.13745200634002686 0.45574501156806946
vt 0 0.518671989440918
vn 0 0 -1
vn 0 0 1
usemtl material_0_0
f 1/1/1 2/1/1 3/1/1
f 4/1/1 5/1/1 6/1/1
usemtl material_1_0
f 7/2/2 8/3/2 9/4/2
f 10/3/2 11/2/2 12/5/2
