# SSTK version 0.8.0
# 22
mtllib original-22.mtl
o 3dw.5334cfe15f80099f15ac67104577aee7/Model/mesh1/mesh1-geometry/material_4/component_9#mesh1-geometry
v 0.692059 0.089474 -0.179182
v 0.532954 0.089474 -0.179182
v 0.694092 0.087232 -0.179182
v 0.694092 0.087232 -0.179182
v 0.530920 0.087232 -0.179182
v 0.695809 0.084739 -0.179182
v 0.695809 0.084739 -0.179182
v 0.529204 0.084739 -0.179182
v 0.697177 0.082038 -0.179182
v 0.532954 0.089474 -0.179182
v 0.530920 0.087232 -0.179182
v 0.694092 0.087232 -0.179182
v 0.530920 0.087232 -0.179182
v 0.529204 0.084739 -0.179182
v 0.695809 0.084739 -0.179182
v 0.697177 0.082038 -0.179182
v 0.527836 0.082038 -0.179182
v 0.698172 0.079179 -0.179182
v 0.529204 0.084739 -0.179182
v 0.527836 0.082038 -0.179182
v 0.697177 0.082038 -0.179182
v 0.697177 0.064347 -0.179182
v 0.527836 0.064347 -0.179182
v 0.695809 0.061646 -0.179182
v 0.695809 0.061646 -0.179182
v 0.529204 0.061646 -0.179182
v 0.694092 0.059152 -0.179182
v 0.698172 0.067206 -0.179182
v 0.526841 0.067206 -0.179182
v 0.697177 0.064347 -0.179182
v 0.698172 0.079179 -0.179182
v 0.526841 0.079179 -0.179182
v 0.698776 0.076213 -0.179182
v 0.527836 0.082038 -0.179182
v 0.526841 0.079179 -0.179182
v 0.698172 0.079179 -0.179182
v 0.694092 0.059152 -0.179182
v 0.530920 0.059152 -0.179182
v 0.692059 0.056910 -0.179182
v 0.527836 0.064347 -0.179182
v 0.529204 0.061646 -0.179182
v 0.695809 0.061646 -0.179182
v 0.526841 0.067206 -0.179182
v 0.527836 0.064347 -0.179182
v 0.697177 0.064347 -0.179182
v 0.529204 0.061646 -0.179182
v 0.530920 0.059152 -0.179182
v 0.694092 0.059152 -0.179182
v 0.526237 0.070172 -0.179182
v 0.526841 0.067206 -0.179182
v 0.698172 0.067206 -0.179182
v 0.698776 0.070172 -0.179182
v 0.526237 0.070172 -0.179182
v 0.698172 0.067206 -0.179182
v 0.698776 0.076213 -0.179182
v 0.526237 0.076213 -0.179182
v 0.698979 0.073192 -0.179182
v 0.526841 0.079179 -0.179182
v 0.526237 0.076213 -0.179182
v 0.698776 0.076213 -0.179182
v 0.532954 0.056910 -0.179182
v 0.692059 0.056910 -0.179182
v 0.530920 0.059152 -0.179182
v 0.526034 0.073192 -0.179182
v 0.526237 0.070172 -0.179182
v 0.698776 0.070172 -0.179182
v 0.698979 0.073192 -0.179182
v 0.526034 0.073192 -0.179182
v 0.698776 0.070172 -0.179182
v 0.526237 0.076213 -0.179182
v 0.526034 0.073192 -0.179182
v 0.698979 0.073192 -0.179182
v 0.694092 0.087232 -0.179182
v 0.532954 0.089474 -0.179182
v 0.692059 0.089474 -0.179182
v 0.695809 0.084739 -0.179182
v 0.530920 0.087232 -0.179182
v 0.694092 0.087232 -0.179182
v 0.697177 0.082038 -0.179182
v 0.529204 0.084739 -0.179182
v 0.695809 0.084739 -0.179182
v 0.694092 0.087232 -0.179182
v 0.530920 0.087232 -0.179182
v 0.532954 0.089474 -0.179182
v 0.695809 0.084739 -0.179182
v 0.529204 0.084739 -0.179182
v 0.530920 0.087232 -0.179182
v 0.698172 0.079179 -0.179182
v 0.527836 0.082038 -0.179182
v 0.697177 0.082038 -0.179182
v 0.697177 0.082038 -0.179182
v 0.527836 0.082038 -0.179182
v 0.529204 0.084739 -0.179182
v 0.695809 0.061646 -0.179182
v 0.527836 0.064347 -0.179182
v 0.697177 0.064347 -0.179182
v 0.694092 0.059152 -0.179182
v 0.529204 0.061646 -0.179182
v 0.695809 0.061646 -0.179182
v 0.697177 0.064347 -0.179182
v 0.526841 0.067206 -0.179182
v 0.698172 0.067206 -0.179182
v 0.698776 0.076213 -0.179182
v 0.526841 0.079179 -0.179182
v 0.698172 0.079179 -0.179182
v 0.698172 0.079179 -0.179182
v 0.526841 0.079179 -0.179182
v 0.527836 0.082038 -0.179182
v 0.692059 0.056910 -0.179182
v 0.530920 0.059152 -0.179182
v 0.694092 0.059152 -0.179182
v 0.695809 0.061646 -0.179182
v 0.529204 0.061646 -0.179182
v 0.527836 0.064347 -0.179182
v 0.697177 0.064347 -0.179182
v 0.527836 0.064347 -0.179182
v 0.526841 0.067206 -0.179182
v 0.694092 0.059152 -0.179182
v 0.530920 0.059152 -0.179182
v 0.529204 0.061646 -0.179182
v 0.698172 0.067206 -0.179182
v 0.526841 0.067206 -0.179182
v 0.526237 0.070172 -0.179182
v 0.698172 0.067206 -0.179182
v 0.526237 0.070172 -0.179182
v 0.698776 0.070172 -0.179182
v 0.698979 0.073192 -0.179182
v 0.526237 0.076213 -0.179182
v 0.698776 0.076213 -0.179182
v 0.698776 0.076213 -0.179182
v 0.526237 0.076213 -0.179182
v 0.526841 0.079179 -0.179182
v 0.530920 0.059152 -0.179182
v 0.692059 0.056910 -0.179182
v 0.532954 0.056910 -0.179182
v 0.698776 0.070172 -0.179182
v 0.526237 0.070172 -0.179182
v 0.526034 0.073192 -0.179182
v 0.698776 0.070172 -0.179182
v 0.526034 0.073192 -0.179182
v 0.698979 0.073192 -0.179182
v 0.698979 0.073192 -0.179182
v 0.526034 0.073192 -0.179182
v 0.526237 0.076213 -0.179182
vt -0.9065030217170715 0.09938400238752365
vt -0.8838729858398438 0.09938400238752365
vt -0.9067929983139038 0.09895899891853333
vt -0.8835840225219727 0.09895899891853333
vt -0.9070370197296143 0.09848599880933762
vt -0.8833400011062622 0.09848599880933762
vt -0.9072309732437134 0.09797400236129761
vt -0.8831449747085571 0.09797400236129761
vt -0.9073730111122131 0.09743200242519379
vt -0.9072309732437134 0.09461899846792221
vt -0.8831449747085571 0.09461899846792221
vt -0.9070370197296143 0.0941070020198822
vt -0.8833400011062622 0.0941070020198822
vt -0.9067929983139038 0.09363400191068649
vt -0.9073730111122131 0.09516099840402603
vt -0.8830029964447021 0.09516099840402603
vt -0.8830029964447021 0.09743200242519379
vt -0.907459020614624 0.09686899930238724
vt -0.8835840225219727 0.09363400191068649
vt -0.9065030217170715 0.09320800006389618
vt -0.8829180002212524 0.09572300314903259
vt -0.907459020614624 0.09572300314903259
vt -0.8829180002212524 0.09686899930238724
vt -0.9074879884719849 0.09629599750041962
vt -0.8838729858398438 0.09320800006389618
vt -0.8828889727592468 0.09629599750041962
vt 0.01713000051677227 0.5475980043411255
vt 0.0352029986679554 0.5478259921073914
vt 0.017357999458909035 0.5478259921073914
vt 0.016937000676989555 0.5473440289497375
vt 0.03543199971318245 0.5475980043411255
vt 0.016783999279141426 0.5470690131187439
vt 0.035624001175165176 0.5473440289497375
vt 0.016672000288963318 0.5467770099639893
vt 0.03577699884772301 0.5470690131187439
vt 0.016937000676989555 0.5449910163879395
vt 0.03577699884772301 0.5452659726142883
vt 0.016783999279141426 0.5452659726142883
vt 0.01713000051677227 0.5447360277175903
vt 0.035624001175165176 0.5449910163879395
vt 0.035888999700546265 0.5455570220947266
vt 0.016672000288963318 0.5455570220947266
vt 0.016604000702500343 0.5464749932289124
vt 0.035888999700546265 0.5467770099639893
vt 0.017357999458909035 0.5445079803466797
vt 0.03543199971318245 0.5447360277175903
vt 0.03595700114965439 0.5458589792251587
vt 0.016604000702500343 0.5458589792251587
vt 0.016581999137997627 0.5461670160293579
vt 0.03595700114965439 0.5464749932289124
vt 0.0352029986679554 0.5445079803466797
vt 0.03598000109195709 0.5461670160293579
vn 0 0 1
vn 0 0 -1
usemtl material_0_0
f 1/1/1 2/2/1 3/3/1
f 4/3/1 5/4/1 6/5/1
f 7/5/1 8/6/1 9/7/1
f 10/2/1 11/4/1 12/3/1
f 13/4/1 14/6/1 15/5/1
f 16/7/1 17/8/1 18/9/1
f 19/6/1 20/8/1 21/7/1
f 22/10/1 23/11/1 24/12/1
f 25/12/1 26/13/1 27/14/1
f 28/15/1 29/16/1 30/10/1
f 31/9/1 32/17/1 33/18/1
f 34/8/1 35/17/1 36/9/1
f 37/14/1 38/19/1 39/20/1
f 40/11/1 41/13/1 42/12/1
f 43/16/1 44/11/1 45/10/1
f 46/13/1 47/19/1 48/14/1
f 49/21/1 50/16/1 51/15/1
f 52/22/1 53/21/1 54/15/1
f 55/18/1 56/23/1 57/24/1
f 58/17/1 59/23/1 60/18/1
f 61/25/1 62/20/1 63/19/1
f 64/26/1 65/21/1 66/22/1
f 67/24/1 68/26/1 69/22/1
f 70/23/1 71/26/1 72/24/1
usemtl material_1_0
f 73/27/2 74/28/2 75/29/2
f 76/30/2 77/31/2 78/27/2
f 79/32/2 80/33/2 81/30/2
f 82/27/2 83/31/2 84/28/2
f 85/30/2 86/33/2 87/31/2
f 88/34/2 89/35/2 90/32/2
f 91/32/2 92/35/2 93/33/2
f 94/36/2 95/37/2 96/38/2
f 97/39/2 98/40/2 99/36/2
f 100/38/2 101/41/2 102/42/2
f 103/43/2 104/44/2 105/34/2
f 106/34/2 107/44/2 108/35/2
f 109/45/2 110/46/2 111/39/2
f 112/36/2 113/40/2 114/37/2
f 115/38/2 116/37/2 117/41/2
f 118/39/2 119/46/2 120/40/2
f 121/42/2 122/41/2 123/47/2
f 124/42/2 125/47/2 126/48/2
f 127/49/2 128/50/2 129/43/2
f 130/43/2 131/50/2 132/44/2
f 133/46/2 134/45/2 135/51/2
f 136/48/2 137/47/2 138/52/2
f 139/48/2 140/52/2 141/49/2
f 142/49/2 143/52/2 144/50/2
