# SSTK version 0.8.0
# 31
mtllib original-31.mtl
o 3dw.5334cfe15f80099f15ac67104577aee7/Model/mesh1/mesh1-geometry/material_8/component_0#mesh1-geometry
v 0.846815 0.426952 0.182382
v 0.846815 -0.434573 0.182382
v 0.212407 -0.230310 0.182382
v 0.212407 -0.230310 0.182382
v 0.846815 -0.434573 0.182382
v 0.182815 -0.257599 0.182382
v 0.238391 -0.199566 0.182382
v 0.846815 0.426952 0.182382
v 0.212407 -0.230310 0.182382
v 0.182815 -0.257599 0.182382
v 0.846815 -0.434573 0.182382
v 0.150072 -0.281013 0.182382
v 0.260369 -0.165841 0.182382
v 0.846815 0.426952 0.182382
v 0.238391 -0.199566 0.182382
v 0.150072 -0.281013 0.182382
v 0.846815 -0.434573 0.182382
v 0.114680 -0.300193 0.182382
v 0.278000 -0.129654 0.182382
v 0.846815 0.426952 0.182382
v 0.260369 -0.165841 0.182382
v 0.114680 -0.300193 0.182382
v 0.846815 -0.434573 0.182382
v 0.077187 -0.314842 0.182382
v 0.291015 -0.091563 0.182382
v 0.846815 0.426952 0.182382
v 0.278000 -0.129654 0.182382
v 0.077187 -0.314842 0.182382
v 0.846815 -0.434573 0.182382
v 0.038168 -0.324735 0.182382
v 0.299212 -0.052152 0.182382
v 0.846815 0.426952 0.182382
v 0.291015 -0.091563 0.182382
v 0.038168 -0.324735 0.182382
v 0.846815 -0.434573 0.182382
v -0.001777 -0.329720 0.182382
v 0.302466 -0.012030 0.182382
v 0.846815 0.426952 0.182382
v 0.299212 -0.052152 0.182382
v -0.900454 -0.434573 0.182382
v -0.001777 -0.329720 0.182382
v 0.846815 -0.434573 0.182382
v 0.299909 0.028624 0.182382
v 0.846815 0.426952 0.182382
v 0.302466 -0.012030 0.182382
v -0.042030 -0.329720 0.182382
v -0.001777 -0.329720 0.182382
v -0.900454 -0.434573 0.182382
v -0.256213 -0.230310 0.182382
v -0.226621 -0.257599 0.182382
v -0.900454 -0.103287 0.182382
v -0.226621 -0.257599 0.182382
v -0.193878 -0.281013 0.182382
v -0.900454 -0.103287 0.182382
v -0.282198 -0.199566 0.182382
v -0.256213 -0.230310 0.182382
v -0.900454 -0.103287 0.182382
v -0.304175 -0.165841 0.182382
v -0.282198 -0.199566 0.182382
v -0.900454 -0.103287 0.182382
v -0.193878 -0.281013 0.182382
v -0.158487 -0.300193 0.182382
v -0.900454 -0.103287 0.182382
v 0.292276 0.068637 0.182382
v 0.846815 0.426952 0.182382
v 0.299909 0.028624 0.182382
v -0.321807 -0.129654 0.182382
v -0.304175 -0.165841 0.182382
v -0.900454 -0.103287 0.182382
v -0.334822 -0.091563 0.182382
v -0.321807 -0.129654 0.182382
v -0.900454 -0.103287 0.182382
v -0.042030 -0.329720 0.182382
v -0.900454 -0.434573 0.182382
v -0.081974 -0.324735 0.182382
v -0.158487 -0.300193 0.182382
v -0.120993 -0.314842 0.182382
v -0.900454 -0.103287 0.182382
v 0.279688 0.107378 0.182382
v 0.846815 0.426952 0.182382
v 0.292276 0.068637 0.182382
v -0.343019 -0.052152 0.182382
v -0.334822 -0.091563 0.182382
v -0.900454 -0.041937 0.182382
v -0.900454 -0.041937 0.182382
v -0.334822 -0.091563 0.182382
v -0.900454 -0.103287 0.182382
v -0.081974 -0.324735 0.182382
v -0.900454 -0.434573 0.182382
v -0.120993 -0.314842 0.182382
v -0.900454 -0.103287 0.182382
v -0.120993 -0.314842 0.182382
v -0.900454 -0.434573 0.182382
v 0.262344 0.144236 0.182382
v 0.846815 0.426952 0.182382
v 0.279688 0.107378 0.182382
v -0.343019 -0.052152 0.182382
v -0.660289 -0.041937 0.182382
v -0.346273 -0.012030 0.182382
v -0.660289 -0.041937 0.182382
v -0.343019 -0.052152 0.182382
v -0.900454 -0.041937 0.182382
v 0.240517 0.178629 0.182382
v 0.846815 0.426952 0.182382
v 0.262344 0.144236 0.182382
v -0.343715 0.028624 0.182382
v -0.346273 -0.012030 0.182382
v -0.660289 0.012276 0.182382
v -0.660289 0.012276 0.182382
v -0.346273 -0.012030 0.182382
v -0.660289 -0.041937 0.182382
v 0.214552 0.210016 0.182382
v 0.846815 0.426952 0.182382
v 0.240517 0.178629 0.182382
v -0.336082 0.068637 0.182382
v -0.343715 0.028624 0.182382
v -0.900454 0.121609 0.182382
v -0.900454 0.012276 0.182382
v -0.343715 0.028624 0.182382
v -0.660289 0.012276 0.182382
v 0.184858 0.237901 0.182382
v 0.846815 0.426952 0.182382
v 0.214552 0.210016 0.182382
v -0.323494 0.107378 0.182382
v -0.336082 0.068637 0.182382
v -0.900454 0.121609 0.182382
v -0.900454 0.121609 0.182382
v -0.343715 0.028624 0.182382
v -0.900454 0.012276 0.182382
v -0.900454 0.426952 0.182382
v -0.306151 0.144236 0.182382
v -0.900454 0.121609 0.182382
v 0.151902 0.261844 0.182382
v 0.846815 0.426952 0.182382
v 0.184858 0.237901 0.182382
v -0.306151 0.144236 0.182382
v -0.323494 0.107378 0.182382
v -0.900454 0.121609 0.182382
v -0.284324 0.178629 0.182382
v -0.306151 0.144236 0.182382
v -0.900454 0.426952 0.182382
v 0.116206 0.281468 0.182382
v 0.846815 0.426952 0.182382
v 0.151902 0.261844 0.182382
v -0.258358 0.210016 0.182382
v -0.284324 0.178629 0.182382
v -0.900454 0.426952 0.182382
v 0.078332 0.296463 0.182382
v 0.846815 0.426952 0.182382
v 0.116206 0.281468 0.182382
v 0.846815 0.426952 0.182382
v -0.001536 0.311699 0.182382
v -0.900454 0.426952 0.182382
v -0.228664 0.237901 0.182382
v -0.258358 0.210016 0.182382
v -0.900454 0.426952 0.182382
v 0.038877 0.306594 0.182382
v 0.846815 0.426952 0.182382
v 0.078332 0.296463 0.182382
v -0.001536 0.311699 0.182382
v -0.042270 0.311699 0.182382
v -0.900454 0.426952 0.182382
v -0.001536 0.311699 0.182382
v 0.846815 0.426952 0.182382
v 0.038877 0.306594 0.182382
v -0.195709 0.261844 0.182382
v -0.228664 0.237901 0.182382
v -0.900454 0.426952 0.182382
v -0.042270 0.311699 0.182382
v -0.082684 0.306594 0.182382
v -0.900454 0.426952 0.182382
v -0.160013 0.281468 0.182382
v -0.195709 0.261844 0.182382
v -0.900454 0.426952 0.182382
v -0.082684 0.306594 0.182382
v -0.122139 0.296463 0.182382
v -0.900454 0.426952 0.182382
v -0.122139 0.296463 0.182382
v -0.160013 0.281468 0.182382
v -0.900454 0.426952 0.182382
v 0.212407 -0.230310 0.182382
v 0.846815 -0.434573 0.182382
v 0.846815 0.426952 0.182382
v 0.182815 -0.257599 0.182382
v 0.846815 -0.434573 0.182382
v 0.212407 -0.230310 0.182382
v 0.212407 -0.230310 0.182382
v 0.846815 0.426952 0.182382
v 0.238391 -0.199566 0.182382
v 0.150072 -0.281013 0.182382
v 0.846815 -0.434573 0.182382
v 0.182815 -0.257599 0.182382
v 0.238391 -0.199566 0.182382
v 0.846815 0.426952 0.182382
v 0.260369 -0.165841 0.182382
v 0.114680 -0.300193 0.182382
v 0.846815 -0.434573 0.182382
v 0.150072 -0.281013 0.182382
v 0.260369 -0.165841 0.182382
v 0.846815 0.426952 0.182382
v 0.278000 -0.129654 0.182382
v 0.077187 -0.314842 0.182382
v 0.846815 -0.434573 0.182382
v 0.114680 -0.300193 0.182382
v 0.278000 -0.129654 0.182382
v 0.846815 0.426952 0.182382
v 0.291015 -0.091563 0.182382
v 0.038168 -0.324735 0.182382
v 0.846815 -0.434573 0.182382
v 0.077187 -0.314842 0.182382
v 0.291015 -0.091563 0.182382
v 0.846815 0.426952 0.182382
v 0.299212 -0.052152 0.182382
v -0.001777 -0.329720 0.182382
v 0.846815 -0.434573 0.182382
v 0.038168 -0.324735 0.182382
v 0.299212 -0.052152 0.182382
v 0.846815 0.426952 0.182382
v 0.302466 -0.012030 0.182382
v 0.846815 -0.434573 0.182382
v -0.001777 -0.329720 0.182382
v -0.900454 -0.434573 0.182382
v 0.302466 -0.012030 0.182382
v 0.846815 0.426952 0.182382
v 0.299909 0.028624 0.182382
v -0.900454 -0.434573 0.182382
v -0.001777 -0.329720 0.182382
v -0.042030 -0.329720 0.182382
v -0.900454 -0.103287 0.182382
v -0.226621 -0.257599 0.182382
v -0.256213 -0.230310 0.182382
v -0.900454 -0.103287 0.182382
v -0.193878 -0.281013 0.182382
v -0.226621 -0.257599 0.182382
v -0.900454 -0.103287 0.182382
v -0.256213 -0.230310 0.182382
v -0.282198 -0.199566 0.182382
v -0.900454 -0.103287 0.182382
v -0.282198 -0.199566 0.182382
v -0.304175 -0.165841 0.182382
v -0.900454 -0.103287 0.182382
v -0.158487 -0.300193 0.182382
v -0.193878 -0.281013 0.182382
v 0.299909 0.028624 0.182382
v 0.846815 0.426952 0.182382
v 0.292276 0.068637 0.182382
v -0.900454 -0.103287 0.182382
v -0.304175 -0.165841 0.182382
v -0.321807 -0.129654 0.182382
v -0.900454 -0.103287 0.182382
v -0.321807 -0.129654 0.182382
v -0.334822 -0.091563 0.182382
v -0.081974 -0.324735 0.182382
v -0.900454 -0.434573 0.182382
v -0.042030 -0.329720 0.182382
v -0.900454 -0.103287 0.182382
v -0.120993 -0.314842 0.182382
v -0.158487 -0.300193 0.182382
v 0.292276 0.068637 0.182382
v 0.846815 0.426952 0.182382
v 0.279688 0.107378 0.182382
v -0.900454 -0.041937 0.182382
v -0.334822 -0.091563 0.182382
v -0.343019 -0.052152 0.182382
v -0.900454 -0.103287 0.182382
v -0.334822 -0.091563 0.182382
v -0.900454 -0.041937 0.182382
v -0.120993 -0.314842 0.182382
v -0.900454 -0.434573 0.182382
v -0.081974 -0.324735 0.182382
v -0.900454 -0.434573 0.182382
v -0.120993 -0.314842 0.182382
v -0.900454 -0.103287 0.182382
v 0.279688 0.107378 0.182382
v 0.846815 0.426952 0.182382
v 0.262344 0.144236 0.182382
v -0.346273 -0.012030 0.182382
v -0.660289 -0.041937 0.182382
v -0.343019 -0.052152 0.182382
v -0.900454 -0.041937 0.182382
v -0.343019 -0.052152 0.182382
v -0.660289 -0.041937 0.182382
v 0.262344 0.144236 0.182382
v 0.846815 0.426952 0.182382
v 0.240517 0.178629 0.182382
v -0.660289 0.012276 0.182382
v -0.346273 -0.012030 0.182382
v -0.343715 0.028624 0.182382
v -0.660289 -0.041937 0.182382
v -0.346273 -0.012030 0.182382
v -0.660289 0.012276 0.182382
v 0.240517 0.178629 0.182382
v 0.846815 0.426952 0.182382
v 0.214552 0.210016 0.182382
v -0.900454 0.121609 0.182382
v -0.343715 0.028624 0.182382
v -0.336082 0.068637 0.182382
v -0.660289 0.012276 0.182382
v -0.343715 0.028624 0.182382
v -0.900454 0.012276 0.182382
v 0.214552 0.210016 0.182382
v 0.846815 0.426952 0.182382
v 0.184858 0.237901 0.182382
v -0.900454 0.121609 0.182382
v -0.336082 0.068637 0.182382
v -0.323494 0.107378 0.182382
v -0.900454 0.012276 0.182382
v -0.343715 0.028624 0.182382
v -0.900454 0.121609 0.182382
v -0.900454 0.121609 0.182382
v -0.306151 0.144236 0.182382
v -0.900454 0.426952 0.182382
v 0.184858 0.237901 0.182382
v 0.846815 0.426952 0.182382
v 0.151902 0.261844 0.182382
v -0.900454 0.121609 0.182382
v -0.323494 0.107378 0.182382
v -0.306151 0.144236 0.182382
v -0.900454 0.426952 0.182382
v -0.306151 0.144236 0.182382
v -0.284324 0.178629 0.182382
v 0.151902 0.261844 0.182382
v 0.846815 0.426952 0.182382
v 0.116206 0.281468 0.182382
v -0.900454 0.426952 0.182382
v -0.284324 0.178629 0.182382
v -0.258358 0.210016 0.182382
v 0.116206 0.281468 0.182382
v 0.846815 0.426952 0.182382
v 0.078332 0.296463 0.182382
v -0.900454 0.426952 0.182382
v -0.001536 0.311699 0.182382
v 0.846815 0.426952 0.182382
v -0.900454 0.426952 0.182382
v -0.258358 0.210016 0.182382
v -0.228664 0.237901 0.182382
v 0.078332 0.296463 0.182382
v 0.846815 0.426952 0.182382
v 0.038877 0.306594 0.182382
v -0.900454 0.426952 0.182382
v -0.042270 0.311699 0.182382
v -0.001536 0.311699 0.182382
v 0.038877 0.306594 0.182382
v 0.846815 0.426952 0.182382
v -0.001536 0.311699 0.182382
v -0.900454 0.426952 0.182382
v -0.228664 0.237901 0.182382
v -0.195709 0.261844 0.182382
v -0.900454 0.426952 0.182382
v -0.082684 0.306594 0.182382
v -0.042270 0.311699 0.182382
v -0.900454 0.426952 0.182382
v -0.195709 0.261844 0.182382
v -0.160013 0.281468 0.182382
v -0.900454 0.426952 0.182382
v -0.122139 0.296463 0.182382
v -0.082684 0.306594 0.182382
v -0.900454 0.426952 0.182382
v -0.160013 0.281468 0.182382
v -0.122139 0.296463 0.182382
vt 0 0
vt 0.6369140148162842 0.23709499835968018
vt 1 0
vt 1 1
vt 0.6199780106544495 0.20541900396347046
vt 0.6517860293388367 0.27278000116348267
vt 0.6012380123138428 0.17824099957942963
vt 0.6643639802932739 0.3119249939918518
vt 0.5809829831123352 0.1559789925813675
vt 0.6744549870491028 0.3539290130138397
vt 0.5595250129699707 0.13897599279880524
vt 0.6819030046463013 0.3981429934501648
vt 0.5371930003166199 0.1274919956922531
vt 0.6865950226783752 0.44388800859451294
vt 0.5143330097198486 0.12170600146055222
vt 0.6884570121765137 0.49045899510383606
vt 0.6869930028915405 0.5376480221748352
vt 0.4912950098514557 0.12170600146055222
vt 0 0.38453400135040283
vt 0.3856489956378937 0.20541900396347046
vt 0.36871299147605896 0.23709499835968018
vt 0.40438899397850037 0.17824099957942963
vt 0.35384199023246765 0.27278000116348267
vt 0.3412629961967468 0.3119249939918518
vt 0.42464399337768555 0.1559789925813675
vt 0.6826249957084656 0.5840920209884644
vt 0.33117198944091797 0.3539290130138397
vt 0.32372400164604187 0.3981429934501648
vt 0.46843400597572327 0.1274919956922531
vt 0.44610199332237244 0.13897599279880524
vt 0.6754209995269775 0.6290599703788757
vt 0 0.45574501156806946
vt 0.3190320134162903 0.44388800859451294
vt 0.6654940247535706 0.6718419790267944
vt 0.31716999411582947 0.49045899510383606
vt 0.13745200634002686 0.45574501156806946
vt 0.6530020236968994 0.7117630243301392
vt 0.13745200634002686 0.518671989440918
vt 0.3186340034008026 0.537647008895874
vt 0.6381419897079468 0.7481949925422668
vt 0 0.6455780267715454
vt 0.32300201058387756 0.5840920209884644
vt 0 0.518671989440918
vt 0.6211469769477844 0.7805619835853577
vt 0.3302069902420044 0.6290599703788757
vt 0.34013301134109497 0.6718419790267944
vt 0 1
vt 0.6022859811782837 0.8083530068397522
vt 0.3526250123977661 0.7117630243301392
vt 0.5818570256233215 0.8311319947242737
vt 0.367484986782074 0.7481949925422668
vt 0.5601810216903687 0.848537027835846
vt 0.5144699811935425 0.8662220239639282
vt 0.38447999954223633 0.7805619835853577
vt 0.5375999808311462 0.8602960109710693
vt 0.49115699529647827 0.8662220239639282
vt 0.40334099531173706 0.8083530068397522
vt 0.4680280089378357 0.8602960109710693
vt 0.423770010471344 0.8311319947242737
vt 0.44544699788093567 0.848537027835846
vn 0 0 -1
vn 0 0 1
usemtl material_0_0
f 1/1/1 2/1/1 3/1/1
f 4/1/1 5/1/1 6/1/1
f 7/1/1 8/1/1 9/1/1
f 10/1/1 11/1/1 12/1/1
f 13/1/1 14/1/1 15/1/1
f 16/1/1 17/1/1 18/1/1
f 19/1/1 20/1/1 21/1/1
f 22/1/1 23/1/1 24/1/1
f 25/1/1 26/1/1 27/1/1
f 28/1/1 29/1/1 30/1/1
f 31/1/1 32/1/1 33/1/1
f 34/1/1 35/1/1 36/1/1
f 37/1/1 38/1/1 39/1/1
f 40/1/1 41/1/1 42/1/1
f 43/1/1 44/1/1 45/1/1
f 46/1/1 47/1/1 48/1/1
f 49/1/1 50/1/1 51/1/1
f 52/1/1 53/1/1 54/1/1
f 55/1/1 56/1/1 57/1/1
f 58/1/1 59/1/1 60/1/1
f 61/1/1 62/1/1 63/1/1
f 64/1/1 65/1/1 66/1/1
f 67/1/1 68/1/1 69/1/1
f 70/1/1 71/1/1 72/1/1
f 73/1/1 74/1/1 75/1/1
f 76/1/1 77/1/1 78/1/1
f 79/1/1 80/1/1 81/1/1
f 82/1/1 83/1/1 84/1/1
f 85/1/1 86/1/1 87/1/1
f 88/1/1 89/1/1 90/1/1
f 91/1/1 92/1/1 93/1/1
f 94/1/1 95/1/1 96/1/1
f 97/1/1 98/1/1 99/1/1
f 100/1/1 101/1/1 102/1/1
f 103/1/1 104/1/1 105/1/1
f 106/1/1 107/1/1 108/1/1
f 109/1/1 110/1/1 111/1/1
f 112/1/1 113/1/1 114/1/1
f 115/1/1 116/1/1 117/1/1
f 118/1/1 119/1/1 120/1/1
f 121/1/1 122/1/1 123/1/1
f 124/1/1 125/1/1 126/1/1
f 127/1/1 128/1/1 129/1/1
f 130/1/1 131/1/1 132/1/1
f 133/1/1 134/1/1 135/1/1
f 136/1/1 137/1/1 138/1/1
f 139/1/1 140/1/1 141/1/1
f 142/1/1 143/1/1 144/1/1
f 145/1/1 146/1/1 147/1/1
f 148/1/1 149/1/1 150/1/1
f 151/1/1 152/1/1 153/1/1
f 154/1/1 155/1/1 156/1/1
f 157/1/1 158/1/1 159/1/1
f 160/1/1 161/1/1 162/1/1
f 163/1/1 164/1/1 165/1/1
f 166/1/1 167/1/1 168/1/1
f 169/1/1 170/1/1 171/1/1
f 172/1/1 173/1/1 174/1/1
f 175/1/1 176/1/1 177/1/1
f 178/1/1 179/1/1 180/1/1
usemtl material_1_0
f 181/2/2 182/3/2 183/4/2
f 184/5/2 185/3/2 186/2/2
f 187/2/2 188/4/2 189/6/2
f 190/7/2 191/3/2 192/5/2
f 193/6/2 194/4/2 195/8/2
f 196/9/2 197/3/2 198/7/2
f 199/8/2 200/4/2 201/10/2
f 202/11/2 203/3/2 204/9/2
f 205/10/2 206/4/2 207/12/2
f 208/13/2 209/3/2 210/11/2
f 211/12/2 212/4/2 213/14/2
f 214/15/2 215/3/2 216/13/2
f 217/14/2 218/4/2 219/16/2
f 220/3/2 221/15/2 222/1/2
f 223/16/2 224/4/2 225/17/2
f 226/1/2 227/15/2 228/18/2
f 229/19/2 230/20/2 231/21/2
f 232/19/2 233/22/2 234/20/2
f 235/19/2 236/21/2 237/23/2
f 238/19/2 239/23/2 240/24/2
f 241/19/2 242/25/2 243/22/2
f 244/17/2 245/4/2 246/26/2
f 247/19/2 248/24/2 249/27/2
f 250/19/2 251/27/2 252/28/2
f 253/29/2 254/1/2 255/18/2
f 256/19/2 257/30/2 258/25/2
f 259/26/2 260/4/2 261/31/2
f 262/32/2 263/28/2 264/33/2
f 265/19/2 266/28/2 267/32/2
f 268/30/2 269/1/2 270/29/2
f 271/1/2 272/30/2 273/19/2
f 274/31/2 275/4/2 276/34/2
f 277/35/2 278/36/2 279/33/2
f 280/32/2 281/33/2 282/36/2
f 283/34/2 284/4/2 285/37/2
f 286/38/2 287/35/2 288/39/2
f 289/36/2 290/35/2 291/38/2
f 292/37/2 293/4/2 294/40/2
f 295/41/2 296/39/2 297/42/2
f 298/38/2 299/39/2 300/43/2
f 301/40/2 302/4/2 303/44/2
f 304/41/2 305/42/2 306/45/2
f 307/43/2 308/39/2 309/41/2
f 310/41/2 311/46/2 312/47/2
f 313/44/2 314/4/2 315/48/2
f 316/41/2 317/45/2 318/46/2
f 319/47/2 320/46/2 321/49/2
f 322/48/2 323/4/2 324/50/2
f 325/47/2 326/49/2 327/51/2
f 328/50/2 329/4/2 330/52/2
f 331/47/2 332/53/2 333/4/2
f 334/47/2 335/51/2 336/54/2
f 337/52/2 338/4/2 339/55/2
f 340/47/2 341/56/2 342/53/2
f 343/55/2 344/4/2 345/53/2
f 346/47/2 347/54/2 348/57/2
f 349/47/2 350/58/2 351/56/2
f 352/47/2 353/57/2 354/59/2
f 355/47/2 356/60/2 357/58/2
f 358/47/2 359/59/2 360/60/2
