# SSTK version 0.8.0
# 18
mtllib original-18.mtl
o 3dw.5334cfe15f80099f15ac67104577aee7/Model/mesh1/mesh1-geometry/material_4/component_5#mesh1-geometry
v 0.694565 0.201363 -0.179182
v 0.538868 0.201363 -0.179182
v 0.696583 0.199428 -0.179182
v 0.538868 0.201363 -0.179182
v 0.536850 0.199428 -0.179182
v 0.696583 0.199428 -0.179182
v 0.696583 0.199428 -0.179182
v 0.536850 0.199428 -0.179182
v 0.698297 0.197220 -0.179182
v 0.698297 0.197220 -0.179182
v 0.535137 0.197220 -0.179182
v 0.699669 0.194784 -0.179182
v 0.699669 0.194784 -0.179182
v 0.533765 0.194784 -0.179182
v 0.700671 0.192174 -0.179182
v 0.536850 0.199428 -0.179182
v 0.535137 0.197220 -0.179182
v 0.698297 0.197220 -0.179182
v 0.535137 0.197220 -0.179182
v 0.533765 0.194784 -0.179182
v 0.699669 0.194784 -0.179182
v 0.700671 0.192174 -0.179182
v 0.532763 0.192174 -0.179182
v 0.701281 0.189446 -0.179182
v 0.533765 0.194784 -0.179182
v 0.532763 0.192174 -0.179182
v 0.700671 0.192174 -0.179182
v 0.701281 0.189446 -0.179182
v 0.532153 0.189446 -0.179182
v 0.701485 0.186658 -0.179182
v 0.532763 0.192174 -0.179182
v 0.532153 0.189446 -0.179182
v 0.701281 0.189446 -0.179182
v 0.701485 0.186658 -0.179182
v 0.531948 0.186658 -0.179182
v 0.701281 0.183870 -0.179182
v 0.532153 0.189446 -0.179182
v 0.531948 0.186658 -0.179182
v 0.701485 0.186658 -0.179182
v 0.701281 0.183870 -0.179182
v 0.532153 0.183870 -0.179182
v 0.700671 0.181142 -0.179182
v 0.531948 0.186658 -0.179182
v 0.532153 0.183870 -0.179182
v 0.701281 0.183870 -0.179182
v 0.700671 0.181142 -0.179182
v 0.532763 0.181142 -0.179182
v 0.699669 0.178533 -0.179182
v 0.532153 0.183870 -0.179182
v 0.532763 0.181142 -0.179182
v 0.700671 0.181142 -0.179182
v 0.699669 0.178533 -0.179182
v 0.533765 0.178533 -0.179182
v 0.698297 0.176097 -0.179182
v 0.532763 0.181142 -0.179182
v 0.533765 0.178533 -0.179182
v 0.699669 0.178533 -0.179182
v 0.698297 0.176097 -0.179182
v 0.535137 0.176097 -0.179182
v 0.696583 0.173888 -0.179182
v 0.533765 0.178533 -0.179182
v 0.535137 0.176097 -0.179182
v 0.698297 0.176097 -0.179182
v 0.535137 0.176097 -0.179182
v 0.536850 0.173888 -0.179182
v 0.696583 0.173888 -0.179182
v 0.696583 0.173888 -0.179182
v 0.536850 0.173888 -0.179182
v 0.694565 0.171954 -0.179182
v 0.538868 0.171954 -0.179182
v 0.694565 0.171954 -0.179182
v 0.536850 0.173888 -0.179182
v 0.696583 0.199428 -0.179182
v 0.538868 0.201363 -0.179182
v 0.694565 0.201363 -0.179182
v 0.696583 0.199428 -0.179182
v 0.536850 0.199428 -0.179182
v 0.538868 0.201363 -0.179182
v 0.698297 0.197220 -0.179182
v 0.536850 0.199428 -0.179182
v 0.696583 0.199428 -0.179182
v 0.699669 0.194784 -0.179182
v 0.535137 0.197220 -0.179182
v 0.698297 0.197220 -0.179182
v 0.700671 0.192174 -0.179182
v 0.533765 0.194784 -0.179182
v 0.699669 0.194784 -0.179182
v 0.698297 0.197220 -0.179182
v 0.535137 0.197220 -0.179182
v 0.536850 0.199428 -0.179182
v 0.699669 0.194784 -0.179182
v 0.533765 0.194784 -0.179182
v 0.535137 0.197220 -0.179182
v 0.701281 0.189446 -0.179182
v 0.532763 0.192174 -0.179182
v 0.700671 0.192174 -0.179182
v 0.700671 0.192174 -0.179182
v 0.532763 0.192174 -0.179182
v 0.533765 0.194784 -0.179182
v 0.701485 0.186658 -0.179182
v 0.532153 0.189446 -0.179182
v 0.701281 0.189446 -0.179182
v 0.701281 0.189446 -0.179182
v 0.532153 0.189446 -0.179182
v 0.532763 0.192174 -0.179182
v 0.701281 0.183870 -0.179182
v 0.531948 0.186658 -0.179182
v 0.701485 0.186658 -0.179182
v 0.701485 0.186658 -0.179182
v 0.531948 0.186658 -0.179182
v 0.532153 0.189446 -0.179182
v 0.700671 0.181142 -0.179182
v 0.532153 0.183870 -0.179182
v 0.701281 0.183870 -0.179182
v 0.701281 0.183870 -0.179182
v 0.532153 0.183870 -0.179182
v 0.531948 0.186658 -0.179182
v 0.699669 0.178533 -0.179182
v 0.532763 0.181142 -0.179182
v 0.700671 0.181142 -0.179182
v 0.700671 0.181142 -0.179182
v 0.532763 0.181142 -0.179182
v 0.532153 0.183870 -0.179182
v 0.698297 0.176097 -0.179182
v 0.533765 0.178533 -0.179182
v 0.699669 0.178533 -0.179182
v 0.699669 0.178533 -0.179182
v 0.533765 0.178533 -0.179182
v 0.532763 0.181142 -0.179182
v 0.696583 0.173888 -0.179182
v 0.535137 0.176097 -0.179182
v 0.698297 0.176097 -0.179182
v 0.698297 0.176097 -0.179182
v 0.535137 0.176097 -0.179182
v 0.533765 0.178533 -0.179182
v 0.696583 0.173888 -0.179182
v 0.536850 0.173888 -0.179182
v 0.535137 0.176097 -0.179182
v 0.694565 0.171954 -0.179182
v 0.536850 0.173888 -0.179182
v 0.696583 0.173888 -0.179182
v 0.536850 0.173888 -0.179182
v 0.694565 0.171954 -0.179182
v 0.538868 0.171954 -0.179182
vt -0.9068599939346313 0.12060300260782242
vt -0.8847140073776245 0.12060300260782242
vt -0.9071469902992249 0.12023700028657913
vt -0.884427011013031 0.12023700028657913
vt -0.9073910117149353 0.11981800198554993
vt -0.8841840028762817 0.11981800198554993
vt -0.9075859785079956 0.11935599893331528
vt -0.8839880228042603 0.11935599893331528
vt -0.9077280163764954 0.11886099725961685
vt -0.8838459849357605 0.11886099725961685
vt -0.9078149795532227 0.11834300309419632
vt -0.8837590217590332 0.11834300309419632
vt -0.9078440070152283 0.11781500279903412
vt -0.8837299942970276 0.11781500279903412
vt -0.9078149795532227 0.11728599667549133
vt -0.8837590217590332 0.11728599667549133
vt -0.9077280163764954 0.11676900088787079
vt -0.8838459849357605 0.11676900088787079
vt -0.9075859785079956 0.11627399921417236
vt -0.8839880228042603 0.11627399921417236
vt -0.9073910117149353 0.11581200361251831
vt -0.8841840028762817 0.11581200361251831
vt -0.9071469902992249 0.11539299786090851
vt -0.884427011013031 0.11539299786090851
vt -0.9068599939346313 0.11502599716186523
vt -0.8847140073776245 0.11502599716186523
vt 0.016850000247359276 0.5590310096740723
vt 0.034540001302957535 0.5592280030250549
vt 0.017077000811696053 0.5592280030250549
vt 0.034765999764204025 0.5590310096740723
vt 0.016658000648021698 0.5588060021400452
vt 0.01650400087237358 0.5585579872131348
vt 0.03495899960398674 0.5588060021400452
vt 0.016392000019550323 0.5582919716835022
vt 0.03511200100183487 0.5585579872131348
vt 0.016323000192642212 0.5580139756202698
vt 0.035225000232458115 0.5582919716835022
vt 0.016301000490784645 0.5577300190925598
vt 0.03529300168156624 0.5580139756202698
vt 0.016323000192642212 0.5574449896812439
vt 0.03531600162386894 0.5577300190925598
vt 0.016392000019550323 0.5571669936180115
vt 0.03529300168156624 0.5574449896812439
vt 0.01650400087237358 0.5569019913673401
vt 0.035225000232458115 0.5571669936180115
vt 0.016658000648021698 0.5566530227661133
vt 0.03511200100183487 0.5569019913673401
vt 0.016850000247359276 0.5564280152320862
vt 0.03495899960398674 0.5566530227661133
vt 0.034765999764204025 0.5564280152320862
vt 0.017077000811696053 0.5562310218811035
vt 0.034540001302957535 0.5562310218811035
vn 0 0 1
vn 0 0 -1
usemtl material_0_0
f 1/1/1 2/2/1 3/3/1
f 4/2/1 5/4/1 6/3/1
f 7/3/1 8/4/1 9/5/1
f 10/5/1 11/6/1 12/7/1
f 13/7/1 14/8/1 15/9/1
f 16/4/1 17/6/1 18/5/1
f 19/6/1 20/8/1 21/7/1
f 22/9/1 23/10/1 24/11/1
f 25/8/1 26/10/1 27/9/1
f 28/11/1 29/12/1 30/13/1
f 31/10/1 32/12/1 33/11/1
f 34/13/1 35/14/1 36/15/1
f 37/12/1 38/14/1 39/13/1
f 40/15/1 41/16/1 42/17/1
f 43/14/1 44/16/1 45/15/1
f 46/17/1 47/18/1 48/19/1
f 49/16/1 50/18/1 51/17/1
f 52/19/1 53/20/1 54/21/1
f 55/18/1 56/20/1 57/19/1
f 58/21/1 59/22/1 60/23/1
f 61/20/1 62/22/1 63/21/1
f 64/22/1 65/24/1 66/23/1
f 67/23/1 68/24/1 69/25/1
f 70/26/1 71/25/1 72/24/1
usemtl material_1_0
f 73/27/2 74/28/2 75/29/2
f 76/27/2 77/30/2 78/28/2
f 79/31/2 80/30/2 81/27/2
f 82/32/2 83/33/2 84/31/2
f 85/34/2 86/35/2 87/32/2
f 88/31/2 89/33/2 90/30/2
f 91/32/2 92/35/2 93/33/2
f 94/36/2 95/37/2 96/34/2
f 97/34/2 98/37/2 99/35/2
f 100/38/2 101/39/2 102/36/2
f 103/36/2 104/39/2 105/37/2
f 106/40/2 107/41/2 108/38/2
f 109/38/2 110/41/2 111/39/2
f 112/42/2 113/43/2 114/40/2
f 115/40/2 116/43/2 117/41/2
f 118/44/2 119/45/2 120/42/2
f 121/42/2 122/45/2 123/43/2
f 124/46/2 125/47/2 126/44/2
f 127/44/2 128/47/2 129/45/2
f 130/48/2 131/49/2 132/46/2
f 133/46/2 134/49/2 135/47/2
f 136/48/2 137/50/2 138/49/2
f 139/51/2 140/50/2 141/48/2
f 142/50/2 143/51/2 144/52/2
