# SSTK version 0.8.0
# 35
mtllib original-35.mtl
o 3dw.5334cfe15f80099f15ac67104577aee7/Model/mesh1/mesh1-geometry/material_9/component_1#mesh1-geometry
v -0.010169 0.426952 0.000962
v -0.010169 0.435602 0.000962
v -0.016218 0.426952 -0.006920
v -0.006368 0.426952 0.010142
v -0.006368 0.435602 0.010142
v -0.010169 0.426952 0.000962
v -0.016218 0.426952 0.046904
v -0.016218 0.435602 0.046904
v -0.010169 0.426952 0.039022
v -0.010169 0.426952 0.039022
v -0.010169 0.435602 0.039022
v -0.006368 0.426952 0.029842
v -0.024100 0.426952 -0.012968
v -0.016218 0.426952 -0.006920
v -0.024100 0.435602 -0.012968
v -0.016218 0.435602 -0.006920
v -0.016218 0.426952 -0.006920
v -0.010169 0.435602 0.000962
v -0.010169 0.435602 0.000962
v -0.010169 0.426952 0.000962
v -0.006368 0.435602 0.010142
v -0.006368 0.435602 0.010142
v -0.006368 0.426952 0.010142
v -0.005070 0.435602 0.019992
v -0.005070 0.426952 0.019992
v -0.005070 0.435602 0.019992
v -0.006368 0.426952 0.010142
v -0.016218 0.426952 0.046904
v -0.024100 0.426952 0.052952
v -0.016218 0.435602 0.046904
v -0.010169 0.435602 0.039022
v -0.010169 0.426952 0.039022
v -0.016218 0.435602 0.046904
v -0.006368 0.426952 0.029842
v -0.006368 0.435602 0.029842
v -0.005070 0.426952 0.019992
v -0.006368 0.435602 0.029842
v -0.006368 0.426952 0.029842
v -0.010169 0.435602 0.039022
v -0.033280 0.426952 -0.016771
v -0.024100 0.426952 -0.012968
v -0.033280 0.435602 -0.016771
v -0.016218 0.435602 -0.006920
v -0.024100 0.435602 -0.012968
v -0.016218 0.426952 -0.006920
v -0.024100 0.435602 -0.012968
v -0.033280 0.435602 -0.016771
v -0.024100 0.426952 -0.012968
v -0.005070 0.435602 0.019992
v -0.005070 0.426952 0.019992
v -0.006368 0.435602 0.029842
v -0.024100 0.426952 0.052952
v -0.033280 0.426952 0.056755
v -0.024100 0.435602 0.052952
v -0.024100 0.435602 0.052952
v -0.016218 0.435602 0.046904
v -0.024100 0.426952 0.052952
v -0.043130 0.426952 -0.018067
v -0.033280 0.426952 -0.016771
v -0.043130 0.435602 -0.018067
v -0.033280 0.435602 -0.016771
v -0.043130 0.435602 -0.018067
v -0.033280 0.426952 -0.016771
v -0.033280 0.426952 0.056755
v -0.043130 0.426952 0.058051
v -0.033280 0.435602 0.056755
v -0.033280 0.435602 0.056755
v -0.024100 0.435602 0.052952
v -0.033280 0.426952 0.056755
v -0.052980 0.426952 -0.016771
v -0.043130 0.426952 -0.018067
v -0.052980 0.435602 -0.016771
v -0.043130 0.435602 -0.018067
v -0.052980 0.435602 -0.016771
v -0.043130 0.426952 -0.018067
v -0.043130 0.426952 0.058051
v -0.052980 0.426952 0.056755
v -0.043130 0.435602 0.058051
v -0.043130 0.435602 0.058051
v -0.033280 0.435602 0.056755
v -0.043130 0.426952 0.058051
v -0.052980 0.435602 -0.016771
v -0.062160 0.435602 -0.012968
v -0.052980 0.426952 -0.016771
v -0.052980 0.435602 0.056755
v -0.043130 0.435602 0.058051
v -0.052980 0.426952 0.056755
v -0.062160 0.426952 -0.012968
v -0.052980 0.426952 -0.016771
v -0.062160 0.435602 -0.012968
v -0.052980 0.426952 0.056755
v -0.062160 0.426952 0.052952
v -0.052980 0.435602 0.056755
v -0.062160 0.435602 -0.012968
v -0.070042 0.435602 -0.006920
v -0.062160 0.426952 -0.012968
v -0.062160 0.435602 0.052952
v -0.052980 0.435602 0.056755
v -0.062160 0.426952 0.052952
v -0.070042 0.426952 -0.006920
v -0.062160 0.426952 -0.012968
v -0.070042 0.435602 -0.006920
v -0.062160 0.426952 0.052952
v -0.070042 0.426952 0.046904
v -0.062160 0.435602 0.052952
v -0.070042 0.426952 -0.006920
v -0.070042 0.435602 -0.006920
v -0.076090 0.426952 0.000962
v -0.070042 0.435602 0.046904
v -0.062160 0.435602 0.052952
v -0.070042 0.426952 0.046904
v -0.076090 0.435602 0.000962
v -0.076090 0.426952 0.000962
v -0.070042 0.435602 -0.006920
v -0.070042 0.435602 0.046904
v -0.070042 0.426952 0.046904
v -0.076090 0.435602 0.039022
v -0.076090 0.426952 0.039022
v -0.076090 0.435602 0.039022
v -0.070042 0.426952 0.046904
v -0.076090 0.426952 0.000962
v -0.076090 0.435602 0.000962
v -0.079892 0.426952 0.010142
v -0.076090 0.435602 0.039022
v -0.076090 0.426952 0.039022
v -0.079892 0.435602 0.029842
v -0.079892 0.426952 0.029842
v -0.079892 0.435602 0.029842
v -0.076090 0.426952 0.039022
v -0.079892 0.426952 0.010142
v -0.079892 0.435602 0.010142
v -0.081189 0.426952 0.019992
v -0.079892 0.435602 0.010142
v -0.079892 0.426952 0.010142
v -0.076090 0.435602 0.000962
v -0.079892 0.435602 0.029842
v -0.079892 0.426952 0.029842
v -0.081189 0.435602 0.019992
v -0.081189 0.426952 0.019992
v -0.081189 0.435602 0.019992
v -0.079892 0.426952 0.029842
v -0.081189 0.435602 0.019992
v -0.081189 0.426952 0.019992
v -0.079892 0.435602 0.010142
v -0.016218 0.426952 -0.006920
v -0.010169 0.435602 0.000962
v -0.010169 0.426952 0.000962
v -0.010169 0.426952 0.000962
v -0.006368 0.435602 0.010142
v -0.006368 0.426952 0.010142
v -0.010169 0.426952 0.039022
v -0.016218 0.435602 0.046904
v -0.016218 0.426952 0.046904
v -0.006368 0.426952 0.029842
v -0.010169 0.435602 0.039022
v -0.010169 0.426952 0.039022
v -0.024100 0.435602 -0.012968
v -0.016218 0.426952 -0.006920
v -0.024100 0.426952 -0.012968
v -0.010169 0.435602 0.000962
v -0.016218 0.426952 -0.006920
v -0.016218 0.435602 -0.006920
v -0.006368 0.435602 0.010142
v -0.010169 0.426952 0.000962
v -0.010169 0.435602 0.000962
v -0.005070 0.435602 0.019992
v -0.006368 0.426952 0.010142
v -0.006368 0.435602 0.010142
v -0.006368 0.426952 0.010142
v -0.005070 0.435602 0.019992
v -0.005070 0.426952 0.019992
v -0.016218 0.435602 0.046904
v -0.024100 0.426952 0.052952
v -0.016218 0.426952 0.046904
v -0.016218 0.435602 0.046904
v -0.010169 0.426952 0.039022
v -0.010169 0.435602 0.039022
v -0.005070 0.426952 0.019992
v -0.006368 0.435602 0.029842
v -0.006368 0.426952 0.029842
v -0.010169 0.435602 0.039022
v -0.006368 0.426952 0.029842
v -0.006368 0.435602 0.029842
v -0.033280 0.435602 -0.016771
v -0.024100 0.426952 -0.012968
v -0.033280 0.426952 -0.016771
v -0.016218 0.426952 -0.006920
v -0.024100 0.435602 -0.012968
v -0.016218 0.435602 -0.006920
v -0.024100 0.426952 -0.012968
v -0.033280 0.435602 -0.016771
v -0.024100 0.435602 -0.012968
v -0.006368 0.435602 0.029842
v -0.005070 0.426952 0.019992
v -0.005070 0.435602 0.019992
v -0.024100 0.435602 0.052952
v -0.033280 0.426952 0.056755
v -0.024100 0.426952 0.052952
v -0.024100 0.426952 0.052952
v -0.016218 0.435602 0.046904
v -0.024100 0.435602 0.052952
v -0.043130 0.435602 -0.018067
v -0.033280 0.426952 -0.016771
v -0.043130 0.426952 -0.018067
v -0.033280 0.426952 -0.016771
v -0.043130 0.435602 -0.018067
v -0.033280 0.435602 -0.016771
v -0.033280 0.435602 0.056755
v -0.043130 0.426952 0.058051
v -0.033280 0.426952 0.056755
v -0.033280 0.426952 0.056755
v -0.024100 0.435602 0.052952
v -0.033280 0.435602 0.056755
v -0.052980 0.435602 -0.016771
v -0.043130 0.426952 -0.018067
v -0.052980 0.426952 -0.016771
v -0.043130 0.426952 -0.018067
v -0.052980 0.435602 -0.016771
v -0.043130 0.435602 -0.018067
v -0.043130 0.435602 0.058051
v -0.052980 0.426952 0.056755
v -0.043130 0.426952 0.058051
v -0.043130 0.426952 0.058051
v -0.033280 0.435602 0.056755
v -0.043130 0.435602 0.058051
v -0.052980 0.426952 -0.016771
v -0.062160 0.435602 -0.012968
v -0.052980 0.435602 -0.016771
v -0.052980 0.426952 0.056755
v -0.043130 0.435602 0.058051
v -0.052980 0.435602 0.056755
v -0.062160 0.435602 -0.012968
v -0.052980 0.426952 -0.016771
v -0.062160 0.426952 -0.012968
v -0.052980 0.435602 0.056755
v -0.062160 0.426952 0.052952
v -0.052980 0.426952 0.056755
v -0.062160 0.426952 -0.012968
v -0.070042 0.435602 -0.006920
v -0.062160 0.435602 -0.012968
v -0.062160 0.426952 0.052952
v -0.052980 0.435602 0.056755
v -0.062160 0.435602 0.052952
v -0.070042 0.435602 -0.006920
v -0.062160 0.426952 -0.012968
v -0.070042 0.426952 -0.006920
v -0.062160 0.435602 0.052952
v -0.070042 0.426952 0.046904
v -0.062160 0.426952 0.052952
v -0.076090 0.426952 0.000962
v -0.070042 0.435602 -0.006920
v -0.070042 0.426952 -0.006920
v -0.070042 0.426952 0.046904
v -0.062160 0.435602 0.052952
v -0.070042 0.435602 0.046904
v -0.070042 0.435602 -0.006920
v -0.076090 0.426952 0.000962
v -0.076090 0.435602 0.000962
v -0.076090 0.435602 0.039022
v -0.070042 0.426952 0.046904
v -0.070042 0.435602 0.046904
v -0.070042 0.426952 0.046904
v -0.076090 0.435602 0.039022
v -0.076090 0.426952 0.039022
v -0.079892 0.426952 0.010142
v -0.076090 0.435602 0.000962
v -0.076090 0.426952 0.000962
v -0.079892 0.435602 0.029842
v -0.076090 0.426952 0.039022
v -0.076090 0.435602 0.039022
v -0.076090 0.426952 0.039022
v -0.079892 0.435602 0.029842
v -0.079892 0.426952 0.029842
v -0.081189 0.426952 0.019992
v -0.079892 0.435602 0.010142
v -0.079892 0.426952 0.010142
v -0.076090 0.435602 0.000962
v -0.079892 0.426952 0.010142
v -0.079892 0.435602 0.010142
v -0.081189 0.435602 0.019992
v -0.079892 0.426952 0.029842
v -0.079892 0.435602 0.029842
v -0.079892 0.426952 0.029842
v -0.081189 0.435602 0.019992
v -0.081189 0.426952 0.019992
v -0.079892 0.435602 0.010142
v -0.081189 0.426952 0.019992
v -0.081189 0.435602 0.019992
vt 0 0
vn -0.8660252955903434 0 0.5000001873976233
vn -0.7071067811865476 0 0.7071067811865476
vn -0.9659258451755842 0 0.25881897461707376
vn -0.7071067811865476 0 -0.7071067811865476
vn -0.8660252955903434 0 -0.5000001873976233
vn -0.9659258451755842 0 -0.25881897461707376
vn -0.5000001873976233 0 0.8660252955903434
vn -1 0 0
vn -0.5000001873976233 0 -0.8660252955903434
vn -0.25881897461707376 0 0.9659258451755842
vn -0.25881897461707376 0 -0.9659258451755842
vn 0 0 1
vn 0 0 -1
vn 0.25881897461707376 0 0.9659258451755842
vn 0.25881897461707376 0 -0.9659258451755842
vn 0.5000001873976233 0 0.8660252955903434
vn 0.5000001873976233 0 -0.8660252955903434
vn 0.7071067811865476 0 0.7071067811865476
vn 0.7071067811865476 0 -0.7071067811865476
vn 0.8660252955903434 0 0.5000001873976233
vn 0.8660252955903434 0 -0.5000001873976233
vn 0.9659258451755842 0 0.25881897461707376
vn 0.9659258451755842 0 -0.25881897461707376
vn 1 0 0
usemtl material_0_0
f 1/1/1 2/1/1 3/1/2
f 4/1/3 5/1/3 6/1/1
f 7/1/4 8/1/4 9/1/5
f 10/1/5 11/1/5 12/1/6
f 13/1/7 14/1/2 15/1/7
f 16/1/2 17/1/2 18/1/1
f 19/1/1 20/1/1 21/1/3
f 22/1/3 23/1/3 24/1/8
f 25/1/8 26/1/8 27/1/3
f 28/1/4 29/1/9 30/1/4
f 31/1/5 32/1/5 33/1/4
f 34/1/6 35/1/6 36/1/8
f 37/1/6 38/1/6 39/1/5
f 40/1/10 41/1/7 42/1/10
f 43/1/2 44/1/7 45/1/2
f 46/1/7 47/1/10 48/1/7
f 49/1/8 50/1/8 51/1/6
f 52/1/9 53/1/11 54/1/9
f 55/1/9 56/1/4 57/1/9
f 58/1/12 59/1/10 60/1/12
f 61/1/10 62/1/12 63/1/10
f 64/1/11 65/1/13 66/1/11
f 67/1/11 68/1/9 69/1/11
f 70/1/14 71/1/12 72/1/14
f 73/1/12 74/1/14 75/1/12
f 76/1/13 77/1/15 78/1/13
f 79/1/13 80/1/11 81/1/13
f 82/1/14 83/1/16 84/1/14
f 85/1/15 86/1/13 87/1/15
f 88/1/16 89/1/14 90/1/16
f 91/1/15 92/1/17 93/1/15
f 94/1/16 95/1/18 96/1/16
f 97/1/17 98/1/15 99/1/17
f 100/1/18 101/1/16 102/1/18
f 103/1/17 104/1/19 105/1/17
f 106/1/18 107/1/18 108/1/20
f 109/1/19 110/1/17 111/1/19
f 112/1/20 113/1/20 114/1/18
f 115/1/19 116/1/19 117/1/21
f 118/1/21 119/1/21 120/1/19
f 121/1/20 122/1/20 123/1/22
f 124/1/21 125/1/21 126/1/23
f 127/1/23 128/1/23 129/1/21
f 130/1/22 131/1/22 132/1/24
f 133/1/22 134/1/22 135/1/20
f 136/1/23 137/1/23 138/1/24
f 139/1/24 140/1/24 141/1/23
f 142/1/24 143/1/24 144/1/22
usemtl material_1_0
f 145/1/19 146/1/21 147/1/21
f 148/1/21 149/1/23 150/1/23
f 151/1/20 152/1/18 153/1/18
f 154/1/22 155/1/20 156/1/20
f 157/1/17 158/1/19 159/1/17
f 160/1/21 161/1/19 162/1/19
f 163/1/23 164/1/21 165/1/21
f 166/1/24 167/1/23 168/1/23
f 169/1/23 170/1/24 171/1/24
f 172/1/18 173/1/16 174/1/18
f 175/1/18 176/1/20 177/1/20
f 178/1/24 179/1/22 180/1/22
f 181/1/20 182/1/22 183/1/22
f 184/1/15 185/1/17 186/1/15
f 187/1/19 188/1/17 189/1/19
f 190/1/17 191/1/15 192/1/17
f 193/1/22 194/1/24 195/1/24
f 196/1/16 197/1/14 198/1/16
f 199/1/16 200/1/18 201/1/16
f 202/1/13 203/1/15 204/1/13
f 205/1/15 206/1/13 207/1/15
f 208/1/14 209/1/12 210/1/14
f 211/1/14 212/1/16 213/1/14
f 214/1/11 215/1/13 216/1/11
f 217/1/13 218/1/11 219/1/13
f 220/1/12 221/1/10 222/1/12
f 223/1/12 224/1/14 225/1/12
f 226/1/11 227/1/9 228/1/11
f 229/1/10 230/1/12 231/1/10
f 232/1/9 233/1/11 234/1/9
f 235/1/10 236/1/7 237/1/10
f 238/1/9 239/1/4 240/1/9
f 241/1/7 242/1/10 243/1/7
f 244/1/4 245/1/9 246/1/4
f 247/1/7 248/1/2 249/1/7
f 250/1/5 251/1/4 252/1/4
f 253/1/2 254/1/7 255/1/2
f 256/1/4 257/1/5 258/1/5
f 259/1/1 260/1/2 261/1/2
f 262/1/2 263/1/1 264/1/1
f 265/1/6 266/1/5 267/1/5
f 268/1/3 269/1/1 270/1/1
f 271/1/1 272/1/3 273/1/3
f 274/1/8 275/1/6 276/1/6
f 277/1/5 278/1/6 279/1/6
f 280/1/8 281/1/3 282/1/3
f 283/1/3 284/1/8 285/1/8
f 286/1/6 287/1/8 288/1/8
