# SSTK version 0.8.0
# 8
mtllib original-8.mtl
o 3dw.5334cfe15f80099f15ac67104577aee7/Model/mesh1/mesh1-geometry/material_1/component_6#mesh1-geometry
v -0.781037 0.435602 0.035223
v -0.784979 0.435602 0.028590
v -0.784979 0.435602 -0.001394
v -0.784979 0.435602 0.028590
v -0.787419 0.435602 0.021270
v -0.787419 0.435602 0.005926
v -0.788245 0.435602 0.013598
v -0.787419 0.435602 0.005926
v -0.787419 0.435602 0.021270
v -0.784979 0.435602 -0.001394
v -0.784979 0.435602 0.028590
v -0.787419 0.435602 0.005926
v -0.781037 0.435602 -0.008026
v -0.781037 0.435602 0.035223
v -0.784979 0.435602 -0.001394
v -0.775773 0.435602 0.040865
v -0.781037 0.435602 0.035223
v -0.781037 0.435602 -0.008026
v -0.769429 0.435602 0.045256
v -0.775773 0.435602 0.040865
v -0.775773 0.435602 -0.013668
v -0.762295 0.435602 0.048198
v -0.769429 0.435602 0.045256
v -0.769429 0.435602 -0.018060
v -0.775773 0.435602 -0.013668
v -0.775773 0.435602 0.040865
v -0.781037 0.435602 -0.008026
v -0.606598 0.435602 0.048198
v -0.762295 0.435602 0.048198
v -0.762295 0.435602 -0.021001
v -0.769429 0.435602 -0.018060
v -0.769429 0.435602 0.045256
v -0.775773 0.435602 -0.013668
v -0.762295 0.435602 -0.021001
v -0.762295 0.435602 0.048198
v -0.769429 0.435602 -0.018060
v -0.606598 0.435602 -0.021001
v -0.606598 0.435602 0.048198
v -0.762295 0.435602 -0.021001
v -0.599465 0.435602 0.045256
v -0.606598 0.435602 0.048198
v -0.606598 0.435602 -0.021001
v -0.593121 0.435602 0.040865
v -0.599465 0.435602 0.045256
v -0.599465 0.435602 -0.018060
v -0.599465 0.435602 -0.018060
v -0.599465 0.435602 0.045256
v -0.606598 0.435602 -0.021001
v -0.593121 0.435602 -0.013668
v -0.593121 0.435602 0.040865
v -0.599465 0.435602 -0.018060
v -0.587857 0.435602 0.035223
v -0.593121 0.435602 0.040865
v -0.593121 0.435602 -0.013668
v -0.587857 0.435602 -0.008026
v -0.587857 0.435602 0.035223
v -0.593121 0.435602 -0.013668
v -0.583915 0.435602 0.028590
v -0.587857 0.435602 0.035223
v -0.587857 0.435602 -0.008026
v -0.583915 0.435602 -0.001394
v -0.583915 0.435602 0.028590
v -0.587857 0.435602 -0.008026
v -0.581475 0.435602 0.021270
v -0.583915 0.435602 0.028590
v -0.583915 0.435602 -0.001394
v -0.581475 0.435602 0.005926
v -0.581475 0.435602 0.021270
v -0.583915 0.435602 -0.001394
v -0.580649 0.435602 0.013598
v -0.581475 0.435602 0.021270
v -0.581475 0.435602 0.005926
v -0.784979 0.435602 -0.001394
v -0.784979 0.435602 0.028590
v -0.781037 0.435602 0.035223
v -0.787419 0.435602 0.005926
v -0.787419 0.435602 0.021270
v -0.784979 0.435602 0.028590
v -0.787419 0.435602 0.021270
v -0.787419 0.435602 0.005926
v -0.788245 0.435602 0.013598
v -0.787419 0.435602 0.005926
v -0.784979 0.435602 0.028590
v -0.784979 0.435602 -0.001394
v -0.784979 0.435602 -0.001394
v -0.781037 0.435602 0.035223
v -0.781037 0.435602 -0.008026
v -0.781037 0.435602 -0.008026
v -0.781037 0.435602 0.035223
v -0.775773 0.435602 0.040865
v -0.775773 0.435602 -0.013668
v -0.775773 0.435602 0.040865
v -0.769429 0.435602 0.045256
v -0.769429 0.435602 -0.018060
v -0.769429 0.435602 0.045256
v -0.762295 0.435602 0.048198
v -0.781037 0.435602 -0.008026
v -0.775773 0.435602 0.040865
v -0.775773 0.435602 -0.013668
v -0.762295 0.435602 -0.021001
v -0.762295 0.435602 0.048198
v -0.606598 0.435602 0.048198
v -0.775773 0.435602 -0.013668
v -0.769429 0.435602 0.045256
v -0.769429 0.435602 -0.018060
v -0.769429 0.435602 -0.018060
v -0.762295 0.435602 0.048198
v -0.762295 0.435602 -0.021001
v -0.762295 0.435602 -0.021001
v -0.606598 0.435602 0.048198
v -0.606598 0.435602 -0.021001
v -0.606598 0.435602 -0.021001
v -0.606598 0.435602 0.048198
v -0.599465 0.435602 0.045256
v -0.599465 0.435602 -0.018060
v -0.599465 0.435602 0.045256
v -0.593121 0.435602 0.040865
v -0.606598 0.435602 -0.021001
v -0.599465 0.435602 0.045256
v -0.599465 0.435602 -0.018060
v -0.599465 0.435602 -0.018060
v -0.593121 0.435602 0.040865
v -0.593121 0.435602 -0.013668
v -0.593121 0.435602 -0.013668
v -0.593121 0.435602 0.040865
v -0.587857 0.435602 0.035223
v -0.593121 0.435602 -0.013668
v -0.587857 0.435602 0.035223
v -0.587857 0.435602 -0.008026
v -0.587857 0.435602 -0.008026
v -0.587857 0.435602 0.035223
v -0.583915 0.435602 0.028590
v -0.587857 0.435602 -0.008026
v -0.583915 0.435602 0.028590
v -0.583915 0.435602 -0.001394
v -0.583915 0.435602 -0.001394
v -0.583915 0.435602 0.028590
v -0.581475 0.435602 0.021270
v -0.583915 0.435602 -0.001394
v -0.581475 0.435602 0.021270
v -0.581475 0.435602 0.005926
v -0.581475 0.435602 0.005926
v -0.581475 0.435602 0.021270
v -0.580649 0.435602 0.013598
vt 0 0
vt 0.8597009778022766 0.7446560263633728
vt 0.8597009778022766 0.7636590003967285
vt 0.8576869964599609 0.7678620219230652
vt 0.8609470129013062 0.7492949962615967
vt 0.8609470129013062 0.7590190172195435
vt 0.8613690137863159 0.7541570067405701
vt 0.8576869964599609 0.740451991558075
vt 0.8549990057945251 0.7714380025863647
vt 0.8549990057945251 0.7368760108947754
vt 0.8517580032348633 0.7742220163345337
vt 0.8517580032348633 0.7340930104255676
vt 0.8481150269508362 0.7760850191116333
vt 0.8481150269508362 0.7322289943695068
vt 0.7685890197753906 0.7760850191116333
vt 0.7685890197753906 0.7322289943695068
vt 0.7649459838867188 0.7742220163345337
vt 0.7649459838867188 0.7340930104255676
vt 0.7617059946060181 0.7714380025863647
vt 0.7617059946060181 0.7368760108947754
vt 0.7590169906616211 0.7678620219230652
vt 0.7590169906616211 0.740451991558075
vt 0.7570030093193054 0.7636590003967285
vt 0.7570030093193054 0.7446560263633728
vt 0.7557569742202759 0.7590190172195435
vt 0.7557569742202759 0.7492949962615967
vt 0.7553349733352661 0.7541570067405701
vn 0 -1 0
vn 0 1 0
usemtl material_0_0
f 1/1/1 2/1/1 3/1/1
f 4/1/1 5/1/1 6/1/1
f 7/1/1 8/1/1 9/1/1
f 10/1/1 11/1/1 12/1/1
f 13/1/1 14/1/1 15/1/1
f 16/1/1 17/1/1 18/1/1
f 19/1/1 20/1/1 21/1/1
f 22/1/1 23/1/1 24/1/1
f 25/1/1 26/1/1 27/1/1
f 28/1/1 29/1/1 30/1/1
f 31/1/1 32/1/1 33/1/1
f 34/1/1 35/1/1 36/1/1
f 37/1/1 38/1/1 39/1/1
f 40/1/1 41/1/1 42/1/1
f 43/1/1 44/1/1 45/1/1
f 46/1/1 47/1/1 48/1/1
f 49/1/1 50/1/1 51/1/1
f 52/1/1 53/1/1 54/1/1
f 55/1/1 56/1/1 57/1/1
f 58/1/1 59/1/1 60/1/1
f 61/1/1 62/1/1 63/1/1
f 64/1/1 65/1/1 66/1/1
f 67/1/1 68/1/1 69/1/1
f 70/1/1 71/1/1 72/1/1
usemtl material_1_0
f 73/2/2 74/3/2 75/4/2
f 76/5/2 77/6/2 78/3/2
f 79/6/2 80/5/2 81/7/2
f 82/5/2 83/3/2 84/2/2
f 85/2/2 86/4/2 87/8/2
f 88/8/2 89/4/2 90/9/2
f 91/10/2 92/9/2 93/11/2
f 94/12/2 95/11/2 96/13/2
f 97/8/2 98/9/2 99/10/2
f 100/14/2 101/13/2 102/15/2
f 103/10/2 104/11/2 105/12/2
f 106/12/2 107/13/2 108/14/2
f 109/14/2 110/15/2 111/16/2
f 112/16/2 113/15/2 114/17/2
f 115/18/2 116/17/2 117/19/2
f 118/16/2 119/17/2 120/18/2
f 121/18/2 122/19/2 123/20/2
f 124/20/2 125/19/2 126/21/2
f 127/20/2 128/21/2 129/22/2
f 130/22/2 131/21/2 132/23/2
f 133/22/2 134/23/2 135/24/2
f 136/24/2 137/23/2 138/25/2
f 139/24/2 140/25/2 141/26/2
f 142/26/2 143/25/2 144/27/2
