# SSTK version 0.8.0
# 42
mtllib original-42.mtl
o 3dw.5334cfe15f80099f15ac67104577aee7/Model/mesh1/mesh1-geometry/material_12/component_1#mesh1-geometry
v -0.900454 -0.041937 0.182382
v -0.900454 -0.103287 0.182382
v -0.900454 -0.041937 0.125353
v -0.900454 -0.103287 0.113183
v -0.900454 -0.041937 0.125353
v -0.900454 -0.103287 0.182382
v -0.900454 0.121609 0.113183
v -0.900454 -0.041937 0.125353
v -0.900454 -0.103287 0.113183
v -0.900454 -0.041937 0.125353
v -0.900454 0.121609 0.113183
v -0.900454 0.012276 0.125353
v -0.900454 0.012276 0.125353
v -0.900454 0.121609 0.113183
v -0.900454 0.012276 0.182382
v -0.900454 0.121609 0.182382
v -0.900454 0.012276 0.182382
v -0.900454 0.121609 0.113183
v -0.900454 -0.041937 0.125353
v -0.900454 -0.103287 0.182382
v -0.900454 -0.041937 0.182382
v -0.900454 -0.103287 0.182382
v -0.900454 -0.041937 0.125353
v -0.900454 -0.103287 0.113183
v -0.900454 -0.103287 0.113183
v -0.900454 -0.041937 0.125353
v -0.900454 0.121609 0.113183
v -0.900454 0.012276 0.125353
v -0.900454 0.121609 0.113183
v -0.900454 -0.041937 0.125353
v -0.900454 0.012276 0.182382
v -0.900454 0.121609 0.113183
v -0.900454 0.012276 0.125353
v -0.900454 0.121609 0.113183
v -0.900454 0.012276 0.182382
v -0.900454 0.121609 0.182382
vt 0 0
vn 1 0 0
vn -1 0 0
usemtl material_0_0
f 1/1/1 2/1/1 3/1/1
f 4/1/1 5/1/1 6/1/1
f 7/1/1 8/1/1 9/1/1
f 10/1/1 11/1/1 12/1/1
f 13/1/1 14/1/1 15/1/1
f 16/1/1 17/1/1 18/1/1
usemtl material_1_0
f 19/1/2 20/1/2 21/1/2
f 22/1/2 23/1/2 24/1/2
f 25/1/2 26/1/2 27/1/2
f 28/1/2 29/1/2 30/1/2
f 31/1/2 32/1/2 33/1/2
f 34/1/2 35/1/2 36/1/2
