# SSTK version 0.8.0
# 47
mtllib original-47.mtl
o 3dw.5334cfe15f80099f15ac67104577aee7/Model/mesh1/mesh1-geometry/material_15/component_0#mesh1-geometry
v -0.848670 -0.015426 -0.170532
v -0.845074 -0.042739 -0.170532
v -0.848670 -0.015426 -0.179182
v -0.845074 0.011886 -0.170532
v -0.848670 -0.015426 -0.170532
v -0.845074 0.011886 -0.179182
v -0.834532 -0.068191 -0.170532
v -0.817761 -0.090046 -0.170532
v -0.834532 -0.068191 -0.179182
v -0.845074 -0.042739 -0.170532
v -0.834532 -0.068191 -0.170532
v -0.845074 -0.042739 -0.179182
v -0.845074 -0.042739 -0.179182
v -0.848670 -0.015426 -0.179182
v -0.845074 -0.042739 -0.170532
v -0.848670 -0.015426 -0.179182
v -0.845074 0.011886 -0.179182
v -0.848670 -0.015426 -0.170532
v -0.834532 0.037338 -0.170532
v -0.845074 0.011886 -0.170532
v -0.834532 0.037338 -0.179182
v -0.845074 0.011886 -0.179182
v -0.834532 0.037338 -0.179182
v -0.845074 0.011886 -0.170532
v -0.817761 -0.090046 -0.179182
v -0.834532 -0.068191 -0.179182
v -0.817761 -0.090046 -0.170532
v -0.834532 -0.068191 -0.179182
v -0.845074 -0.042739 -0.179182
v -0.834532 -0.068191 -0.170532
v -0.817761 0.059193 -0.170532
v -0.834532 0.037338 -0.170532
v -0.817761 0.059193 -0.179182
v -0.834532 0.037338 -0.179182
v -0.817761 0.059193 -0.179182
v -0.834532 0.037338 -0.170532
v -0.817761 -0.090046 -0.179182
v -0.817761 -0.090046 -0.170532
v -0.795906 -0.106817 -0.179182
v -0.817761 0.059193 -0.170532
v -0.817761 0.059193 -0.179182
v -0.795906 0.075964 -0.170532
v -0.795906 -0.106817 -0.170532
v -0.795906 -0.106817 -0.179182
v -0.817761 -0.090046 -0.170532
v -0.795906 0.075964 -0.170532
v -0.795906 0.075964 -0.179182
v -0.770454 0.086506 -0.170532
v -0.795906 0.075964 -0.179182
v -0.795906 0.075964 -0.170532
v -0.817761 0.059193 -0.179182
v -0.795906 -0.106817 -0.179182
v -0.795906 -0.106817 -0.170532
v -0.770454 -0.117359 -0.179182
v -0.770454 0.086506 -0.179182
v -0.770454 0.086506 -0.170532
v -0.795906 0.075964 -0.179182
v -0.770454 -0.117359 -0.170532
v -0.770454 -0.117359 -0.179182
v -0.795906 -0.106817 -0.170532
v -0.651752 -0.068191 -0.170532
v -0.641209 -0.042739 -0.170532
v -0.651752 -0.068191 -0.179182
v -0.641209 -0.042739 -0.170532
v -0.637613 -0.015426 -0.170532
v -0.641209 -0.042739 -0.179182
v -0.715829 -0.117359 -0.179182
v -0.715829 -0.117359 -0.170532
v -0.690378 -0.106817 -0.179182
v -0.770454 0.086506 -0.170532
v -0.770454 0.086506 -0.179182
v -0.743142 0.090102 -0.170532
v -0.770454 -0.117359 -0.179182
v -0.770454 -0.117359 -0.170532
v -0.743142 -0.120955 -0.179182
v -0.743142 -0.120955 -0.170532
v -0.743142 -0.120955 -0.179182
v -0.770454 -0.117359 -0.170532
v -0.668522 -0.090046 -0.170532
v -0.651752 -0.068191 -0.170532
v -0.668522 -0.090046 -0.179182
v -0.641209 -0.042739 -0.179182
v -0.651752 -0.068191 -0.179182
v -0.641209 -0.042739 -0.170532
v -0.651752 -0.068191 -0.179182
v -0.668522 -0.090046 -0.179182
v -0.651752 -0.068191 -0.170532
v -0.637613 -0.015426 -0.179182
v -0.641209 -0.042739 -0.179182
v -0.637613 -0.015426 -0.170532
v -0.637613 -0.015426 -0.170532
v -0.641209 0.011886 -0.170532
v -0.637613 -0.015426 -0.179182
v -0.690378 -0.106817 -0.170532
v -0.690378 -0.106817 -0.179182
v -0.715829 -0.117359 -0.170532
v -0.715829 -0.117359 -0.170532
v -0.715829 -0.117359 -0.179182
v -0.743142 -0.120955 -0.170532
v -0.690378 -0.106817 -0.179182
v -0.690378 -0.106817 -0.170532
v -0.668522 -0.090046 -0.179182
v -0.743142 0.090102 -0.179182
v -0.743142 0.090102 -0.170532
v -0.770454 0.086506 -0.179182
v -0.743142 -0.120955 -0.179182
v -0.743142 -0.120955 -0.170532
v -0.715829 -0.117359 -0.179182
v -0.668522 -0.090046 -0.170532
v -0.668522 -0.090046 -0.179182
v -0.690378 -0.106817 -0.170532
v -0.641209 0.011886 -0.179182
v -0.637613 -0.015426 -0.179182
v -0.641209 0.011886 -0.170532
v -0.641209 0.011886 -0.170532
v -0.651752 0.037338 -0.170532
v -0.641209 0.011886 -0.179182
v -0.743142 0.090102 -0.170532
v -0.743142 0.090102 -0.179182
v -0.715829 0.086506 -0.170532
v -0.690378 0.075964 -0.179182
v -0.690378 0.075964 -0.170532
v -0.715829 0.086506 -0.179182
v -0.651752 0.037338 -0.179182
v -0.641209 0.011886 -0.179182
v -0.651752 0.037338 -0.170532
v -0.651752 0.037338 -0.170532
v -0.668522 0.059193 -0.170532
v -0.651752 0.037338 -0.179182
v -0.715829 0.086506 -0.179182
v -0.715829 0.086506 -0.170532
v -0.743142 0.090102 -0.179182
v -0.715829 0.086506 -0.170532
v -0.715829 0.086506 -0.179182
v -0.690378 0.075964 -0.170532
v -0.690378 0.075964 -0.170532
v -0.690378 0.075964 -0.179182
v -0.668522 0.059193 -0.170532
v -0.668522 0.059193 -0.179182
v -0.651752 0.037338 -0.179182
v -0.668522 0.059193 -0.170532
v -0.668522 0.059193 -0.179182
v -0.668522 0.059193 -0.170532
v -0.690378 0.075964 -0.179182
v -0.848670 -0.015426 -0.179182
v -0.845074 -0.042739 -0.170532
v -0.848670 -0.015426 -0.170532
v -0.845074 0.011886 -0.179182
v -0.848670 -0.015426 -0.170532
v -0.845074 0.011886 -0.170532
v -0.834532 -0.068191 -0.179182
v -0.817761 -0.090046 -0.170532
v -0.834532 -0.068191 -0.170532
v -0.845074 -0.042739 -0.179182
v -0.834532 -0.068191 -0.170532
v -0.845074 -0.042739 -0.170532
v -0.845074 -0.042739 -0.170532
v -0.848670 -0.015426 -0.179182
v -0.845074 -0.042739 -0.179182
v -0.848670 -0.015426 -0.170532
v -0.845074 0.011886 -0.179182
v -0.848670 -0.015426 -0.179182
v -0.834532 0.037338 -0.179182
v -0.845074 0.011886 -0.170532
v -0.834532 0.037338 -0.170532
v -0.845074 0.011886 -0.170532
v -0.834532 0.037338 -0.179182
v -0.845074 0.011886 -0.179182
v -0.817761 -0.090046 -0.170532
v -0.834532 -0.068191 -0.179182
v -0.817761 -0.090046 -0.179182
v -0.834532 -0.068191 -0.170532
v -0.845074 -0.042739 -0.179182
v -0.834532 -0.068191 -0.179182
v -0.817761 0.059193 -0.179182
v -0.834532 0.037338 -0.170532
v -0.817761 0.059193 -0.170532
v -0.834532 0.037338 -0.170532
v -0.817761 0.059193 -0.179182
v -0.834532 0.037338 -0.179182
v -0.795906 -0.106817 -0.179182
v -0.817761 -0.090046 -0.170532
v -0.817761 -0.090046 -0.179182
v -0.795906 0.075964 -0.170532
v -0.817761 0.059193 -0.179182
v -0.817761 0.059193 -0.170532
v -0.817761 -0.090046 -0.170532
v -0.795906 -0.106817 -0.179182
v -0.795906 -0.106817 -0.170532
v -0.770454 0.086506 -0.170532
v -0.795906 0.075964 -0.179182
v -0.795906 0.075964 -0.170532
v -0.817761 0.059193 -0.179182
v -0.795906 0.075964 -0.170532
v -0.795906 0.075964 -0.179182
v -0.770454 -0.117359 -0.179182
v -0.795906 -0.106817 -0.170532
v -0.795906 -0.106817 -0.179182
v -0.795906 0.075964 -0.179182
v -0.770454 0.086506 -0.170532
v -0.770454 0.086506 -0.179182
v -0.795906 -0.106817 -0.170532
v -0.770454 -0.117359 -0.179182
v -0.770454 -0.117359 -0.170532
v -0.651752 -0.068191 -0.179182
v -0.641209 -0.042739 -0.170532
v -0.651752 -0.068191 -0.170532
v -0.641209 -0.042739 -0.179182
v -0.637613 -0.015426 -0.170532
v -0.641209 -0.042739 -0.170532
v -0.690378 -0.106817 -0.179182
v -0.715829 -0.117359 -0.170532
v -0.715829 -0.117359 -0.179182
v -0.743142 0.090102 -0.170532
v -0.770454 0.086506 -0.179182
v -0.770454 0.086506 -0.170532
v -0.743142 -0.120955 -0.179182
v -0.770454 -0.117359 -0.170532
v -0.770454 -0.117359 -0.179182
v -0.770454 -0.117359 -0.170532
v -0.743142 -0.120955 -0.179182
v -0.743142 -0.120955 -0.170532
v -0.668522 -0.090046 -0.179182
v -0.651752 -0.068191 -0.170532
v -0.668522 -0.090046 -0.170532
v -0.641209 -0.042739 -0.170532
v -0.651752 -0.068191 -0.179182
v -0.641209 -0.042739 -0.179182
v -0.651752 -0.068191 -0.170532
v -0.668522 -0.090046 -0.179182
v -0.651752 -0.068191 -0.179182
v -0.637613 -0.015426 -0.170532
v -0.641209 -0.042739 -0.179182
v -0.637613 -0.015426 -0.179182
v -0.637613 -0.015426 -0.179182
v -0.641209 0.011886 -0.170532
v -0.637613 -0.015426 -0.170532
v -0.715829 -0.117359 -0.170532
v -0.690378 -0.106817 -0.179182
v -0.690378 -0.106817 -0.170532
v -0.743142 -0.120955 -0.170532
v -0.715829 -0.117359 -0.179182
v -0.715829 -0.117359 -0.170532
v -0.668522 -0.090046 -0.179182
v -0.690378 -0.106817 -0.170532
v -0.690378 -0.106817 -0.179182
v -0.770454 0.086506 -0.179182
v -0.743142 0.090102 -0.170532
v -0.743142 0.090102 -0.179182
v -0.715829 -0.117359 -0.179182
v -0.743142 -0.120955 -0.170532
v -0.743142 -0.120955 -0.179182
v -0.690378 -0.106817 -0.170532
v -0.668522 -0.090046 -0.179182
v -0.668522 -0.090046 -0.170532
v -0.641209 0.011886 -0.170532
v -0.637613 -0.015426 -0.179182
v -0.641209 0.011886 -0.179182
v -0.641209 0.011886 -0.179182
v -0.651752 0.037338 -0.170532
v -0.641209 0.011886 -0.170532
v -0.715829 0.086506 -0.170532
v -0.743142 0.090102 -0.179182
v -0.743142 0.090102 -0.170532
v -0.715829 0.086506 -0.179182
v -0.690378 0.075964 -0.170532
v -0.690378 0.075964 -0.179182
v -0.651752 0.037338 -0.170532
v -0.641209 0.011886 -0.179182
v -0.651752 0.037338 -0.179182
v -0.651752 0.037338 -0.179182
v -0.668522 0.059193 -0.170532
v -0.651752 0.037338 -0.170532
v -0.743142 0.090102 -0.179182
v -0.715829 0.086506 -0.170532
v -0.715829 0.086506 -0.179182
v -0.690378 0.075964 -0.170532
v -0.715829 0.086506 -0.179182
v -0.715829 0.086506 -0.170532
v -0.668522 0.059193 -0.170532
v -0.690378 0.075964 -0.179182
v -0.690378 0.075964 -0.170532
v -0.668522 0.059193 -0.170532
v -0.651752 0.037338 -0.179182
v -0.668522 0.059193 -0.179182
v -0.690378 0.075964 -0.179182
v -0.668522 0.059193 -0.170532
v -0.668522 0.059193 -0.179182
vt -0.3383769989013672 -0.040814001113176346
vt -0.3383769989013672 -0.046039000153541565
vt -0.33960700035095215 -0.040814001113176346
vt -0.3383769989013672 0.20365899801254272
vt -0.3383769989013672 0.1984339952468872
vt -0.33960700035095215 0.20365899801254272
vt -0.3383769989013672 -0.5044230222702026
vt -0.3383769989013672 -0.509647011756897
vt -0.33960700035095215 -0.5044230222702026
vt -0.3383769989013672 -0.2823280096054077
vt -0.3383769989013672 -0.28755199909210205
vt -0.33960700035095215 -0.2823280096054077
vt -0.33960700035095215 -0.046039000153541565
vt -0.33960700035095215 0.1984339952468872
vt -0.3383769989013672 0.43443000316619873
vt -0.3383769989013672 0.4292060136795044
vt -0.33960700035095215 0.43443000316619873
vt -0.33960700035095215 0.4292060136795044
vt -0.33960700035095215 -0.509647011756897
vt -0.33960700035095215 -0.28755199909210205
vt -0.3383769989013672 0.6357740163803101
vt -0.3383769989013672 0.6305500268936157
vt -0.33960700035095215 0.6357740163803101
vt -0.33960700035095215 0.6305500268936157
vt -0.33960700035095215 -0.6919639706611633
vt -0.3383769989013672 -0.6919639706611633
vt -0.33960700035095215 -0.6971889734268188
vt -0.3383769989013672 0.7887449860572815
vt -0.33960700035095215 0.7887449860572815
vt -0.3383769989013672 0.793969988822937
vt -0.3383769989013672 -0.6971889734268188
vt -0.3383769989013672 0.8930109739303589
vt -0.33960700035095215 0.8930109739303589
vt -0.3383769989013672 0.898235023021698
vt -0.33960700035095215 0.793969988822937
vt -0.33960700035095215 -0.8321719765663147
vt -0.3383769989013672 -0.8321719765663147
vt -0.33960700035095215 -0.8373960256576538
vt -0.33960700035095215 0.898235023021698
vt -0.3383769989013672 -0.8373960256576538
vt 0.3383769989013672 0.4292060136795044
vt 0.3383769989013672 0.43443000316619873
vt 0.33960700035095215 0.4292060136795044
vt 0.3383769989013672 0.1984339952468872
vt 0.3383769989013672 0.20365899801254272
vt 0.33960700035095215 0.1984339952468872
vt 0.33960700035095215 0.8930109739303589
vt 0.3383769989013672 0.8930109739303589
vt 0.33960700035095215 0.898235023021698
vt -0.3383769989013672 0.9362409710884094
vt -0.33960700035095215 0.9362409710884094
vt -0.3383769989013672 0.9414650201797485
vt -0.33960700035095215 -0.9154899716377258
vt -0.3383769989013672 -0.9154899716377258
vt -0.33960700035095215 -0.9207140207290649
vt -0.3383769989013672 -0.9207140207290649
vt 0.3383769989013672 0.6305500268936157
vt 0.3383769989013672 0.6357740163803101
vt 0.33960700035095215 0.6305500268936157
vt 0.33960700035095215 0.43443000316619873
vt 0.33960700035095215 0.6357740163803101
vt 0.33960700035095215 0.20365899801254272
vt 0.3383769989013672 -0.046039000153541565
vt 0.3383769989013672 -0.040814001113176346
vt 0.33960700035095215 -0.046039000153541565
vt 0.3383769989013672 0.898235023021698
vt 0.3383769989013672 0.9414650201797485
vt 0.33960700035095215 0.9414650201797485
vt 0.3383769989013672 0.9362409710884094
vt 0.33960700035095215 0.7887449860572815
vt 0.3383769989013672 0.7887449860572815
vt 0.33960700035095215 0.793969988822937
vt -0.33960700035095215 0.9414650201797485
vt 0.33960700035095215 0.9362409710884094
vt 0.3383769989013672 0.793969988822937
vt 0.33960700035095215 -0.040814001113176346
vt 0.3383769989013672 -0.28755199909210205
vt 0.3383769989013672 -0.2823280096054077
vt 0.33960700035095215 -0.28755199909210205
vt 0.3383769989013672 -0.9154899716377258
vt 0.33960700035095215 -0.9154899716377258
vt 0.3383769989013672 -0.9207140207290649
vt 0.33960700035095215 -0.8373960256576538
vt 0.3383769989013672 -0.8373960256576538
vt 0.33960700035095215 -0.8321719765663147
vt 0.33960700035095215 -0.2823280096054077
vt 0.3383769989013672 -0.509647011756897
vt 0.3383769989013672 -0.5044230222702026
vt 0.33960700035095215 -0.509647011756897
vt 0.33960700035095215 -0.9207140207290649
vt 0.3383769989013672 -0.8321719765663147
vt 0.3383769989013672 -0.6919639706611633
vt 0.33960700035095215 -0.6919639706611633
vt 0.3383769989013672 -0.6971889734268188
vt 0.33960700035095215 -0.5044230222702026
vt 0.33960700035095215 -0.6971889734268188
vt 0 0
vn 1 0 0
vn 0.9659258451755842 0.25881897461707376 0
vn 0.9659258451755842 -0.25881897461707376 0
vn 0.8660252955903434 0.5000001873976233 0
vn 0.7071067811865476 0.7071067811865476 0
vn 0.8660252955903434 -0.5000001873976233 0
vn 0.7071067811865476 -0.7071067811865476 0
vn 0.5000001873976233 0.8660252955903434 0
vn 0.5000001873976233 -0.8660252955903434 0
vn 0.25881897461707376 -0.9659258451755842 0
vn 0.25881897461707376 0.9659258451755842 0
vn -0.8660252955903434 0.5000001873976233 0
vn -0.9659258451755842 0.25881897461707376 0
vn -1 0 0
vn -0.25881897461707376 0.9659258451755842 0
vn -0.5000001873976233 0.8660252955903434 0
vn 0 -1 0
vn 0 1 0
vn -0.7071067811865476 0.7071067811865476 0
vn -0.9659258451755842 -0.25881897461707376 0
vn -0.8660252955903434 -0.5000001873976233 0
vn -0.25881897461707376 -0.9659258451755842 0
vn -0.5000001873976233 -0.8660252955903434 0
vn -0.7071067811865476 -0.7071067811865476 0
usemtl material_0_0
f 1/1/1 2/2/2 3/3/1
f 4/4/3 5/5/1 6/6/3
f 7/7/4 8/8/5 9/9/4
f 10/10/2 11/11/4 12/12/2
f 13/13/2 14/3/1 15/2/2
f 16/14/1 17/6/3 18/5/1
f 19/15/6 20/16/3 21/17/6
f 22/18/3 23/17/6 24/16/3
f 25/19/5 26/9/4 27/8/5
f 28/20/4 29/12/2 30/11/4
f 31/21/7 32/22/6 33/23/7
f 34/24/6 35/23/7 36/22/6
f 37/25/5 38/26/5 39/27/8
f 40/28/7 41/29/7 42/30/9
f 43/31/8 44/27/8 45/26/5
f 46/32/9 47/33/9 48/34/10
f 49/35/9 50/30/9 51/29/7
f 52/36/8 53/37/8 54/38/11
f 55/39/10 56/34/10 57/33/9
f 58/40/11 59/38/11 60/37/8
f 61/41/12 62/42/13 63/43/12
f 64/44/13 65/45/14 66/46/13
f 67/47/15 68/48/15 69/49/16
f 70/50/10 71/51/10 72/52/17
f 73/53/11 74/54/11 75/55/18
f 76/56/18 77/55/18 78/54/11
f 79/57/19 80/58/12 81/59/19
f 82/60/13 83/43/12 84/42/13
f 85/61/12 86/59/19 87/58/12
f 88/62/14 89/46/13 90/45/14
f 91/63/14 92/64/20 93/65/14
f 94/66/16 95/49/16 96/48/15
f 97/67/15 98/68/15 99/69/18
f 100/70/16 101/71/16 102/72/19
f 103/73/17 104/52/17 105/51/10
f 106/74/18 107/69/18 108/68/15
f 109/75/19 110/72/19 111/71/16
f 112/76/20 113/65/14 114/64/20
f 115/77/20 116/78/21 117/79/20
f 118/80/17 119/81/17 120/82/22
f 121/83/23 122/84/23 123/85/22
f 124/86/21 125/79/20 126/78/21
f 127/87/21 128/88/24 129/89/21
f 130/90/22 131/82/22 132/81/17
f 133/91/22 134/85/22 135/84/23
f 136/92/23 137/93/23 138/94/24
f 139/95/24 140/89/21 141/88/24
f 142/96/24 143/94/24 144/93/23
usemtl material_1_0
f 145/97/14 146/97/20 147/97/14
f 148/97/13 149/97/14 150/97/13
f 151/97/21 152/97/24 153/97/21
f 154/97/20 155/97/21 156/97/20
f 157/97/20 158/97/14 159/97/20
f 160/97/14 161/97/13 162/97/14
f 163/97/12 164/97/13 165/97/12
f 166/97/13 167/97/12 168/97/13
f 169/97/24 170/97/21 171/97/24
f 172/97/21 173/97/20 174/97/21
f 175/97/19 176/97/12 177/97/19
f 178/97/12 179/97/19 180/97/12
f 181/97/23 182/97/24 183/97/24
f 184/97/16 185/97/19 186/97/19
f 187/97/24 188/97/23 189/97/23
f 190/97/15 191/97/16 192/97/16
f 193/97/19 194/97/16 195/97/16
f 196/97/22 197/97/23 198/97/23
f 199/97/16 200/97/15 201/97/15
f 202/97/23 203/97/22 204/97/22
f 205/97/6 206/97/3 207/97/6
f 208/97/3 209/97/1 210/97/3
f 211/97/9 212/97/10 213/97/10
f 214/97/18 215/97/15 216/97/15
f 217/97/17 218/97/22 219/97/22
f 220/97/22 221/97/17 222/97/17
f 223/97/7 224/97/6 225/97/7
f 226/97/3 227/97/6 228/97/3
f 229/97/6 230/97/7 231/97/6
f 232/97/1 233/97/3 234/97/1
f 235/97/1 236/97/2 237/97/1
f 238/97/10 239/97/9 240/97/9
f 241/97/17 242/97/10 243/97/10
f 244/97/7 245/97/9 246/97/9
f 247/97/15 248/97/18 249/97/18
f 250/97/10 251/97/17 252/97/17
f 253/97/9 254/97/7 255/97/7
f 256/97/2 257/97/1 258/97/2
f 259/97/2 260/97/4 261/97/2
f 262/97/11 263/97/18 264/97/18
f 265/97/11 266/97/8 267/97/8
f 268/97/4 269/97/2 270/97/4
f 271/97/4 272/97/5 273/97/4
f 274/97/18 275/97/11 276/97/11
f 277/97/8 278/97/11 279/97/11
f 280/97/5 281/97/8 282/97/8
f 283/97/5 284/97/4 285/97/5
f 286/97/8 287/97/5 288/97/5
