# SSTK version 0.8.0
# 5
mtllib original-5.mtl
o 3dw.5334cfe15f80099f15ac67104577aee7/Model/mesh1/mesh1-geometry/material_1/component_3#mesh1-geometry
v 0.144440 0.435602 0.017601
v 0.143143 0.435602 0.027452
v 0.143143 0.435602 0.007751
v 0.143143 0.435602 0.027452
v 0.139341 0.435602 0.036631
v 0.139341 0.435602 -0.001429
v 0.143143 0.435602 0.007751
v 0.143143 0.435602 0.027452
v 0.139341 0.435602 -0.001429
v 0.139341 0.435602 0.036631
v 0.133292 0.435602 0.044513
v 0.133292 0.435602 -0.009311
v 0.139341 0.435602 -0.001429
v 0.139341 0.435602 0.036631
v 0.133292 0.435602 -0.009311
v 0.133292 0.435602 -0.009311
v 0.133292 0.435602 0.044513
v 0.125410 0.435602 -0.015359
v 0.125410 0.435602 -0.015359
v 0.116456 0.435602 0.011784
v 0.116231 0.435602 -0.019161
v 0.133292 0.435602 0.044513
v 0.125410 0.435602 0.050561
v 0.125410 0.435602 -0.015359
v 0.116231 0.435602 -0.019161
v 0.109392 0.435602 0.006363
v 0.106380 0.435602 -0.020458
v 0.116456 0.435602 0.011784
v 0.114607 0.435602 0.009375
v 0.116231 0.435602 -0.019161
v 0.117618 0.435602 0.014590
v 0.116456 0.435602 0.011784
v 0.125410 0.435602 -0.015359
v 0.125410 0.435602 0.050561
v 0.116231 0.435602 0.054364
v 0.116456 0.435602 0.023418
v 0.125410 0.435602 0.050561
v 0.118015 0.435602 0.017601
v 0.125410 0.435602 -0.015359
v 0.106380 0.435602 -0.020458
v 0.098154 0.435602 0.009375
v 0.096530 0.435602 -0.019161
v 0.109392 0.435602 0.006363
v 0.106380 0.435602 0.005967
v 0.106380 0.435602 -0.020458
v 0.112198 0.435602 0.007526
v 0.109392 0.435602 0.006363
v 0.116231 0.435602 -0.019161
v 0.114607 0.435602 0.009375
v 0.112198 0.435602 0.007526
v 0.116231 0.435602 -0.019161
v 0.118015 0.435602 0.017601
v 0.117618 0.435602 0.014590
v 0.125410 0.435602 -0.015359
v 0.116231 0.435602 0.054364
v 0.106380 0.435602 0.055660
v 0.106380 0.435602 0.029235
v 0.116456 0.435602 0.023418
v 0.116231 0.435602 0.054364
v 0.114607 0.435602 0.025828
v 0.117618 0.435602 0.020612
v 0.125410 0.435602 0.050561
v 0.116456 0.435602 0.023418
v 0.118015 0.435602 0.017601
v 0.125410 0.435602 0.050561
v 0.117618 0.435602 0.020612
v 0.087351 0.435602 -0.015359
v 0.096530 0.435602 -0.019161
v 0.094747 0.435602 0.017601
v 0.098154 0.435602 0.009375
v 0.096305 0.435602 0.011784
v 0.096530 0.435602 -0.019161
v 0.100563 0.435602 0.007526
v 0.098154 0.435602 0.009375
v 0.106380 0.435602 -0.020458
v 0.106380 0.435602 0.005967
v 0.103370 0.435602 0.006363
v 0.106380 0.435602 -0.020458
v 0.106380 0.435602 0.055660
v 0.096530 0.435602 0.054364
v 0.098154 0.435602 0.025828
v 0.106380 0.435602 0.029235
v 0.106380 0.435602 0.055660
v 0.103370 0.435602 0.028839
v 0.109392 0.435602 0.028839
v 0.116231 0.435602 0.054364
v 0.106380 0.435602 0.029235
v 0.114607 0.435602 0.025828
v 0.116231 0.435602 0.054364
v 0.112198 0.435602 0.027676
v 0.095143 0.435602 0.014590
v 0.094747 0.435602 0.017601
v 0.096530 0.435602 -0.019161
v 0.094747 0.435602 0.017601
v 0.096530 0.435602 0.054364
v 0.087351 0.435602 -0.015359
v 0.096305 0.435602 0.011784
v 0.095143 0.435602 0.014590
v 0.096530 0.435602 -0.019161
v 0.103370 0.435602 0.006363
v 0.100563 0.435602 0.007526
v 0.106380 0.435602 -0.020458
v 0.098154 0.435602 0.025828
v 0.096530 0.435602 0.054364
v 0.096305 0.435602 0.023418
v 0.100563 0.435602 0.027676
v 0.106380 0.435602 0.055660
v 0.098154 0.435602 0.025828
v 0.103370 0.435602 0.028839
v 0.106380 0.435602 0.055660
v 0.100563 0.435602 0.027676
v 0.112198 0.435602 0.027676
v 0.116231 0.435602 0.054364
v 0.109392 0.435602 0.028839
v 0.087351 0.435602 -0.015359
v 0.087351 0.435602 0.050561
v 0.079468 0.435602 -0.009311
v 0.096530 0.435602 0.054364
v 0.087351 0.435602 0.050561
v 0.087351 0.435602 -0.015359
v 0.095143 0.435602 0.020612
v 0.096530 0.435602 0.054364
v 0.094747 0.435602 0.017601
v 0.096305 0.435602 0.023418
v 0.096530 0.435602 0.054364
v 0.095143 0.435602 0.020612
v 0.087351 0.435602 0.050561
v 0.079468 0.435602 0.044513
v 0.079468 0.435602 -0.009311
v 0.079468 0.435602 -0.009311
v 0.079468 0.435602 0.044513
v 0.073420 0.435602 -0.001429
v 0.079468 0.435602 0.044513
v 0.073420 0.435602 0.036631
v 0.073420 0.435602 -0.001429
v 0.073420 0.435602 -0.001429
v 0.073420 0.435602 0.036631
v 0.069618 0.435602 0.007751
v 0.073420 0.435602 0.036631
v 0.069618 0.435602 0.027452
v 0.069618 0.435602 0.007751
v 0.068321 0.435602 0.017601
v 0.069618 0.435602 0.007751
v 0.069618 0.435602 0.027452
v 0.143143 0.435602 0.007751
v 0.143143 0.435602 0.027452
v 0.144440 0.435602 0.017601
v 0.139341 0.435602 -0.001429
v 0.139341 0.435602 0.036631
v 0.143143 0.435602 0.027452
v 0.139341 0.435602 -0.001429
v 0.143143 0.435602 0.027452
v 0.143143 0.435602 0.007751
v 0.133292 0.435602 -0.009311
v 0.133292 0.435602 0.044513
v 0.139341 0.435602 0.036631
v 0.133292 0.435602 -0.009311
v 0.139341 0.435602 0.036631
v 0.139341 0.435602 -0.001429
v 0.125410 0.435602 -0.015359
v 0.133292 0.435602 0.044513
v 0.133292 0.435602 -0.009311
v 0.116231 0.435602 -0.019161
v 0.116456 0.435602 0.011784
v 0.125410 0.435602 -0.015359
v 0.125410 0.435602 -0.015359
v 0.125410 0.435602 0.050561
v 0.133292 0.435602 0.044513
v 0.106380 0.435602 -0.020458
v 0.109392 0.435602 0.006363
v 0.116231 0.435602 -0.019161
v 0.116231 0.435602 -0.019161
v 0.114607 0.435602 0.009375
v 0.116456 0.435602 0.011784
v 0.125410 0.435602 -0.015359
v 0.116456 0.435602 0.011784
v 0.117618 0.435602 0.014590
v 0.116456 0.435602 0.023418
v 0.116231 0.435602 0.054364
v 0.125410 0.435602 0.050561
v 0.125410 0.435602 -0.015359
v 0.118015 0.435602 0.017601
v 0.125410 0.435602 0.050561
v 0.096530 0.435602 -0.019161
v 0.098154 0.435602 0.009375
v 0.106380 0.435602 -0.020458
v 0.106380 0.435602 -0.020458
v 0.106380 0.435602 0.005967
v 0.109392 0.435602 0.006363
v 0.116231 0.435602 -0.019161
v 0.109392 0.435602 0.006363
v 0.112198 0.435602 0.007526
v 0.116231 0.435602 -0.019161
v 0.112198 0.435602 0.007526
v 0.114607 0.435602 0.009375
v 0.125410 0.435602 -0.015359
v 0.117618 0.435602 0.014590
v 0.118015 0.435602 0.017601
v 0.106380 0.435602 0.029235
v 0.106380 0.435602 0.055660
v 0.116231 0.435602 0.054364
v 0.114607 0.435602 0.025828
v 0.116231 0.435602 0.054364
v 0.116456 0.435602 0.023418
v 0.116456 0.435602 0.023418
v 0.125410 0.435602 0.050561
v 0.117618 0.435602 0.020612
v 0.117618 0.435602 0.020612
v 0.125410 0.435602 0.050561
v 0.118015 0.435602 0.017601
v 0.094747 0.435602 0.017601
v 0.096530 0.435602 -0.019161
v 0.087351 0.435602 -0.015359
v 0.096530 0.435602 -0.019161
v 0.096305 0.435602 0.011784
v 0.098154 0.435602 0.009375
v 0.106380 0.435602 -0.020458
v 0.098154 0.435602 0.009375
v 0.100563 0.435602 0.007526
v 0.106380 0.435602 -0.020458
v 0.103370 0.435602 0.006363
v 0.106380 0.435602 0.005967
v 0.098154 0.435602 0.025828
v 0.096530 0.435602 0.054364
v 0.106380 0.435602 0.055660
v 0.103370 0.435602 0.028839
v 0.106380 0.435602 0.055660
v 0.106380 0.435602 0.029235
v 0.106380 0.435602 0.029235
v 0.116231 0.435602 0.054364
v 0.109392 0.435602 0.028839
v 0.112198 0.435602 0.027676
v 0.116231 0.435602 0.054364
v 0.114607 0.435602 0.025828
v 0.096530 0.435602 -0.019161
v 0.094747 0.435602 0.017601
v 0.095143 0.435602 0.014590
v 0.087351 0.435602 -0.015359
v 0.096530 0.435602 0.054364
v 0.094747 0.435602 0.017601
v 0.096530 0.435602 -0.019161
v 0.095143 0.435602 0.014590
v 0.096305 0.435602 0.011784
v 0.106380 0.435602 -0.020458
v 0.100563 0.435602 0.007526
v 0.103370 0.435602 0.006363
v 0.096305 0.435602 0.023418
v 0.096530 0.435602 0.054364
v 0.098154 0.435602 0.025828
v 0.098154 0.435602 0.025828
v 0.106380 0.435602 0.055660
v 0.100563 0.435602 0.027676
v 0.100563 0.435602 0.027676
v 0.106380 0.435602 0.055660
v 0.103370 0.435602 0.028839
v 0.109392 0.435602 0.028839
v 0.116231 0.435602 0.054364
v 0.112198 0.435602 0.027676
v 0.079468 0.435602 -0.009311
v 0.087351 0.435602 0.050561
v 0.087351 0.435602 -0.015359
v 0.087351 0.435602 -0.015359
v 0.087351 0.435602 0.050561
v 0.096530 0.435602 0.054364
v 0.094747 0.435602 0.017601
v 0.096530 0.435602 0.054364
v 0.095143 0.435602 0.020612
v 0.095143 0.435602 0.020612
v 0.096530 0.435602 0.054364
v 0.096305 0.435602 0.023418
v 0.079468 0.435602 -0.009311
v 0.079468 0.435602 0.044513
v 0.087351 0.435602 0.050561
v 0.073420 0.435602 -0.001429
v 0.079468 0.435602 0.044513
v 0.079468 0.435602 -0.009311
v 0.073420 0.435602 -0.001429
v 0.073420 0.435602 0.036631
v 0.079468 0.435602 0.044513
v 0.069618 0.435602 0.007751
v 0.073420 0.435602 0.036631
v 0.073420 0.435602 -0.001429
v 0.069618 0.435602 0.007751
v 0.069618 0.435602 0.027452
v 0.073420 0.435602 0.036631
v 0.069618 0.435602 0.027452
v 0.069618 0.435602 0.007751
v 0.068321 0.435602 0.017601
vt 0 0
vt 0.3856459856033325 0.7504510283470154
vt 0.3856459856033325 0.7629370093345642
vt 0.38498398661613464 0.7566940188407898
vt 0.3875879943370819 0.7446330189704895
vt 0.3875879943370819 0.7687550187110901
vt 0.39067700505256653 0.7396379709243774
vt 0.39067700505256653 0.7737500071525574
vt 0.3947030007839203 0.7358049750328064
vt 0.3993920087814331 0.733394980430603
vt 0.399277001619339 0.7530069947242737
vt 0.3947030007839203 0.7775840163230896
vt 0.4044229984283447 0.7325729727745056
vt 0.40288498997688293 0.7495719790458679
vt 0.40022099018096924 0.751479983329773
vt 0.39868301153182983 0.7547860145568848
vt 0.399277001619339 0.7603809833526611
vt 0.3993920087814331 0.7799929976463318
vt 0.39848101139068604 0.7566940188407898
vt 0.40945398807525635 0.733394980430603
vt 0.4086250066757202 0.751479983329773
vt 0.4044229984283447 0.7493209838867188
vt 0.4014520049095154 0.7503089904785156
vt 0.4044229984283447 0.7640669941902161
vt 0.4044229984283447 0.7808150053024292
vt 0.40022099018096924 0.7619079947471619
vt 0.39868301153182983 0.7586020231246948
vt 0.4103649854660034 0.7566940188407898
vt 0.41414299607276917 0.7358049750328064
vt 0.40956899523735046 0.7530069947242737
vt 0.4073939919471741 0.7503089904785156
vt 0.4059610068798065 0.7495719790458679
vt 0.4086250066757202 0.7619079947471619
vt 0.40945398807525635 0.7799929976463318
vt 0.4059610068798065 0.7638159990310669
vt 0.40288498997688293 0.7638159990310669
vt 0.4014520049095154 0.7630800008773804
vt 0.4101629853248596 0.7547860145568848
vt 0.40956899523735046 0.7603809833526611
vt 0.4073939919471741 0.7630800008773804
vt 0.4181689918041229 0.7396379709243774
vt 0.41414299607276917 0.7775840163230896
vt 0.4101629853248596 0.7586020231246948
vt 0.4181689918041229 0.7737500071525574
vt 0.42125800251960754 0.7446330189704895
vt 0.42125800251960754 0.7687550187110901
vt 0.42320001125335693 0.7504510283470154
vt 0.42320001125335693 0.7629370093345642
vt 0.4238620102405548 0.7566940188407898
vn 0 -1 0
vn 0 1 0
usemtl material_0_0
f 1/1/1 2/1/1 3/1/1
f 4/1/1 5/1/1 6/1/1
f 7/1/1 8/1/1 9/1/1
f 10/1/1 11/1/1 12/1/1
f 13/1/1 14/1/1 15/1/1
f 16/1/1 17/1/1 18/1/1
f 19/1/1 20/1/1 21/1/1
f 22/1/1 23/1/1 24/1/1
f 25/1/1 26/1/1 27/1/1
f 28/1/1 29/1/1 30/1/1
f 31/1/1 32/1/1 33/1/1
f 34/1/1 35/1/1 36/1/1
f 37/1/1 38/1/1 39/1/1
f 40/1/1 41/1/1 42/1/1
f 43/1/1 44/1/1 45/1/1
f 46/1/1 47/1/1 48/1/1
f 49/1/1 50/1/1 51/1/1
f 52/1/1 53/1/1 54/1/1
f 55/1/1 56/1/1 57/1/1
f 58/1/1 59/1/1 60/1/1
f 61/1/1 62/1/1 63/1/1
f 64/1/1 65/1/1 66/1/1
f 67/1/1 68/1/1 69/1/1
f 70/1/1 71/1/1 72/1/1
f 73/1/1 74/1/1 75/1/1
f 76/1/1 77/1/1 78/1/1
f 79/1/1 80/1/1 81/1/1
f 82/1/1 83/1/1 84/1/1
f 85/1/1 86/1/1 87/1/1
f 88/1/1 89/1/1 90/1/1
f 91/1/1 92/1/1 93/1/1
f 94/1/1 95/1/1 96/1/1
f 97/1/1 98/1/1 99/1/1
f 100/1/1 101/1/1 102/1/1
f 103/1/1 104/1/1 105/1/1
f 106/1/1 107/1/1 108/1/1
f 109/1/1 110/1/1 111/1/1
f 112/1/1 113/1/1 114/1/1
f 115/1/1 116/1/1 117/1/1
f 118/1/1 119/1/1 120/1/1
f 121/1/1 122/1/1 123/1/1
f 124/1/1 125/1/1 126/1/1
f 127/1/1 128/1/1 129/1/1
f 130/1/1 131/1/1 132/1/1
f 133/1/1 134/1/1 135/1/1
f 136/1/1 137/1/1 138/1/1
f 139/1/1 140/1/1 141/1/1
f 142/1/1 143/1/1 144/1/1
usemtl material_1_0
f 145/2/2 146/3/2 147/4/2
f 148/5/2 149/6/2 150/3/2
f 151/5/2 152/3/2 153/2/2
f 154/7/2 155/8/2 156/6/2
f 157/7/2 158/6/2 159/5/2
f 160/9/2 161/8/2 162/7/2
f 163/10/2 164/11/2 165/9/2
f 166/9/2 167/12/2 168/8/2
f 169/13/2 170/14/2 171/10/2
f 172/10/2 173/15/2 174/11/2
f 175/9/2 176/11/2 177/16/2
f 178/17/2 179/18/2 180/12/2
f 181/9/2 182/19/2 183/12/2
f 184/20/2 185/21/2 186/13/2
f 187/13/2 188/22/2 189/14/2
f 190/10/2 191/14/2 192/23/2
f 193/10/2 194/23/2 195/15/2
f 196/9/2 197/16/2 198/19/2
f 199/24/2 200/25/2 201/18/2
f 202/26/2 203/18/2 204/17/2
f 205/17/2 206/12/2 207/27/2
f 208/27/2 209/12/2 210/19/2
f 211/28/2 212/20/2 213/29/2
f 214/20/2 215/30/2 216/21/2
f 217/13/2 218/21/2 219/31/2
f 220/13/2 221/32/2 222/22/2
f 223/33/2 224/34/2 225/25/2
f 226/35/2 227/25/2 228/24/2
f 229/24/2 230/18/2 231/36/2
f 232/37/2 233/18/2 234/26/2
f 235/20/2 236/28/2 237/38/2
f 238/29/2 239/34/2 240/28/2
f 241/20/2 242/38/2 243/30/2
f 244/13/2 245/31/2 246/32/2
f 247/39/2 248/34/2 249/33/2
f 250/33/2 251/25/2 252/40/2
f 253/40/2 254/25/2 255/35/2
f 256/36/2 257/18/2 258/37/2
f 259/41/2 260/42/2 261/29/2
f 262/29/2 263/42/2 264/34/2
f 265/28/2 266/34/2 267/43/2
f 268/43/2 269/34/2 270/39/2
f 271/41/2 272/44/2 273/42/2
f 274/45/2 275/44/2 276/41/2
f 277/45/2 278/46/2 279/44/2
f 280/47/2 281/46/2 282/45/2
f 283/47/2 284/48/2 285/46/2
f 286/48/2 287/47/2 288/49/2
