# SSTK version 0.8.0
# 14
mtllib original-14.mtl
o 3dw.5334cfe15f80099f15ac67104577aee7/Model/mesh1/mesh1-geometry/material_4/component_1#mesh1-geometry
v 0.699956 -0.259213 -0.179182
v 0.526839 -0.259213 -0.179182
v 0.698962 -0.262135 -0.179182
v 0.698962 -0.262135 -0.179182
v 0.527832 -0.262135 -0.179182
v 0.697595 -0.264902 -0.179182
v 0.700559 -0.256187 -0.179182
v 0.526236 -0.256187 -0.179182
v 0.699956 -0.259213 -0.179182
v 0.697595 -0.264902 -0.179182
v 0.529199 -0.264902 -0.179182
v 0.695878 -0.267466 -0.179182
v 0.526839 -0.259213 -0.179182
v 0.527832 -0.262135 -0.179182
v 0.698962 -0.262135 -0.179182
v 0.526236 -0.256187 -0.179182
v 0.526839 -0.259213 -0.179182
v 0.699956 -0.259213 -0.179182
v 0.527832 -0.262135 -0.179182
v 0.529199 -0.264902 -0.179182
v 0.697595 -0.264902 -0.179182
v 0.526034 -0.253107 -0.179182
v 0.526236 -0.256187 -0.179182
v 0.700559 -0.256187 -0.179182
v 0.700761 -0.253107 -0.179182
v 0.526034 -0.253107 -0.179182
v 0.700559 -0.256187 -0.179182
v 0.695878 -0.267466 -0.179182
v 0.530916 -0.267466 -0.179182
v 0.693841 -0.269784 -0.179182
v 0.529199 -0.264902 -0.179182
v 0.530916 -0.267466 -0.179182
v 0.695878 -0.267466 -0.179182
v 0.526236 -0.250028 -0.179182
v 0.526034 -0.253107 -0.179182
v 0.700761 -0.253107 -0.179182
v 0.700559 -0.250028 -0.179182
v 0.526236 -0.250028 -0.179182
v 0.700761 -0.253107 -0.179182
v 0.532954 -0.269784 -0.179182
v 0.693841 -0.269784 -0.179182
v 0.530916 -0.267466 -0.179182
v 0.526839 -0.247001 -0.179182
v 0.526236 -0.250028 -0.179182
v 0.700559 -0.250028 -0.179182
v 0.699956 -0.247001 -0.179182
v 0.526839 -0.247001 -0.179182
v 0.700559 -0.250028 -0.179182
v 0.527832 -0.244080 -0.179182
v 0.526839 -0.247001 -0.179182
v 0.699956 -0.247001 -0.179182
v 0.698962 -0.244080 -0.179182
v 0.527832 -0.244080 -0.179182
v 0.699956 -0.247001 -0.179182
v 0.529199 -0.241313 -0.179182
v 0.527832 -0.244080 -0.179182
v 0.698962 -0.244080 -0.179182
v 0.697595 -0.241313 -0.179182
v 0.529199 -0.241313 -0.179182
v 0.698962 -0.244080 -0.179182
v 0.530916 -0.238749 -0.179182
v 0.529199 -0.241313 -0.179182
v 0.697595 -0.241313 -0.179182
v 0.695878 -0.238749 -0.179182
v 0.530916 -0.238749 -0.179182
v 0.697595 -0.241313 -0.179182
v 0.532954 -0.236431 -0.179182
v 0.530916 -0.238749 -0.179182
v 0.695878 -0.238749 -0.179182
v 0.693841 -0.236431 -0.179182
v 0.532954 -0.236431 -0.179182
v 0.695878 -0.238749 -0.179182
v 0.698962 -0.262135 -0.179182
v 0.526839 -0.259213 -0.179182
v 0.699956 -0.259213 -0.179182
v 0.697595 -0.264902 -0.179182
v 0.527832 -0.262135 -0.179182
v 0.698962 -0.262135 -0.179182
v 0.699956 -0.259213 -0.179182
v 0.526236 -0.256187 -0.179182
v 0.700559 -0.256187 -0.179182
v 0.695878 -0.267466 -0.179182
v 0.529199 -0.264902 -0.179182
v 0.697595 -0.264902 -0.179182
v 0.698962 -0.262135 -0.179182
v 0.527832 -0.262135 -0.179182
v 0.526839 -0.259213 -0.179182
v 0.699956 -0.259213 -0.179182
v 0.526839 -0.259213 -0.179182
v 0.526236 -0.256187 -0.179182
v 0.697595 -0.264902 -0.179182
v 0.529199 -0.264902 -0.179182
v 0.527832 -0.262135 -0.179182
v 0.700559 -0.256187 -0.179182
v 0.526236 -0.256187 -0.179182
v 0.526034 -0.253107 -0.179182
v 0.700559 -0.256187 -0.179182
v 0.526034 -0.253107 -0.179182
v 0.700761 -0.253107 -0.179182
v 0.693841 -0.269784 -0.179182
v 0.530916 -0.267466 -0.179182
v 0.695878 -0.267466 -0.179182
v 0.695878 -0.267466 -0.179182
v 0.530916 -0.267466 -0.179182
v 0.529199 -0.264902 -0.179182
v 0.700761 -0.253107 -0.179182
v 0.526034 -0.253107 -0.179182
v 0.526236 -0.250028 -0.179182
v 0.700761 -0.253107 -0.179182
v 0.526236 -0.250028 -0.179182
v 0.700559 -0.250028 -0.179182
v 0.530916 -0.267466 -0.179182
v 0.693841 -0.269784 -0.179182
v 0.532954 -0.269784 -0.179182
v 0.700559 -0.250028 -0.179182
v 0.526236 -0.250028 -0.179182
v 0.526839 -0.247001 -0.179182
v 0.700559 -0.250028 -0.179182
v 0.526839 -0.247001 -0.179182
v 0.699956 -0.247001 -0.179182
v 0.699956 -0.247001 -0.179182
v 0.526839 -0.247001 -0.179182
v 0.527832 -0.244080 -0.179182
v 0.699956 -0.247001 -0.179182
v 0.527832 -0.244080 -0.179182
v 0.698962 -0.244080 -0.179182
v 0.698962 -0.244080 -0.179182
v 0.527832 -0.244080 -0.179182
v 0.529199 -0.241313 -0.179182
v 0.698962 -0.244080 -0.179182
v 0.529199 -0.241313 -0.179182
v 0.697595 -0.241313 -0.179182
v 0.697595 -0.241313 -0.179182
v 0.529199 -0.241313 -0.179182
v 0.530916 -0.238749 -0.179182
v 0.697595 -0.241313 -0.179182
v 0.530916 -0.238749 -0.179182
v 0.695878 -0.238749 -0.179182
v 0.695878 -0.238749 -0.179182
v 0.530916 -0.238749 -0.179182
v 0.532954 -0.236431 -0.179182
v 0.695878 -0.238749 -0.179182
v 0.532954 -0.236431 -0.179182
v 0.693841 -0.236431 -0.179182
vt -0.9076269865036011 0.03325600177049637
vt -0.8830029964447021 0.03325600177049637
vt -0.9074850082397461 0.0327019989490509
vt -0.8831449747085571 0.0327019989490509
vt -0.9072909951210022 0.03217799961566925
vt -0.9077119827270508 0.03382999822497368
vt -0.8829169869422913 0.03382999822497368
vt -0.883338987827301 0.03217799961566925
vt -0.9070469737052917 0.03169099986553192
vt -0.8828889727592468 0.03441400080919266
vt -0.9077410101890564 0.03441400080919266
vt -0.8835830092430115 0.03169099986553192
vt -0.9067569971084595 0.031252000480890274
vt -0.8829169869422913 0.03499799966812134
vt -0.9077119827270508 0.03499799966812134
vt -0.8838729858398438 0.031252000480890274
vt -0.8830029964447021 0.03557199984788895
vt -0.9076269865036011 0.03557199984788895
vt -0.8831449747085571 0.03612599894404411
vt -0.9074850082397461 0.03612599894404411
vt -0.883338987827301 0.03665100038051605
vt -0.9072909951210022 0.03665100038051605
vt -0.8835830092430115 0.037137001752853394
vt -0.9070469737052917 0.037137001752853394
vt -0.8838729858398438 0.03757699951529503
vt -0.9067569971084595 0.03757699951529503
vt 0.0165839996188879 0.5119969844818115
vt 0.035888999700546265 0.5122939944267273
vt 0.016472000628709793 0.5122939944267273
vt 0.01673699915409088 0.5117149949073792
vt 0.03577800095081329 0.5119969844818115
vt 0.03595700114965439 0.5126029849052429
vt 0.01640399917960167 0.5126029849052429
vt 0.01692900061607361 0.5114529728889465
vt 0.035624001175165176 0.5117149949073792
vt 0.03598000109195709 0.5129169821739197
vt 0.016381999477744102 0.5129169821739197
vt 0.01715799979865551 0.5112169981002808
vt 0.03543199971318245 0.5114529728889465
vt 0.03595700114965439 0.51323002576828
vt 0.01640399917960167 0.51323002576828
vt 0.0352029986679554 0.5112169981002808
vt 0.035888999700546265 0.5135390162467957
vt 0.016472000628709793 0.5135390162467957
vt 0.03577800095081329 0.5138369798660278
vt 0.0165839996188879 0.5138369798660278
vt 0.035624001175165176 0.514119029045105
vt 0.01673699915409088 0.514119029045105
vt 0.03543199971318245 0.5143799781799316
vt 0.01692900061607361 0.5143799781799316
vt 0.0352029986679554 0.5146160125732422
vt 0.01715799979865551 0.5146160125732422
vn 0 0 1
vn 0 0 -1
usemtl material_0_0
f 1/1/1 2/2/1 3/3/1
f 4/3/1 5/4/1 6/5/1
f 7/6/1 8/7/1 9/1/1
f 10/5/1 11/8/1 12/9/1
f 13/2/1 14/4/1 15/3/1
f 16/7/1 17/2/1 18/1/1
f 19/4/1 20/8/1 21/5/1
f 22/10/1 23/7/1 24/6/1
f 25/11/1 26/10/1 27/6/1
f 28/9/1 29/12/1 30/13/1
f 31/8/1 32/12/1 33/9/1
f 34/14/1 35/10/1 36/11/1
f 37/15/1 38/14/1 39/11/1
f 40/16/1 41/13/1 42/12/1
f 43/17/1 44/14/1 45/15/1
f 46/18/1 47/17/1 48/15/1
f 49/19/1 50/17/1 51/18/1
f 52/20/1 53/19/1 54/18/1
f 55/21/1 56/19/1 57/20/1
f 58/22/1 59/21/1 60/20/1
f 61/23/1 62/21/1 63/22/1
f 64/24/1 65/23/1 66/22/1
f 67/25/1 68/23/1 69/24/1
f 70/26/1 71/25/1 72/24/1
usemtl material_1_0
f 73/27/2 74/28/2 75/29/2
f 76/30/2 77/31/2 78/27/2
f 79/29/2 80/32/2 81/33/2
f 82/34/2 83/35/2 84/30/2
f 85/27/2 86/31/2 87/28/2
f 88/29/2 89/28/2 90/32/2
f 91/30/2 92/35/2 93/31/2
f 94/33/2 95/32/2 96/36/2
f 97/33/2 98/36/2 99/37/2
f 100/38/2 101/39/2 102/34/2
f 103/34/2 104/39/2 105/35/2
f 106/37/2 107/36/2 108/40/2
f 109/37/2 110/40/2 111/41/2
f 112/39/2 113/38/2 114/42/2
f 115/41/2 116/40/2 117/43/2
f 118/41/2 119/43/2 120/44/2
f 121/44/2 122/43/2 123/45/2
f 124/44/2 125/45/2 126/46/2
f 127/46/2 128/45/2 129/47/2
f 130/46/2 131/47/2 132/48/2
f 133/48/2 134/47/2 135/49/2
f 136/48/2 137/49/2 138/50/2
f 139/50/2 140/49/2 141/51/2
f 142/50/2 143/51/2 144/52/2
