# SSTK version 0.8.0
# 52
mtllib original-52.mtl
o 3dw.5334cfe15f80099f15ac67104577aee7/Model/mesh1/mesh1-geometry/material_17#mesh1-geometry
v -0.743142 -0.050026 -0.193022
v -0.734187 -0.048847 -0.193022
v -0.752097 -0.048847 -0.193022
v -0.760441 -0.045390 -0.193022
v -0.752097 -0.048847 -0.193022
v -0.734187 -0.048847 -0.193022
v -0.767607 -0.039892 -0.193022
v -0.760441 -0.045390 -0.193022
v -0.725842 -0.045390 -0.193022
v -0.773106 -0.032726 -0.193022
v -0.767607 -0.039892 -0.193022
v -0.718676 -0.039892 -0.193022
v -0.776562 -0.024381 -0.193022
v -0.773106 -0.032726 -0.193022
v -0.713178 -0.032726 -0.193022
v -0.777741 -0.015426 -0.193022
v -0.776562 -0.024381 -0.193022
v -0.709721 -0.024381 -0.193022
v -0.776562 -0.006471 -0.193022
v -0.777741 -0.015426 -0.193022
v -0.708542 -0.015426 -0.193022
v -0.773106 0.001873 -0.193022
v -0.776562 -0.006471 -0.193022
v -0.709721 -0.006471 -0.193022
v -0.767607 0.009039 -0.193022
v -0.773106 0.001873 -0.193022
v -0.713178 0.001873 -0.193022
v -0.760441 0.014538 -0.193022
v -0.767607 0.009039 -0.193022
v -0.718676 0.009039 -0.193022
v -0.752097 0.017994 -0.193022
v -0.760441 0.014538 -0.193022
v -0.725842 0.014538 -0.193022
v -0.725842 -0.045390 -0.193022
v -0.760441 -0.045390 -0.193022
v -0.734187 -0.048847 -0.193022
v -0.718676 -0.039892 -0.193022
v -0.767607 -0.039892 -0.193022
v -0.725842 -0.045390 -0.193022
v -0.713178 -0.032726 -0.193022
v -0.773106 -0.032726 -0.193022
v -0.718676 -0.039892 -0.193022
v -0.709721 -0.024381 -0.193022
v -0.776562 -0.024381 -0.193022
v -0.713178 -0.032726 -0.193022
v -0.708542 -0.015426 -0.193022
v -0.777741 -0.015426 -0.193022
v -0.709721 -0.024381 -0.193022
v -0.709721 -0.006471 -0.193022
v -0.776562 -0.006471 -0.193022
v -0.708542 -0.015426 -0.193022
v -0.713178 0.001873 -0.193022
v -0.773106 0.001873 -0.193022
v -0.709721 -0.006471 -0.193022
v -0.718676 0.009039 -0.193022
v -0.767607 0.009039 -0.193022
v -0.713178 0.001873 -0.193022
v -0.725842 0.014538 -0.193022
v -0.760441 0.014538 -0.193022
v -0.718676 0.009039 -0.193022
v -0.743142 0.019173 -0.193022
v -0.752097 0.017994 -0.193022
v -0.734187 0.017994 -0.193022
v -0.734187 0.017994 -0.193022
v -0.752097 0.017994 -0.193022
v -0.725842 0.014538 -0.193022
v -0.752097 -0.048847 -0.193022
v -0.734187 -0.048847 -0.193022
v -0.743142 -0.050026 -0.193022
v -0.734187 -0.048847 -0.193022
v -0.752097 -0.048847 -0.193022
v -0.760441 -0.045390 -0.193022
v -0.725842 -0.045390 -0.193022
v -0.760441 -0.045390 -0.193022
v -0.767607 -0.039892 -0.193022
v -0.718676 -0.039892 -0.193022
v -0.767607 -0.039892 -0.193022
v -0.773106 -0.032726 -0.193022
v -0.713178 -0.032726 -0.193022
v -0.773106 -0.032726 -0.193022
v -0.776562 -0.024381 -0.193022
v -0.709721 -0.024381 -0.193022
v -0.776562 -0.024381 -0.193022
v -0.777741 -0.015426 -0.193022
v -0.708542 -0.015426 -0.193022
v -0.777741 -0.015426 -0.193022
v -0.776562 -0.006471 -0.193022
v -0.709721 -0.006471 -0.193022
v -0.776562 -0.006471 -0.193022
v -0.773106 0.001873 -0.193022
v -0.713178 0.001873 -0.193022
v -0.773106 0.001873 -0.193022
v -0.767607 0.009039 -0.193022
v -0.718676 0.009039 -0.193022
v -0.767607 0.009039 -0.193022
v -0.760441 0.014538 -0.193022
v -0.725842 0.014538 -0.193022
v -0.760441 0.014538 -0.193022
v -0.752097 0.017994 -0.193022
v -0.734187 -0.048847 -0.193022
v -0.760441 -0.045390 -0.193022
v -0.725842 -0.045390 -0.193022
v -0.725842 -0.045390 -0.193022
v -0.767607 -0.039892 -0.193022
v -0.718676 -0.039892 -0.193022
v -0.718676 -0.039892 -0.193022
v -0.773106 -0.032726 -0.193022
v -0.713178 -0.032726 -0.193022
v -0.713178 -0.032726 -0.193022
v -0.776562 -0.024381 -0.193022
v -0.709721 -0.024381 -0.193022
v -0.709721 -0.024381 -0.193022
v -0.777741 -0.015426 -0.193022
v -0.708542 -0.015426 -0.193022
v -0.708542 -0.015426 -0.193022
v -0.776562 -0.006471 -0.193022
v -0.709721 -0.006471 -0.193022
v -0.709721 -0.006471 -0.193022
v -0.773106 0.001873 -0.193022
v -0.713178 0.001873 -0.193022
v -0.713178 0.001873 -0.193022
v -0.767607 0.009039 -0.193022
v -0.718676 0.009039 -0.193022
v -0.718676 0.009039 -0.193022
v -0.760441 0.014538 -0.193022
v -0.725842 0.014538 -0.193022
v -0.734187 0.017994 -0.193022
v -0.752097 0.017994 -0.193022
v -0.743142 0.019173 -0.193022
v -0.725842 0.014538 -0.193022
v -0.752097 0.017994 -0.193022
v -0.734187 0.017994 -0.193022
vt -0.7023670077323914 0.07292799651622772
vt -0.7036409974098206 0.07315199822187424
vt -0.7010930180549622 0.07315199822187424
vt -0.6999059915542603 0.0738070011138916
vt -0.6988869905471802 0.07485000044107437
vt -0.7048280239105225 0.0738070011138916
vt -0.698104977607727 0.07620900124311447
vt -0.7058470249176025 0.07485000044107437
vt -0.697613000869751 0.07779199630022049
vt -0.7066289782524109 0.07620900124311447
vt -0.6974459886550903 0.07948999851942062
vt -0.7071210145950317 0.07779199630022049
vt -0.697613000869751 0.08118800073862076
vt -0.7072880268096924 0.07948999851942062
vt -0.698104977607727 0.08277100324630737
vt -0.7071210145950317 0.08118800073862076
vt -0.6988869905471802 0.08412999659776688
vt -0.7066289782524109 0.08277100324630737
vt -0.6999059915542603 0.08517300337553024
vt -0.7058470249176025 0.08412999659776688
vt -0.7010930180549622 0.08582799881696701
vt -0.7048280239105225 0.08517300337553024
vt -0.7023670077323914 0.08605200052261353
vt -0.7036409974098206 0.08582799881696701
vt 0.6294100284576416 0.017037000507116318
vt 0.3705900013446808 0.017037000507116318
vt 0.5 0
vt 0.75 0.06698700040578842
vt 0.25 0.06698700040578842
vt 0.8535529971122742 0.14644700288772583
vt 0.14644700288772583 0.14644700288772583
vt 0.9330130219459534 0.25
vt 0.06698700040578842 0.25
vt 0.9829630255699158 0.3705900013446808
vt 0.017037000507116318 0.3705900013446808
vt 1 0.5
vt 0 0.5
vt 0.9829630255699158 0.6294100284576416
vt 0.017037000507116318 0.6294100284576416
vt 0.9330130219459534 0.75
vt 0.06698700040578842 0.75
vt 0.8535529971122742 0.8535529971122742
vt 0.14644700288772583 0.8535529971122742
vt 0.75 0.9330130219459534
vt 0.25 0.9330130219459534
vt 0.6294100284576416 0.9829630255699158
vt 0.3705900013446808 0.9829630255699158
vt 0.5 1
vn 0 0 1
vn 0 0 -1
usemtl material_0_0
f 1/1/1 2/2/1 3/3/1
f 4/4/1 5/3/1 6/2/1
f 7/5/1 8/4/1 9/6/1
f 10/7/1 11/5/1 12/8/1
f 13/9/1 14/7/1 15/10/1
f 16/11/1 17/9/1 18/12/1
f 19/13/1 20/11/1 21/14/1
f 22/15/1 23/13/1 24/16/1
f 25/17/1 26/15/1 27/18/1
f 28/19/1 29/17/1 30/20/1
f 31/21/1 32/19/1 33/22/1
f 34/6/1 35/4/1 36/2/1
f 37/8/1 38/5/1 39/6/1
f 40/10/1 41/7/1 42/8/1
f 43/12/1 44/9/1 45/10/1
f 46/14/1 47/11/1 48/12/1
f 49/16/1 50/13/1 51/14/1
f 52/18/1 53/15/1 54/16/1
f 55/20/1 56/17/1 57/18/1
f 58/22/1 59/19/1 60/20/1
f 61/23/1 62/21/1 63/24/1
f 64/24/1 65/21/1 66/22/1
usemtl material_1_0
f 67/25/2 68/26/2 69/27/2
f 70/26/2 71/25/2 72/28/2
f 73/29/2 74/28/2 75/30/2
f 76/31/2 77/30/2 78/32/2
f 79/33/2 80/32/2 81/34/2
f 82/35/2 83/34/2 84/36/2
f 85/37/2 86/36/2 87/38/2
f 88/39/2 89/38/2 90/40/2
f 91/41/2 92/40/2 93/42/2
f 94/43/2 95/42/2 96/44/2
f 97/45/2 98/44/2 99/46/2
f 100/26/2 101/28/2 102/29/2
f 103/29/2 104/30/2 105/31/2
f 106/31/2 107/32/2 108/33/2
f 109/33/2 110/34/2 111/35/2
f 112/35/2 113/36/2 114/37/2
f 115/37/2 116/38/2 117/39/2
f 118/39/2 119/40/2 120/41/2
f 121/41/2 122/42/2 123/43/2
f 124/43/2 125/44/2 126/45/2
f 127/47/2 128/46/2 129/48/2
f 130/45/2 131/46/2 132/47/2
