# SSTK version 0.8.0
# 51
mtllib original-51.mtl
o RT_11_TR1/RT_11_TR/mesh40/mesh40-geometry#mesh40-geometry
v 0.701405 0.262912 0.349585
v 0.700818 0.353237 0.351443
v 0.700818 0.262912 0.351443
v 0.701405 0.353823 0.349585
v 0.699272 0.262912 0.352627
v 0.701405 0.262912 0.346596
v 0.618192 0.353237 0.351443
v 0.699272 0.351690 0.352627
v 0.701405 0.353823 0.346596
v 0.617605 0.353823 0.349585
v 0.619738 0.351690 0.352627
v 0.697326 0.262912 0.352709
v 0.693589 0.262912 0.334760
v 0.617605 0.353823 0.346596
v 0.613519 0.353823 0.349585
v 0.613519 0.351690 0.352627
v 0.621684 0.349744 0.352709
v 0.697326 0.349744 0.352709
v 0.693589 0.346008 0.334760
v 0.625421 0.346008 0.334760
v 0.613519 0.353823 0.346596
v 0.613519 0.353237 0.351443
v 0.613519 0.349744 0.352709
v 0.696614 0.349033 0.354439
v 0.693589 0.262912 0.333207
v 0.613519 0.346008 0.334760
v 0.622396 0.349033 0.354439
v 0.696614 0.262912 0.354439
v 0.693589 0.346008 0.333207
v 0.625421 0.346008 0.333207
v 0.613519 0.346008 0.333207
v 0.613519 0.349033 0.354439
v 0.695284 0.262912 0.355756
v 0.623726 0.347702 0.355756
v 0.618672 0.271091 0.333207
v 0.613519 0.347702 0.355756
v 0.695284 0.347702 0.355756
v 0.618672 0.262912 0.333207
v 0.693545 0.262912 0.356450
v 0.625465 0.345964 0.356450
v 0.613519 0.345964 0.356450
v 0.618672 0.262912 0.338147
v 0.613519 0.271091 0.333207
v 0.693545 0.345964 0.356450
v 0.618672 0.271091 0.338147
v 0.613519 0.271091 0.338147
v 0.687529 0.262912 0.357436
v 0.631481 0.339948 0.357436
v 0.613519 0.339948 0.357436
v 0.687529 0.339948 0.357436
v 0.613519 0.262912 0.338147
v 0.683803 0.262912 0.357436
v 0.635207 0.336221 0.357436
v 0.613519 0.336221 0.357436
v 0.683803 0.336221 0.357436
v 0.682586 0.262912 0.357762
v 0.636423 0.335005 0.357762
v 0.613519 0.335005 0.357762
v 0.682586 0.335005 0.357762
v 0.681696 0.334115 0.358652
v 0.637314 0.334115 0.358652
v 0.613519 0.334115 0.358652
v 0.681696 0.262912 0.358652
v 0.681370 0.333789 0.359869
v 0.637640 0.333789 0.359869
v 0.681370 0.262912 0.359869
v 0.613519 0.333789 0.359869
v 0.681370 0.333789 0.361573
v 0.637640 0.333789 0.361573
v 0.681370 0.262912 0.361573
v 0.613519 0.333789 0.361573
v 0.637640 0.262912 0.361573
v 0.637640 0.290059 0.361573
v 0.613519 0.290059 0.361573
v 0.637640 0.290059 0.357436
v 0.637640 0.262912 0.357436
v 0.613519 0.290059 0.357436
v 0.632026 0.262912 0.357436
v 0.613519 0.284445 0.357436
v 0.632026 0.284445 0.357436
v 0.629582 0.262912 0.356899
v 0.613519 0.282001 0.356899
v 0.629582 0.282001 0.356899
v 0.627588 0.262912 0.355387
v 0.613519 0.280007 0.355387
v 0.627588 0.280007 0.355387
v 0.626412 0.278831 0.353178
v 0.626412 0.262912 0.353178
v 0.613519 0.278831 0.353178
v 0.626412 0.278831 0.351912
v 0.626412 0.262912 0.351912
v 0.613519 0.278831 0.351912
v 0.619617 0.262912 0.350091
v 0.620563 0.272981 0.350345
v 0.613519 0.272036 0.350091
v 0.619617 0.272036 0.350091
v 0.618925 0.271344 0.349399
v 0.613519 0.271344 0.349399
v 0.618925 0.262912 0.349399
v 0.618672 0.271091 0.348454
v 0.618672 0.262912 0.348454
v 0.613519 0.271091 0.348454
v 0.618672 0.271091 0.345238
v 0.618672 0.262912 0.345238
v 0.613519 0.271091 0.345238
v 0.613519 0.262912 0.345238
vt 1.828333 0.431693
vt 1.82801 0.481448
vt 1.82801 0.431693
vt 1.828333 0.481771
vt 1.827158 0.431693
vt 1.782495 0.481448
vt 1.827158 0.480596
vt 1.782172 0.481771
vt 1.783347 0.480596
vt 1.826086 0.431693
vt 1.824028 0.431693
vt 1.784419 0.479524
vt 1.826086 0.479524
vt 1.824028 0.477466
vt 1.786477 0.477466
vt 1.825694 0.479132
vt 1.784811 0.479132
vt 1.825694 0.431693
vt 1.824961 0.431693
vt 1.785544 0.478399
vt 1.78276 0.436198
vt 1.824961 0.478399
vt 1.78276 0.431693
vt 1.779921 0.477466
vt 1.824004 0.431693
vt 1.786502 0.477442
vt 1.779921 0.436198
vt 1.824004 0.477442
vt 1.82069 0.431693
vt 1.789816 0.474128
vt 1.82069 0.474128
vt 1.779921 0.431693
vt 1.818637 0.431693
vt 1.791868 0.472075
vt 1.818637 0.472075
vt 1.817967 0.431693
vt 1.792538 0.471405
vt 1.817967 0.471405
vt 1.817476 0.470914
vt 1.793029 0.470914
vt 1.817476 0.431693
vt 1.817297 0.470735
vt 1.793208 0.470735
vt 1.817297 0.431693
vt 1.793208 0.431693
vt 1.793208 0.446646
vt 1.790116 0.431693
vt 1.790116 0.443554
vt 1.78877 0.431693
vt 1.78877 0.442208
vt 1.787671 0.431693
vt 1.787671 0.441109
vt 1.787023 0.440461
vt 1.787023 0.431693
vt 1.783281 0.431693
vt 1.783801 0.437239
vt 1.783281 0.436719
vt 1.782899 0.436337
vt 1.782899 0.431693
vt 1.61611 0.481771
vt 1.618684 0.481448
vt 1.618361 0.481771
vt 1.61611 0.480596
vt 1.619536 0.480596
vt 1.61611 0.481448
vt 1.61611 0.479524
vt 1.620608 0.479524
vt 1.61611 0.477466
vt 1.622666 0.477466
vt 1.621 0.479132
vt 1.61611 0.479132
vt 1.61611 0.478399
vt 1.621733 0.478399
vt 1.61611 0.477442
vt 1.62269 0.477442
vt 1.61611 0.474128
vt 1.626004 0.474128
vt 1.61611 0.472075
vt 1.628057 0.472075
vt 1.61611 0.471405
vt 1.628727 0.471405
vt 1.61611 0.470914
vt 1.629218 0.470914
vt 1.629397 0.470735
vt 1.61611 0.470735
vt 1.61611 0.446646
vt 1.629397 0.446646
vt 1.61611 0.443554
vt 1.626305 0.443554
vt 1.61611 0.442208
vt 1.624958 0.442208
vt 1.61611 0.441109
vt 1.62386 0.441109
vt 1.623212 0.440461
vt 1.61611 0.440461
vt 1.61999 0.437239
vt 1.61611 0.436719
vt 1.619469 0.436719
vt 1.61611 0.436337
vt 1.619088 0.436337
vt 1.618949 0.436198
vt 1.61611 0.436198
vn 0.988336156236192 0 0.15228802407369277
vn 0.8187698428846324 0 0.5741218898306129
vn 0.34076781398716877 0 0.9401474868074723
vn 0.9577262639316768 0 -0.2876810792795943
vn 0 0.988336156236192 0.152288024073693
vn 0 0.8187698428846323 0.5741218898306131
vn 0 0.34076781398716854 0.9401474868074724
vn 0.04195502101556897 0 0.9991195004660768
vn 0 0.9577262639316769 -0.2876810792795941
vn 0 0.04195502101556875 0.9991195004660768
vn 0.8307398269897263 0 0.556660884069538
vn 0.9248689496145283 0 0.38028597928259084
vn 1 0 0
vn 0 0.8307398269897261 0.5566608840695382
vn 0 0.9248689496145281 0.38028597928259106
vn 0 1 0
vn 0.5479590874800314 0 0.8365051335455458
vn 0 0.5479590874800312 0.8365051335455459
vn 0 0 -1
vn 0.2677888922143231 0 0.9634776121979304
vn 0 0.2677888922143229 0.9634776121979305
vn -1 0 0
vn 0 -1 0
vn 0.08117498901601004 0 0.9966998651340587
vn 0 0.08117498901600982 0.9966998651340587
vn 0.1305259853353411 0 0.9914448886106773
vn 0 0.13052598533534088 0.9914448886106773
vn 0.5000001748438417 0 0.8660253028382762
vn 0 0.5000001748438415 0.8660253028382763
vn 0.8660253028382762 0 0.5000001748438417
vn 0 0.8660253028382761 0.500000174843842
vn 0.9914448886106773 0 0.1305259853353411
vn 0 0.9914448886106773 0.13052598533534132
vn 0 0 1
vn -0.10793894836822594 0 0.9941575244523182
vn -0.4192320527257705 0 0.9078791141816936
vn -0.7612240147308267 0 0.6484890125492353
vn -0.8826627565537014 0 0.470006870367893
vn -0.2588189595935754 0 0.965925849201117
vn -0.5000001748438417 0 0.8660253028382762
vn -0.8660253028382762 0 0.5000001748438417
vn -0.9914448886106773 0 0.1305259853353411
vn -0.8187698428846324 0 -0.5741218898306129
vn -0.988336156236192 0 -0.15228802407369277
vn -0.34076781398716877 0 -0.9401474868074723
vn -0.9577262639316768 0 0.2876810792795943
vn 0 -0.8187698428846323 -0.5741218898306131
vn 0 -0.988336156236192 -0.152288024073693
vn 0 -0.34076781398716854 -0.9401474868074724
vn -0.04195502101556897 0 -0.9991195004660768
vn 0 -0.9577262639316769 0.2876810792795941
vn 0 -0.04195502101556875 -0.9991195004660768
vn -0.9248689496145283 0 -0.38028597928259084
vn -0.8307398269897263 0 -0.556660884069538
vn 0 -0.9248689496145281 -0.38028597928259106
vn 0 -0.8307398269897261 -0.5566608840695382
vn -0.5479590874800314 0 -0.8365051335455458
vn 0 -0.5479590874800312 -0.8365051335455459
vn -0.2677888922143231 0 -0.9634776121979304
vn 0 -0.2677888922143229 -0.9634776121979305
vn -0.08117498901601004 0 -0.9966998651340587
vn 0 -0.08117498901600982 -0.9966998651340587
vn -0.1305259853353411 0 -0.9914448886106773
vn 0 -0.13052598533534088 -0.9914448886106773
vn -0.5000001748438417 0 -0.8660253028382762
vn 0 -0.5000001748438415 -0.8660253028382763
vn -0.8660253028382762 0 -0.5000001748438417
vn 0 -0.8660253028382761 -0.500000174843842
vn -0.9914448886106773 0 -0.1305259853353411
vn 0 -0.9914448886106773 -0.13052598533534132
vn 0.10793894836822594 0 -0.9941575244523182
vn 0 0.10793894836822614 -0.994157524452318
vn 0.4192320527257705 0 -0.9078791141816936
vn 0 0.41923205272577074 -0.9078791141816935
vn 0.7612240147308267 0 -0.6484890125492353
vn 0 0.7612240147308268 -0.6484890125492351
vn 0.8826627565537014 0 -0.470006870367893
vn 0 0.8826627565537015 -0.4700068703678928
vn 0.2588189595935754 0 -0.965925849201117
vn 0.5000001748438417 0 -0.8660253028382762
vn 0 0.2588189595935757 -0.9659258492011171
vn 0 0.500000174843842 -0.8660253028382761
vn 0.8660253028382762 0 -0.5000001748438417
vn 0 0.8660253028382763 -0.5000001748438415
vn 0.9914448886106773 0 -0.1305259853353411
vn 0 0.9914448886106773 -0.13052598533534088
vn 0 -0.10793894836822614 0.994157524452318
vn 0 -0.41923205272577074 0.9078791141816935
vn 0 -0.7612240147308268 0.6484890125492351
vn 0 -0.8826627565537015 0.4700068703678928
vn 0 -0.2588189595935757 0.9659258492011171
vn 0 -0.500000174843842 0.8660253028382761
vn 0 -0.8660253028382763 0.5000001748438415
vn 0 -0.9914448886106773 0.13052598533534088
usemtl material_0_0
f 1/1/1 2/2/2 3/3/2
f 2/2/2 1/1/1 4/4/1
f 2/2/2 5/5/3 3/3/2
f 6/1/4 4/4/1 1/1/1
f 4/4/5 7/6/6 2/2/6
f 5/5/3 2/2/2 8/7/3
f 4/4/1 6/1/4 9/4/4
f 7/6/6 4/4/5 10/8/5
f 11/9/7 2/2/6 7/6/6
f 2/2/6 11/9/7 8/7/7
f 8/7/3 12/10/8 5/5/3
f 13/11/4 9/4/4 6/1/4
f 14/8/9 4/4/5 9/4/9
f 4/4/5 14/8/9 10/8/5
f 17/12/10 8/7/7 11/9/7
f 12/10/8 8/7/3 18/13/8
f 9/4/4 13/11/4 19/14/4
f 9/4/9 20/15/9 14/8/9
f 8/7/7 17/12/10 18/13/10
f 24/16/11 12/10/12 18/13/12
f 25/11/13 19/14/4 13/11/4
f 20/15/9 9/4/9 19/14/9
f 27/17/14 18/13/15 17/12/15
f 12/10/12 24/16/11 28/18/11
f 18/13/15 27/17/14 24/16/14
f 19/14/4 25/11/13 29/14/13
f 19/14/9 30/15/16 20/15/9
f 24/16/11 33/19/17 28/18/11
f 34/20/18 24/16/14 27/17/14
f 25/11/19 35/21/19 29/14/19
f 30/15/16 19/14/9 29/14/16
f 33/19/17 24/16/11 37/22/17
f 24/16/14 34/20/18 37/22/18
f 35/21/19 25/11/19 38/23/19
f 29/14/19 35/21/19 31/24/19
f 29/14/19 31/24/19 30/15/19
f 37/22/17 39/25/20 33/19/17
f 40/26/21 37/22/18 34/20/18
f 42/23/22 35/21/22 38/23/22
f 31/24/19 35/21/19 43/27/19
f 39/25/20 37/22/17 44/28/20
f 37/22/18 40/26/21 44/28/21
f 35/21/22 42/23/22 45/21/22
f 35/21/23 46/27/23 43/27/23
f 44/28/20 47/29/24 39/25/20
f 48/30/25 44/28/21 40/26/21
f 42/23/19 46/27/19 45/21/19
f 46/27/23 35/21/23 45/21/23
f 47/29/24 44/28/20 50/31/24
f 44/28/21 48/30/25 50/31/25
f 46/27/19 42/23/19 51/32/19
f 50/31/24 52/33/26 47/29/24
f 53/34/27 50/31/25 48/30/25
f 52/33/26 50/31/24 55/35/26
f 50/31/25 53/34/27 55/35/27
f 55/35/26 56/36/28 52/33/26
f 57/37/29 55/35/27 53/34/27
f 56/36/28 55/35/26 59/38/28
f 55/35/27 57/37/29 59/38/29
f 60/39/30 56/36/28 59/38/28
f 61/40/31 59/38/29 57/37/29
f 56/36/28 60/39/30 63/41/30
f 59/38/29 61/40/31 60/39/31
f 64/42/32 63/41/30 60/39/30
f 65/43/33 60/39/31 61/40/31
f 63/41/30 64/42/32 66/44/32
f 60/39/31 65/43/33 64/42/33
f 68/42/13 66/44/32 64/42/32
f 65/43/33 68/42/16 64/42/33
f 66/44/32 68/42/13 70/44/13
f 68/42/16 65/43/33 69/43/16
f 68/42/34 72/45/34 70/44/34
f 73/46/34 68/42/34 69/43/34
f 72/45/34 68/42/34 73/46/34
f 75/46/22 72/45/22 73/46/22
f 72/45/22 75/46/22 76/45/22
f 75/46/34 78/47/35 76/45/34
f 78/47/35 75/46/34 80/48/35
f 80/48/35 81/49/36 78/47/35
f 81/49/36 80/48/35 83/50/36
f 83/50/36 84/51/37 81/49/36
f 84/51/37 83/50/36 86/52/37
f 87/53/38 84/51/37 86/52/37
f 84/51/37 87/53/38 88/54/38
f 90/53/22 88/54/22 87/53/22
f 88/54/22 90/53/22 91/54/22
f 90/53/39 93/55/40 91/54/39
f 93/55/40 90/53/39 94/56/39
f 93/55/40 94/56/39 96/57/40
f 97/58/41 93/55/40 96/57/40
f 93/55/40 97/58/41 99/59/41
f 100/21/42 99/59/41 97/58/41
f 99/59/41 100/21/42 101/23/42
f 103/21/22 101/23/42 100/21/42
f 101/23/42 103/21/22 104/23/22
f 103/21/34 106/32/34 104/23/34
f 106/32/34 103/21/34 105/27/34
usemtl material_1_0
f 3//43 2//43 1//44
f 4//44 1//44 2//43
f 3//43 5//45 2//43
f 1//44 4//44 6//46
f 2//47 7//47 4//48
f 8//45 2//43 5//45
f 9//46 6//46 4//44
f 10//48 4//48 7//47
f 7//47 2//47 11//49
f 8//49 11//49 2//47
f 5//45 12//50 8//45
f 6//46 9//46 13//46
f 9//51 4//48 14//51
f 10//48 14//51 4//48
f 10//48 7//47 15//48
f 11//49 16//49 7//47
f 11//49 8//49 17//52
f 18//50 8//45 12//50
f 19//46 13//46 9//46
f 14//51 20//51 9//51
f 14//51 10//48 21//51
f 22//47 15//48 7//47
f 15//48 21//51 10//48
f 22//47 7//47 16//49
f 16//49 11//49 23//52
f 18//52 17//52 8//49
f 17//52 23//52 11//49
f 18//53 12//53 24//54
f 13//46 19//46 25//22
f 19//51 9//51 20//51
f 20//51 14//51 26//51
f 21//51 26//51 14//51
f 17//55 18//55 27//56
f 17//55 27//56 23//55
f 28//54 24//54 12//53
f 24//56 27//56 18//55
f 29//22 25//22 19//46
f 20//51 30//23 19//51
f 26//51 31//23 20//51
f 32//56 23//55 27//56
f 28//54 33//57 24//54
f 27//56 24//56 34//58
f 29//34 35//34 25//34
f 29//23 19//51 30//23
f 30//23 20//51 31//23
f 32//56 27//56 36//58
f 37//57 24//54 33//57
f 37//58 34//58 24//56
f 34//58 36//58 27//56
f 38//34 25//34 35//34
f 31//34 35//34 29//34
f 30//34 31//34 29//34
f 33//57 39//59 37//57
f 34//58 37//58 40//60
f 36//58 34//58 41//60
f 38//13 35//13 42//13
f 43//34 35//34 31//34
f 44//59 37//57 39//59
f 44//60 40//60 37//58
f 40//60 41//60 34//58
f 45//13 42//13 35//13
f 43//16 46//16 35//16
f 39//59 47//61 44//59
f 40//60 44//60 48//62
f 41//60 40//60 49//62
f 45//34 46//34 42//34
f 45//16 35//16 46//16
f 50//61 44//59 47//61
f 50//62 48//62 44//60
f 48//62 49//62 40//60
f 51//34 42//34 46//34
f 47//61 52//63 50//61
f 48//62 50//62 53//64
f 49//62 48//62 54//64
f 55//63 50//61 52//63
f 55//64 53//64 50//62
f 53//64 54//64 48//62
f 52//63 56//65 55//63
f 53//64 55//64 57//66
f 54//64 53//64 58//66
f 59//65 55//63 56//65
f 59//66 57//66 55//64
f 57//66 58//66 53//64
f 59//65 56//65 60//67
f 57//66 59//66 61//68
f 58//66 57//66 62//68
f 63//67 60//67 56//65
f 60//68 61//68 59//66
f 61//68 62//68 57//66
f 60//67 63//67 64//69
f 61//68 60//68 65//70
f 61//68 65//70 62//68
f 66//69 64//69 63//67
f 64//70 65//70 60//68
f 67//70 62//68 65//70
f 64//69 66//69 68//22
f 64//70 68//23 65//70
f 65//70 69//23 67//70
f 70//22 68//22 66//69
f 69//23 65//70 68//23
f 71//23 67//70 69//23
f 70//19 72//19 68//19
f 69//19 68//19 73//19
f 71//19 69//19 74//19
f 73//19 68//19 72//19
f 73//19 74//19 69//19
f 73//13 72//13 75//13
f 73//16 75//16 74//16
f 76//13 75//13 72//13
f 77//16 74//16 75//16
f 76//19 78//71 75//19
f 77//19 75//19 79//72
f 80//71 75//19 78//71
f 80//72 79//72 75//19
f 78//71 81//73 80//71
f 79//72 80//72 82//74
f 83//73 80//71 81//73
f 83//74 82//74 80//72
f 81//73 84//75 83//73
f 82//74 83//74 85//76
f 86//75 83//73 84//75
f 86//76 85//76 83//74
f 86//75 84//75 87//77
f 86//76 87//78 85//76
f 88//77 87//77 84//75
f 89//78 85//76 87//78
f 87//13 88//13 90//13
f 87//16 90//16 89//16
f 91//13 90//13 88//13
f 92//16 89//16 90//16
f 91//79 93//80 90//79
f 90//81 94//81 92//81
f 94//79 90//79 93//80
f 92//81 94//81 95//82
f 96//80 94//79 93//80
f 96//82 95//82 94//81
f 96//80 93//80 97//83
f 95//82 96//82 98//84
f 99//83 97//83 93//80
f 97//84 98//84 96//82
f 97//83 99//83 100//85
f 97//84 100//86 98//84
f 101//85 100//85 99//83
f 102//86 98//84 100//86
f 100//85 101//85 103//13
f 100//86 103//16 102//86
f 104//13 103//13 101//85
f 105//16 102//86 103//16
f 104//19 106//19 103//19
f 105//19 103//19 106//19
usemtl material_2_0
f 15/60/5 7/61/6 10/62/5
f 7/61/6 16/63/7 11/64/7
f 21/60/9 10/62/5 14/62/9
f 7/61/6 15/60/5 22/65/6
f 10/62/5 21/60/9 15/60/5
f 16/63/7 7/61/6 22/65/6
f 23/66/10 11/64/7 16/63/7
f 11/64/7 23/66/10 17/67/10
f 26/68/9 14/62/9 20/69/9
f 14/62/9 26/68/9 21/60/9
f 23/66/15 27/70/14 17/67/15
f 20/69/9 31/68/16 26/68/9
f 27/70/14 23/66/15 32/71/14
f 31/68/16 20/69/9 30/69/16
f 36/72/18 27/70/14 32/71/14
f 27/70/14 36/72/18 34/73/18
f 41/74/21 34/73/18 36/72/18
f 34/73/18 41/74/21 40/75/21
f 49/76/25 40/75/21 41/74/21
f 40/75/21 49/76/25 48/77/25
f 54/78/27 48/77/25 49/76/25
f 48/77/25 54/78/27 53/79/27
f 58/80/29 53/79/27 54/78/27
f 53/79/27 58/80/29 57/81/29
f 62/82/31 57/81/29 58/80/29
f 57/81/29 62/82/31 61/83/31
f 62/82/31 65/84/33 61/83/31
f 65/84/33 62/82/31 67/85/33
f 67/85/33 69/84/16 65/84/33
f 69/84/16 67/85/33 71/85/16
f 74/86/34 69/84/34 71/85/34
f 69/84/34 74/86/34 73/87/34
f 74/86/23 75/87/23 73/87/23
f 75/87/23 74/86/23 77/86/23
f 79/88/87 75/87/34 77/86/34
f 75/87/34 79/88/87 80/89/87
f 82/90/88 80/89/87 79/88/87
f 80/89/87 82/90/88 83/91/88
f 85/92/89 83/91/88 82/90/88
f 83/91/88 85/92/89 86/93/89
f 85/92/89 87/94/90 86/93/89
f 87/94/90 85/92/89 89/95/90
f 89/95/23 90/94/23 87/94/23
f 90/94/23 89/95/23 92/95/23
f 92/95/91 94/96/91 90/94/91
f 95/97/92 94/96/91 92/95/91
f 94/96/91 95/97/92 96/98/92
f 98/99/93 96/98/92 95/97/92
f 96/98/92 98/99/93 97/100/93
f 98/99/93 100/101/94 97/100/93
f 100/101/94 98/99/93 102/102/94
f 102/102/94 103/101/23 100/101/94
f 103/101/23 102/102/94 105/102/23
