# SSTK version 0.8.0
# 26
mtllib original-26.mtl
o DF_12_BL1/DF_12_BL/mesh19/mesh19-geometry#mesh19-geometry
v -0.692068 0.378625 0.333207
v -0.676202 0.372734 0.346755
v -0.697959 0.372734 0.346755
v -0.676202 0.378625 0.333207
v -0.697959 0.372734 0.352665
v -0.692068 0.389952 0.333207
v -0.676202 0.372734 0.352665
v -0.697959 0.389952 0.346755
v -0.676202 0.389952 0.333207
v -0.676202 0.373911 0.353107
v -0.697959 0.389952 0.352665
v -0.696782 0.373911 0.353107
v -0.695895 0.374797 0.354000
v -0.696782 0.389952 0.353107
v -0.676202 0.374797 0.354000
v -0.695460 0.375232 0.355180
v -0.695895 0.389952 0.354000
v -0.676202 0.375232 0.355180
v -0.694535 0.376158 0.356289
v -0.695460 0.389952 0.355180
v -0.676202 0.376158 0.356289
v -0.676202 0.377423 0.356986
v -0.694535 0.389952 0.356289
v -0.693270 0.377423 0.356986
v -0.676202 0.378855 0.357178
v -0.693270 0.389952 0.356986
v -0.691838 0.378855 0.357178
v -0.676202 0.385123 0.358901
v -0.691838 0.389952 0.357178
v -0.685570 0.385123 0.358901
v -0.676202 0.386352 0.359463
v -0.685570 0.389952 0.358901
v -0.684341 0.386352 0.359463
v -0.676202 0.387341 0.360385
v -0.684341 0.389952 0.359463
v -0.683352 0.387341 0.360385
v -0.682705 0.387988 0.361573
v -0.683352 0.389952 0.360385
v -0.676202 0.387988 0.361573
v -0.676202 0.389952 0.361573
v -0.682705 0.389952 0.361573
vt 1.530598 0.003245
vt 1.539337 0
vt 1.527352 0
vt 1.539337 0.003245
vt 1.530598 0.009485
vt 1.527352 0.009485
vt 1.539337 0.009485
vt 1.539337 0.000649
vt 1.528001 0.000649
vt 1.528489 0.001137
vt 1.528001 0.009485
vt 1.539337 0.001137
vt 1.528729 0.001377
vt 1.528489 0.009485
vt 1.539337 0.001377
vt 1.529239 0.001886
vt 1.528729 0.009485
vt 1.539337 0.001886
vt 1.539337 0.002583
vt 1.529239 0.009485
vt 1.529935 0.002583
vt 1.539337 0.003372
vt 1.529935 0.009485
vt 1.530724 0.003372
vt 1.539337 0.006825
vt 1.530724 0.009485
vt 1.534177 0.006825
vt 1.539337 0.007502
vt 1.534177 0.009485
vt 1.534854 0.007502
vt 1.539337 0.008047
vt 1.534854 0.009485
vt 1.535399 0.008047
vt 1.535755 0.008403
vt 1.535399 0.009485
vt 1.539337 0.008403
vt 1.535755 0.009485
vn 0 -0.9170370483402337 -0.39880202102225115
vn 0 -0.9790396130346695 -0.20366991949948043
vn 0 -0.8221859635948396 0.5692189747958379
vn -0.9790396130346695 0 -0.2036699194994802
vn -0.9170370483402338 0 -0.39880202102225093
vn 0 0 -1
vn -0.8221859635948395 0 0.5692189747958382
vn 0 -0.54315031075675 0.839635480387082
vn -0.5431503107567498 0 0.8396354803870821
vn 0 -0.8431879188410589 0.5376189482528344
vn -0.8431879188410588 0 0.5376189482528346
vn 0 -0.86562451427182 0.5006937190455617
vn -0.8656245142718199 0 0.5006937190455619
vn 0 -0.6362082861178817 0.7715173469695594
vn -0.6362082861178815 0 0.7715173469695595
vn 0 -0.3131499044711312 0.9497037102853297
vn -0.313149904471131 0 0.9497037102853298
vn 0 -0.1992460985155644 0.9799494845278128
vn -0.19924609851556419 0 0.9799494845278128
vn 0 -0.34157010833990753 0.9398562981055476
vn -0.3415701083399073 0 0.9398562981055477
vn 0 -0.5561451284000215 0.8310851918768156
vn -0.5561451284000215 0 0.831085191876816
vn 0 -0.7902874156656057 0.612736322279476
vn -0.7902874156656056 0 0.6127363222794763
vn 0 -0.8781812000738503 0.47832810897630945
vn -0.8781812000738501 0 0.4783281089763097
vn 0 0 1
vn 0 0.9790396130346695 0.20366991949948043
vn 0 0.9170370483402337 0.39880202102225115
vn 0 0.8221859635948396 -0.5692189747958379
vn 0.9170370483402338 0 0.39880202102225093
vn 0.9790396130346695 0 0.2036699194994802
vn 0.8221859635948395 0 -0.5692189747958382
vn 0 0.54315031075675 -0.839635480387082
vn 0.5431503107567498 0 -0.8396354803870821
vn 0 0.8431879188410589 -0.5376189482528344
vn 0.8431879188410588 0 -0.5376189482528346
vn 0 0.86562451427182 -0.5006937190455617
vn 0.8656245142718199 0 -0.5006937190455619
vn 0 0.6362082861178817 -0.7715173469695594
vn 0.6362082861178815 0 -0.7715173469695595
vn 0 0.3131499044711312 -0.9497037102853297
vn 0.313149904471131 0 -0.9497037102853298
vn 0 0.1992460985155644 -0.9799494845278128
vn 0.19924609851556419 0 -0.9799494845278128
vn 0 0.34157010833990753 -0.9398562981055476
vn 0.3415701083399073 0 -0.9398562981055477
vn 0 0.5561451284000215 -0.8310851918768156
vn 0.5561451284000215 0 -0.831085191876816
vn 0 0.7902874156656057 -0.612736322279476
vn 0.7902874156656056 0 -0.6127363222794763
vn 0 0.8781812000738503 -0.47832810897630945
vn 0.8781812000738501 0 -0.4783281089763097
usemtl material_0_0
f 1/1/1 2/2/2 3/3/2
f 2/2/2 1/1/1 4/4/1
f 2/2/2 5/3/3 3/3/2
f 3/3/4 6/5/5 1/1/5
f 6/5/6 4/4/6 1/1/6
f 5/3/3 2/2/2 7/2/3
f 5/3/7 8/6/4 3/3/4
f 6/5/5 3/3/4 8/6/4
f 4/4/6 6/5/6 9/7/6
f 10/8/8 5/3/3 7/2/3
f 8/6/4 5/3/7 11/6/7
f 5/3/3 10/8/8 12/9/8
f 12/9/9 11/6/7 5/3/7
f 10/8/8 13/10/10 12/9/8
f 11/6/7 12/9/9 14/11/9
f 13/10/10 10/8/8 15/12/10
f 13/10/11 14/11/9 12/9/9
f 15/12/10 16/13/12 13/10/10
f 14/11/9 13/10/11 17/14/11
f 16/13/12 15/12/10 18/15/12
f 16/13/13 17/14/11 13/10/11
f 18/15/12 19/16/14 16/13/12
f 17/14/11 16/13/13 20/17/13
f 19/16/14 18/15/12 21/18/14
f 19/16/15 20/17/13 16/13/13
f 22/19/16 19/16/14 21/18/14
f 20/17/13 19/16/15 23/20/15
f 19/16/14 22/19/16 24/21/16
f 24/21/17 23/20/15 19/16/15
f 25/22/18 24/21/16 22/19/16
f 23/20/15 24/21/17 26/23/17
f 24/21/16 25/22/18 27/24/18
f 27/24/19 26/23/17 24/21/17
f 28/25/20 27/24/18 25/22/18
f 26/23/17 27/24/19 29/26/19
f 27/24/18 28/25/20 30/27/20
f 30/27/21 29/26/19 27/24/19
f 31/28/22 30/27/20 28/25/20
f 29/26/19 30/27/21 32/29/21
f 30/27/20 31/28/22 33/30/22
f 33/30/23 32/29/21 30/27/21
f 34/31/24 33/30/22 31/28/22
f 32/29/21 33/30/23 35/32/23
f 33/30/22 34/31/24 36/33/24
f 36/33/25 35/32/23 33/30/23
f 34/31/24 37/34/26 36/33/24
f 35/32/23 36/33/25 38/35/25
f 37/34/26 34/31/24 39/36/26
f 37/34/27 38/35/25 36/33/25
f 40/7/28 37/34/28 39/36/28
f 38/35/25 37/34/27 41/37/27
f 37/34/28 40/7/28 41/37/28
usemtl material_1_0
f 3//29 2//29 1//30
f 4//30 1//30 2//29
f 3//29 5//31 2//29
f 1//32 6//32 3//33
f 1//28 4//28 6//28
f 7//31 2//29 5//31
f 3//33 8//33 5//34
f 8//33 3//33 6//32
f 9//28 6//28 4//28
f 7//31 5//31 10//35
f 11//34 5//34 8//33
f 12//35 10//35 5//31
f 5//34 11//34 12//36
f 12//35 13//37 10//35
f 14//36 12//36 11//34
f 15//37 10//35 13//37
f 12//36 14//36 13//38
f 13//37 16//39 15//37
f 17//38 13//38 14//36
f 18//39 15//37 16//39
f 13//38 17//38 16//40
f 16//39 19//41 18//39
f 20//40 16//40 17//38
f 21//41 18//39 19//41
f 16//40 20//40 19//42
f 21//41 19//41 22//43
f 23//42 19//42 20//40
f 24//43 22//43 19//41
f 19//42 23//42 24//44
f 22//43 24//43 25//45
f 26//44 24//44 23//42
f 27//45 25//45 24//43
f 24//44 26//44 27//46
f 25//45 27//45 28//47
f 29//46 27//46 26//44
f 30//47 28//47 27//45
f 27//46 29//46 30//48
f 28//47 30//47 31//49
f 32//48 30//48 29//46
f 33//49 31//49 30//47
f 30//48 32//48 33//50
f 31//49 33//49 34//51
f 35//50 33//50 32//48
f 36//51 34//51 33//49
f 33//50 35//50 36//52
f 36//51 37//53 34//51
f 38//52 36//52 35//50
f 39//53 34//51 37//53
f 36//52 38//52 37//54
f 39//6 37//6 40//6
f 41//54 37//54 38//52
f 41//6 40//6 37//6
