# SSTK version 0.8.0
# 59
mtllib original-59.mtl
o RT_11_CL1/RT_11_CL/mesh47/mesh47-geometry#mesh47-geometry
v 0.018038 0.262912 0.352627
v 0.016492 -0.368409 0.351443
v 0.018038 -0.368409 0.352627
v 0.016492 0.262912 0.351443
v 0.019984 0.262912 0.352709
v 0.015905 0.262912 0.349585
v 0.019984 -0.368409 0.352709
v 0.015905 -0.368409 0.349585
v 0.020696 -0.368409 0.354439
v 0.015905 0.262912 0.346596
v 0.020696 0.262912 0.354439
v 0.015905 -0.368409 0.346596
v 0.022026 0.262912 0.355756
v 0.023721 0.262912 0.334760
v 0.022026 -0.368409 0.355756
v 0.023721 -0.368409 0.334760
v 0.023765 0.262912 0.356450
v 0.023721 0.262912 0.333207
v 0.023765 -0.368409 0.356450
v 0.023721 -0.368409 0.333207
v 0.029781 0.262912 0.357436
v 0.098638 -0.368409 0.333207
v 0.029781 -0.368409 0.357436
v 0.098638 0.262912 0.333207
v 0.033507 0.262912 0.357436
v 0.098638 0.262912 0.338147
v 0.033507 -0.368409 0.357436
v 0.098638 -0.368409 0.338147
v 0.034723 0.262912 0.357762
v 0.103791 -0.368409 0.338147
v 0.034723 -0.368409 0.357762
v 0.103791 0.262912 0.338147
v 0.035614 -0.368409 0.358652
v 0.035614 0.262912 0.358652
v 0.035940 -0.368409 0.359869
v 0.035940 0.262912 0.359869
v 0.035940 -0.368409 0.361573
v 0.035940 0.262912 0.361573
v 0.079670 0.262912 0.361573
v 0.079670 -0.368409 0.361573
v 0.079670 -0.368409 0.357436
v 0.079670 0.262912 0.357436
v 0.085284 0.262912 0.357436
v 0.085284 -0.368409 0.357436
v 0.087728 0.262912 0.356899
v 0.087728 -0.368409 0.356899
v 0.089722 0.262912 0.355387
v 0.089722 -0.368409 0.355387
v 0.090898 -0.368409 0.353178
v 0.090898 0.262912 0.353178
v 0.090898 -0.368409 0.351912
v 0.090898 0.262912 0.351912
v 0.097693 0.262912 0.350091
v 0.097693 -0.368409 0.350091
v 0.098385 -0.368409 0.349399
v 0.098385 0.262912 0.349399
v 0.098638 -0.368409 0.348454
v 0.098638 0.262912 0.348454
v 0.098638 -0.368409 0.345238
v 0.098638 0.262912 0.345238
v 0.103791 0.262912 0.345238
v 0.103791 -0.368409 0.345238
vt 1.489664 0.431693
vt 1.488812 0.050078
vt 1.489664 0.050078
vt 1.488812 0.431693
vt 1.490736 0.431693
vt 1.488489 0.431693
vt 1.490736 0.050078
vt 1.488489 0.050078
vt 1.491128 0.050078
vt 1.491128 0.431693
vt 1.491861 0.431693
vt 1.492794 0.431693
vt 1.491861 0.050078
vt 1.492794 0.050078
vt 1.492818 0.431693
vt 1.492818 0.050078
vt 1.496132 0.431693
vt 1.534062 0.050078
vt 1.496132 0.050078
vt 1.534062 0.431693
vt 1.498185 0.431693
vt 1.498185 0.050078
vt 1.498855 0.431693
vt 1.536901 0.050078
vt 1.498855 0.050078
vt 1.536901 0.431693
vt 1.499345 0.050078
vt 1.499345 0.431693
vt 1.499525 0.050078
vt 1.499525 0.431693
vt 1.523614 0.431693
vt 1.523614 0.050078
vt 1.526706 0.431693
vt 1.526706 0.050078
vt 1.528052 0.431693
vt 1.528052 0.050078
vt 1.529151 0.431693
vt 1.529151 0.050078
vt 1.529798 0.050078
vt 1.529798 0.431693
vt 1.533541 0.431693
vt 1.533541 0.050078
vt 1.533922 0.050078
vt 1.533922 0.431693
vn -0.34076781398716877 0 0.9401474868074723
vn -0.8187698428846324 0 0.5741218898306129
vn -0.04195502101556897 0 0.9991195004660768
vn -0.988336156236192 0 0.15228802407369277
vn -0.8307398269897263 0 0.556660884069538
vn -0.9248689496145283 0 0.38028597928259084
vn -0.9577262639316768 0 -0.2876810792795943
vn -0.5479590874800314 0 0.8365051335455458
vn -0.2677888922143231 0 0.9634776121979304
vn -1 0 0
vn -0.08117498901601004 0 0.9966998651340587
vn 0 0 -1
vn -0.1305259853353411 0 0.9914448886106773
vn 1 0 0
vn -0.5000001748438417 0 0.8660253028382762
vn -0.8660253028382762 0 0.5000001748438417
vn -0.9914448886106773 0 0.1305259853353411
vn 0 0 1
vn 0.10793894836822594 0 0.9941575244523182
vn 0.4192320527257705 0 0.9078791141816936
vn 0.7612240147308267 0 0.6484890125492353
vn 0.8826627565537014 0 0.470006870367893
vn 0.2588189595935754 0 0.965925849201117
vn 0.5000001748438417 0 0.8660253028382762
vn 0.8660253028382762 0 0.5000001748438417
vn 0.9914448886106773 0 0.1305259853353411
vn 0.34076781398716877 0 -0.9401474868074723
vn 0.8187698428846324 0 -0.5741218898306129
vn 0.04195502101556897 0 -0.9991195004660768
vn 0.988336156236192 0 -0.15228802407369277
vn 0.9248689496145283 0 -0.38028597928259084
vn 0.8307398269897263 0 -0.556660884069538
vn 0.9577262639316768 0 0.2876810792795943
vn 0.5479590874800314 0 -0.8365051335455458
vn 0.2677888922143231 0 -0.9634776121979304
vn 0.08117498901601004 0 -0.9966998651340587
vn 0.1305259853353411 0 -0.9914448886106773
vn 0.5000001748438417 0 -0.8660253028382762
vn 0.8660253028382762 0 -0.5000001748438417
vn 0.9914448886106773 0 -0.1305259853353411
vn -0.10793894836822594 0 -0.9941575244523182
vn -0.4192320527257705 0 -0.9078791141816936
vn -0.7612240147308267 0 -0.6484890125492353
vn -0.8826627565537014 0 -0.470006870367893
vn -0.2588189595935754 0 -0.965925849201117
vn -0.5000001748438417 0 -0.8660253028382762
vn -0.8660253028382762 0 -0.5000001748438417
vn -0.9914448886106773 0 -0.1305259853353411
usemtl material_0_0
f 1/1/1 2/2/2 3/3/1
f 2/2/2 1/1/1 4/4/2
f 3/3/1 5/5/3 1/1/1
f 6/6/4 2/2/2 4/4/2
f 5/5/3 3/3/1 7/7/3
f 2/2/2 6/6/4 8/8/4
f 9/9/5 5/5/6 7/7/6
f 10/6/7 8/8/4 6/6/4
f 5/5/6 9/9/5 11/10/5
f 8/8/4 10/6/7 12/8/7
f 9/9/5 13/11/8 11/10/5
f 14/12/7 12/8/7 10/6/7
f 13/11/8 9/9/5 15/13/8
f 12/8/7 14/12/7 16/14/7
f 15/13/8 17/15/9 13/11/8
f 18/12/10 16/14/7 14/12/7
f 17/15/9 15/13/8 19/16/9
f 16/14/7 18/12/10 20/14/10
f 19/16/9 21/17/11 17/15/9
f 18/12/12 22/18/12 20/14/12
f 21/17/11 19/16/9 23/19/11
f 22/18/12 18/12/12 24/20/12
f 23/19/11 25/21/13 21/17/11
f 26/20/14 22/18/14 24/20/14
f 25/21/13 23/19/11 27/22/13
f 22/18/14 26/20/14 28/18/14
f 27/22/13 29/23/15 25/21/13
f 26/20/12 30/24/12 28/18/12
f 29/23/15 27/22/13 31/25/15
f 30/24/12 26/20/12 32/26/12
f 33/27/16 29/23/15 31/25/15
f 29/23/15 33/27/16 34/28/16
f 35/29/17 34/28/16 33/27/16
f 34/28/16 35/29/17 36/30/17
f 37/29/10 36/30/17 35/29/17
f 36/30/17 37/29/10 38/30/10
f 37/29/18 39/31/18 38/30/18
f 39/31/18 37/29/18 40/32/18
f 41/32/14 39/31/14 40/32/14
f 39/31/14 41/32/14 42/31/14
f 41/32/18 43/33/19 42/31/18
f 43/33/19 41/32/18 44/34/19
f 44/34/19 45/35/20 43/33/19
f 45/35/20 44/34/19 46/36/20
f 46/36/20 47/37/21 45/35/20
f 47/37/21 46/36/20 48/38/21
f 49/39/22 47/37/21 48/38/21
f 47/37/21 49/39/22 50/40/22
f 51/39/14 50/40/14 49/39/14
f 50/40/14 51/39/14 52/40/14
f 51/39/23 53/41/24 52/40/23
f 53/41/24 51/39/23 54/42/24
f 55/43/25 53/41/24 54/42/24
f 53/41/24 55/43/25 56/44/25
f 57/18/26 56/44/25 55/43/25
f 56/44/25 57/18/26 58/20/26
f 59/18/14 58/20/26 57/18/26
f 58/20/26 59/18/14 60/20/14
f 59/18/18 61/26/18 60/20/18
f 61/26/18 59/18/18 62/24/18
usemtl material_1_0
f 3//27 2//28 1//27
f 4//28 1//27 2//28
f 1//27 5//29 3//27
f 4//28 2//28 6//30
f 7//29 3//27 5//29
f 8//30 6//30 2//28
f 7//31 5//31 9//32
f 6//30 8//30 10//33
f 11//32 9//32 5//31
f 12//33 10//33 8//30
f 11//32 13//34 9//32
f 10//33 12//33 14//33
f 15//34 9//32 13//34
f 16//33 14//33 12//33
f 13//34 17//35 15//34
f 14//33 16//33 18//14
f 19//35 15//34 17//35
f 20//14 18//14 16//33
f 17//35 21//36 19//35
f 20//18 22//18 18//18
f 23//36 19//35 21//36
f 24//18 18//18 22//18
f 21//36 25//37 23//36
f 24//10 22//10 26//10
f 27//37 23//36 25//37
f 28//10 26//10 22//10
f 25//37 29//38 27//37
f 28//18 30//18 26//18
f 31//38 27//37 29//38
f 32//18 26//18 30//18
f 31//38 29//38 33//39
f 34//39 33//39 29//38
f 33//39 34//39 35//40
f 36//40 35//40 34//39
f 35//40 36//40 37//14
f 38//14 37//14 36//40
f 38//12 39//12 37//12
f 40//12 37//12 39//12
f 40//10 39//10 41//10
f 42//10 41//10 39//10
f 42//12 43//41 41//12
f 44//41 41//12 43//41
f 43//41 45//42 44//41
f 46//42 44//41 45//42
f 45//42 47//43 46//42
f 48//43 46//42 47//43
f 48//43 47//43 49//44
f 50//44 49//44 47//43
f 49//10 50//10 51//10
f 52//10 51//10 50//10
f 52//45 53//46 51//45
f 54//46 51//45 53//46
f 54//46 53//46 55//47
f 56//47 55//47 53//46
f 55//47 56//47 57//48
f 58//48 57//48 56//47
f 57//48 58//48 59//10
f 60//10 59//10 58//48
f 60//12 61//12 59//12
f 62//12 59//12 61//12
