# SSTK version 0.8.0
# 25
mtllib original-25.mtl
o DF_12_TL1/DF_12_TL/mesh18/mesh18-geometry#mesh18-geometry
v -0.676202 0.593536 0.357178
v -0.685570 0.587268 0.358901
v -0.676202 0.587268 0.358901
v -0.691838 0.593536 0.357178
v -0.684341 0.586039 0.359463
v -0.676202 0.594968 0.356986
v -0.691838 0.582439 0.357178
v -0.676202 0.586039 0.359463
v -0.685570 0.582439 0.358901
v -0.693270 0.594968 0.356986
v -0.693270 0.582439 0.356986
v -0.683352 0.585050 0.360385
v -0.684341 0.582439 0.359463
v -0.676202 0.596233 0.356289
v -0.676202 0.585050 0.360385
v -0.694535 0.596233 0.356289
v -0.694535 0.582439 0.356289
v -0.682705 0.584403 0.361573
v -0.683352 0.582439 0.360385
v -0.676202 0.597159 0.355180
v -0.676202 0.584403 0.361573
v -0.682705 0.582439 0.361573
v -0.695460 0.597159 0.355180
v -0.676202 0.597594 0.354000
v -0.695460 0.582439 0.355180
v -0.676202 0.582439 0.361573
v -0.695895 0.597594 0.354000
v -0.676202 0.598480 0.353107
v -0.695895 0.582439 0.354000
v -0.696782 0.598480 0.353107
v -0.676202 0.599657 0.352665
v -0.696782 0.582439 0.353107
v -0.697959 0.599657 0.352665
v -0.697959 0.582439 0.352665
v -0.697959 0.599657 0.346755
v -0.676202 0.599657 0.346755
v -0.692068 0.593766 0.333207
v -0.697959 0.582439 0.346755
v -0.676202 0.593766 0.333207
v -0.676202 0.582439 0.333207
v -0.692068 0.582439 0.333207
vt 1.539337 0.124232
vt 1.534177 0.12078
vt 1.539337 0.12078
vt 1.530724 0.124232
vt 1.534854 0.120102
vt 1.539337 0.125021
vt 1.530724 0.118119
vt 1.539337 0.120102
vt 1.534177 0.118119
vt 1.529935 0.125021
vt 1.529935 0.118119
vt 1.535399 0.119558
vt 1.534854 0.118119
vt 1.539337 0.125718
vt 1.539337 0.119558
vt 1.529239 0.125718
vt 1.529239 0.118119
vt 1.535755 0.119201
vt 1.535399 0.118119
vt 1.539337 0.126228
vt 1.539337 0.119201
vt 1.535755 0.118119
vt 1.528729 0.126228
vt 1.539337 0.126467
vt 1.528729 0.118119
vt 1.539337 0.118119
vt 1.528489 0.126467
vt 1.539337 0.126956
vt 1.528489 0.118119
vt 1.528001 0.126956
vt 1.539337 0.127604
vt 1.528001 0.118119
vt 1.527352 0.127604
vt 1.527352 0.118119
vt 1.530598 0.124359
vt 1.539337 0.124359
vt 1.530598 0.118119
vn 0 0.19924609851556396 0.9799494845278128
vn 0 0.3415701083399071 0.9398562981055478
vn 0 0.5561451284000213 0.8310851918768161
vn 0 0.3131499044711307 0.9497037102853297
vn -0.19924609851556419 0 0.9799494845278128
vn -0.3415701083399073 0 0.9398562981055477
vn -0.5561451284000215 0 0.831085191876816
vn -0.313149904471131 0 0.9497037102853298
vn 0 0.7902874156656055 0.6127363222794765
vn 0 0.6362082861178814 0.7715173469695599
vn -0.7902874156656056 0 0.6127363222794763
vn -0.6362082861178815 0 0.7715173469695595
vn 0 0.87818120007385 0.4783281089763099
vn 0 0.8656245142718197 0.5006937190455621
vn -0.8781812000738501 0 0.4783281089763097
vn -0.8656245142718199 0 0.5006937190455619
vn 0 0 1
vn 0 0.8431879188410587 0.5376189482528348
vn -0.8431879188410588 0 0.5376189482528346
vn 0 0.5431503107567496 0.8396354803870822
vn -0.5431503107567498 0 0.8396354803870821
vn 0 0.8221859635948394 0.5692189747958384
vn -0.8221859635948395 0 0.5692189747958382
vn 0 0.9790396130346695 -0.20366991949948
vn -0.9790396130346695 0 -0.2036699194994802
vn 0 0.9170370483402339 -0.3988020210222507
vn -0.9170370483402338 0 -0.39880202102225093
vn 0 0 -1
vn 0 -0.3415701083399071 -0.9398562981055478
vn 0 -0.19924609851556396 -0.9799494845278128
vn 0 -0.5561451284000213 -0.8310851918768161
vn 0 -0.3131499044711307 -0.9497037102853297
vn 0.19924609851556419 0 -0.9799494845278128
vn 0.3415701083399073 0 -0.9398562981055477
vn 0.5561451284000215 0 -0.831085191876816
vn 0.313149904471131 0 -0.9497037102853298
vn 0 -0.7902874156656055 -0.6127363222794765
vn 0 -0.6362082861178814 -0.7715173469695599
vn 0.7902874156656056 0 -0.6127363222794763
vn 0.6362082861178815 0 -0.7715173469695595
vn 0 -0.87818120007385 -0.4783281089763099
vn 0 -0.8656245142718197 -0.5006937190455621
vn 0.8781812000738501 0 -0.4783281089763097
vn 0.8656245142718199 0 -0.5006937190455619
vn 0 -0.8431879188410587 -0.5376189482528348
vn 0.8431879188410588 0 -0.5376189482528346
vn 0 -0.5431503107567496 -0.8396354803870822
vn 0.5431503107567498 0 -0.8396354803870821
vn 0 -0.8221859635948394 -0.5692189747958384
vn 0.8221859635948395 0 -0.5692189747958382
vn 0 -0.9790396130346695 0.20366991949948
vn 0.9790396130346695 0 0.2036699194994802
vn 0 -0.9170370483402339 0.3988020210222507
vn 0.9170370483402338 0 0.39880202102225093
usemtl material_0_0
f 1/1/1 2/2/2 3/3/2
f 2/2/2 1/1/1 4/4/1
f 5/5/3 3/3/2 2/2/2
f 6/6/4 4/4/1 1/1/1
f 7/7/5 2/2/6 4/4/5
f 3/3/2 5/5/3 8/8/3
f 9/9/6 5/5/7 2/2/6
f 4/4/1 6/6/4 10/10/4
f 2/2/6 7/7/5 9/9/6
f 4/4/5 11/11/8 7/7/5
f 12/12/9 8/8/3 5/5/3
f 5/5/7 9/9/6 13/13/7
f 14/14/10 10/10/4 6/6/4
f 11/11/8 4/4/5 10/10/8
f 8/8/3 12/12/9 15/15/9
f 13/13/7 12/12/11 5/5/7
f 10/10/4 14/14/10 16/16/10
f 10/10/8 17/17/12 11/11/8
f 18/18/13 15/15/9 12/12/9
f 12/12/11 13/13/7 19/19/11
f 20/20/14 16/16/10 14/14/10
f 17/17/12 10/10/8 16/16/12
f 15/15/9 18/18/13 21/21/13
f 12/12/11 22/22/15 18/18/15
f 22/22/15 12/12/11 19/19/11
f 16/16/10 20/20/14 23/23/14
f 23/23/16 17/17/12 16/16/12
f 22/22/17 21/21/17 18/18/17
f 24/24/18 23/23/14 20/20/14
f 17/17/12 23/23/16 25/25/16
f 21/21/17 22/22/17 26/26/17
f 23/23/14 24/24/18 27/27/18
f 27/27/19 25/25/16 23/23/16
f 28/28/20 27/27/18 24/24/18
f 25/25/16 27/27/19 29/29/19
f 27/27/18 28/28/20 30/30/20
f 30/30/21 29/29/19 27/27/19
f 31/31/22 30/30/20 28/28/20
f 29/29/19 30/30/21 32/32/21
f 30/30/20 31/31/22 33/33/22
f 30/30/21 34/34/23 32/32/21
f 31/31/22 35/33/24 33/33/22
f 34/34/23 30/30/21 33/33/23
f 35/33/24 31/31/22 36/31/24
f 35/33/25 34/34/23 33/33/23
f 36/31/24 37/35/26 35/33/24
f 34/34/23 35/33/25 38/34/25
f 37/35/26 36/31/24 39/36/26
f 37/35/27 38/34/25 35/33/25
f 40/26/28 37/35/28 39/36/28
f 38/34/25 37/35/27 41/37/27
f 37/35/28 40/26/28 41/37/28
usemtl material_1_0
f 3//29 2//29 1//30
f 4//30 1//30 2//29
f 2//29 3//29 5//31
f 1//30 4//30 6//32
f 4//33 2//34 7//33
f 8//31 5//31 3//29
f 2//34 5//35 9//34
f 10//32 6//32 4//30
f 9//34 7//33 2//34
f 7//33 11//36 4//33
f 5//31 8//31 12//37
f 13//35 9//34 5//35
f 6//32 10//32 14//38
f 10//36 4//33 11//36
f 15//37 12//37 8//31
f 5//35 12//39 13//35
f 16//38 14//38 10//32
f 11//36 17//40 10//36
f 12//37 15//37 18//41
f 19//39 13//35 12//39
f 14//38 16//38 20//42
f 16//40 10//36 17//40
f 21//41 18//41 15//37
f 18//43 22//43 12//39
f 19//39 12//39 22//43
f 23//42 20//42 16//38
f 16//40 17//40 23//44
f 18//28 21//28 22//28
f 20//42 23//42 24//45
f 25//44 23//44 17//40
f 26//28 22//28 21//28
f 27//45 24//45 23//42
f 23//44 25//44 27//46
f 24//45 27//45 28//47
f 29//46 27//46 25//44
f 30//47 28//47 27//45
f 27//46 29//46 30//48
f 28//47 30//47 31//49
f 32//48 30//48 29//46
f 33//49 31//49 30//47
f 32//48 34//50 30//48
f 33//49 35//51 31//49
f 33//50 30//48 34//50
f 36//51 31//49 35//51
f 33//50 34//50 35//52
f 35//51 37//53 36//51
f 38//52 35//52 34//50
f 39//53 36//51 37//53
f 35//52 38//52 37//54
f 39//17 37//17 40//17
f 41//54 37//54 38//52
f 41//17 40//17 37//17
