# SSTK version 0.8.0
# 42
mtllib original-42.mtl
o LT_11_BC1/LT_11_BC/mesh33/mesh33-geometry#mesh33-geometry
v -0.100346 -0.441719 0.357436
v -0.610074 -0.445445 0.357436
v -0.100346 -0.445445 0.357436
v -0.610074 -0.441719 0.357436
v -0.610074 -0.451461 0.356450
v -0.100346 -0.440503 0.357762
v -0.100346 -0.451461 0.356450
v -0.610074 -0.440503 0.357762
v -0.610074 -0.453200 0.355756
v -0.610074 -0.439612 0.358652
v -0.100346 -0.453200 0.355756
v -0.100346 -0.439612 0.358652
v -0.610074 -0.454530 0.354439
v -0.610074 -0.439286 0.359869
v -0.100346 -0.454530 0.354439
v -0.100346 -0.439286 0.359869
v -0.100346 -0.455242 0.352709
v -0.610074 -0.439286 0.361573
v -0.610074 -0.455242 0.352709
v -0.100346 -0.439286 0.361573
v -0.610074 -0.457188 0.352627
v -0.100346 -0.395556 0.361573
v -0.100346 -0.457188 0.352627
v -0.610074 -0.395556 0.361573
v -0.610074 -0.458734 0.351443
v -0.610074 -0.395556 0.357436
v -0.100346 -0.458734 0.351443
v -0.100346 -0.395556 0.357436
v -0.100346 -0.459321 0.349585
v -0.100346 -0.389942 0.357436
v -0.610074 -0.459321 0.349585
v -0.610074 -0.389942 0.357436
v -0.100346 -0.459321 0.346596
v -0.100346 -0.387498 0.356899
v -0.610074 -0.459321 0.346596
v -0.610074 -0.387498 0.356899
v -0.100346 -0.451505 0.334760
v -0.100346 -0.385504 0.355387
v -0.610074 -0.451505 0.334760
v -0.610074 -0.385504 0.355387
v -0.100346 -0.451505 0.333207
v -0.610074 -0.384328 0.353178
v -0.610074 -0.451505 0.333207
v -0.100346 -0.384328 0.353178
v -0.610074 -0.376588 0.333207
v -0.610074 -0.384328 0.351912
v -0.100346 -0.376588 0.333207
v -0.100346 -0.384328 0.351912
v -0.100346 -0.376588 0.338147
v -0.100346 -0.377533 0.350091
v -0.610074 -0.376588 0.338147
v -0.610074 -0.377533 0.350091
v -0.610074 -0.368409 0.338147
v -0.100346 -0.376841 0.349399
v -0.100346 -0.368409 0.338147
v -0.610074 -0.376841 0.349399
v -0.610074 -0.376588 0.348454
v -0.100346 -0.376588 0.348454
v -0.610074 -0.376588 0.345238
v -0.100346 -0.376588 0.345238
v -0.100346 -0.368409 0.345238
v -0.610074 -0.368409 0.345238
vt 1.61611 0.009696
vt 1.373089 0.007643
vt 1.61611 0.007643
vt 1.373089 0.009696
vt 1.373089 0.004329
vt 1.61611 0.010366
vt 1.61611 0.004329
vt 1.373089 0.010366
vt 1.373089 0.003372
vt 1.373089 0.010856
vt 1.61611 0.003372
vt 1.61611 0.010856
vt 1.373089 0.002639
vt 1.373089 0.011036
vt 1.61611 0.002639
vt 1.61611 0.011036
vt 1.61611 0.002247
vt 1.373089 0.002247
vt 1.373089 0.001175
vt 1.61611 0.035124
vt 1.61611 0.001175
vt 1.373089 0.035124
vt 1.373089 0.000323
vt 1.61611 0.000323
vt 1.61611 0
vt 1.61611 0.038217
vt 1.373089 0
vt 1.373089 0.038217
vt 1.61611 0.039563
vt 1.373089 0.039563
vt 1.61611 0.004305
vt 1.61611 0.040661
vt 1.373089 0.004305
vt 1.373089 0.040661
vt 1.373089 0.041309
vt 1.61611 0.041309
vt 1.373089 0.045573
vt 1.61611 0.045573
vt 1.61611 0.045052
vt 1.373089 0.045052
vt 1.61611 0.045433
vt 1.373089 0.045433
vt 1.536901 0.050078
vt 1.779921 0.045573
vt 1.536901 0.045573
vt 1.779921 0.050078
vn 0 -0.13052598533534132 0.9914448886106773
vn 0 -0.08117498901601025 0.9966998651340585
vn 0 -0.26778889221432334 0.9634776121979303
vn 0 -0.500000174843842 0.8660253028382761
vn 0 -0.5479590874800316 0.8365051335455457
vn 0 -0.8660253028382763 0.5000001748438415
vn 0 -0.8307398269897266 0.5566608840695378
vn 0 -0.9914448886106773 0.13052598533534088
vn 0 -0.9248689496145284 0.3802859792825906
vn 0 -1 0
vn 0 -0.340767813987169 0.9401474868074722
vn 0 -0.041955021015569194 0.9991195004660768
vn 0 0 1
vn 0 -0.8187698428846325 0.5741218898306126
vn 0 1 0
vn 0 -0.988336156236192 0.15228802407369255
vn 0 0.10793894836822572 0.9941575244523182
vn 0 -0.9577262639316767 -0.2876810792795945
vn 0 0.4192320527257703 0.9078791141816938
vn 0 0.7612240147308266 0.6484890125492355
vn 0 0.8826627565537013 0.47000687036789324
vn 0 0 -1
vn 0 0.5000001748438415 0.8660253028382763
vn 0 0.2588189595935752 0.9659258492011171
vn 0 0.8660253028382761 0.500000174843842
vn 0 0.9914448886106773 0.13052598533534132
vn 0 0.08117498901601025 -0.9966998651340585
vn 0 0.13052598533534132 -0.9914448886106773
vn 0 0.26778889221432334 -0.9634776121979303
vn 0 0.500000174843842 -0.8660253028382761
vn 0 0.5479590874800316 -0.8365051335455457
vn 0 0.8660253028382763 -0.5000001748438415
vn 0 0.8307398269897266 -0.5566608840695378
vn 0 0.9914448886106773 -0.13052598533534088
vn 0 0.9248689496145284 -0.3802859792825906
vn 0 0.041955021015569194 -0.9991195004660768
vn 0 0.340767813987169 -0.9401474868074722
vn 0 0.8187698428846325 -0.5741218898306126
vn 0 0.988336156236192 -0.15228802407369255
vn 0 -0.10793894836822572 -0.9941575244523182
vn 0 0.9577262639316767 0.2876810792795945
vn 0 -0.4192320527257703 -0.9078791141816938
vn 0 -0.7612240147308266 -0.6484890125492355
vn 0 -0.8826627565537013 -0.47000687036789324
vn 0 -0.2588189595935752 -0.9659258492011171
vn 0 -0.5000001748438415 -0.8660253028382763
vn 0 -0.8660253028382761 -0.500000174843842
vn 0 -0.9914448886106773 -0.13052598533534132
usemtl material_0_0
f 1/1/1 2/2/2 3/3/2
f 2/2/2 1/1/1 4/4/1
f 5/5/3 3/3/2 2/2/2
f 6/6/4 4/4/1 1/1/1
f 3/3/2 5/5/3 7/7/3
f 4/4/1 6/6/4 8/8/4
f 9/9/5 7/7/3 5/5/3
f 6/6/4 10/10/6 8/8/4
f 7/7/3 9/9/5 11/11/5
f 10/10/6 6/6/4 12/12/6
f 13/13/7 11/11/5 9/9/5
f 12/12/6 14/14/8 10/10/6
f 11/11/5 13/13/7 15/15/7
f 14/14/8 12/12/6 16/16/8
f 13/13/7 17/17/9 15/15/7
f 16/16/8 18/14/10 14/14/8
f 17/17/9 13/13/7 19/18/9
f 18/14/10 16/16/8 20/16/10
f 21/19/11 17/17/12 19/18/12
f 22/20/13 18/14/13 20/16/13
f 17/17/12 21/19/11 23/21/11
f 18/14/13 22/20/13 24/22/13
f 25/23/14 23/21/11 21/19/11
f 22/20/15 26/22/15 24/22/15
f 23/21/11 25/23/14 27/24/14
f 26/22/15 22/20/15 28/20/15
f 25/23/14 29/25/16 27/24/14
f 30/26/17 26/22/13 28/20/13
f 29/25/16 25/23/14 31/27/16
f 26/22/13 30/26/17 32/28/17
f 31/27/16 33/25/18 29/25/16
f 34/29/19 32/28/17 30/26/17
f 33/25/18 31/27/16 35/27/18
f 32/28/17 34/29/19 36/30/19
f 35/27/18 37/31/18 33/25/18
f 38/32/20 36/30/19 34/29/19
f 37/31/18 35/27/18 39/33/18
f 36/30/19 38/32/20 40/34/20
f 39/33/18 41/31/10 37/31/18
f 38/32/20 42/35/21 40/34/20
f 41/31/10 39/33/18 43/33/10
f 42/35/21 38/32/20 44/36/21
f 45/37/22 41/31/22 43/33/22
f 44/36/15 46/35/15 42/35/15
f 41/31/22 45/37/22 47/38/22
f 46/35/15 44/36/15 48/36/15
f 45/37/15 49/38/15 47/38/15
f 50/39/23 46/35/24 48/36/24
f 49/38/15 45/37/15 51/37/15
f 46/35/24 50/39/23 52/40/23
f 54/41/25 52/40/23 50/39/23
f 52/40/23 54/41/25 56/42/25
f 54/41/25 57/37/26 56/42/25
f 57/37/26 54/41/25 58/38/26
f 58/38/26 59/37/15 57/37/26
f 59/37/15 58/38/26 60/38/15
usemtl material_1_0
f 3//27 2//27 1//28
f 4//28 1//28 2//27
f 2//27 3//27 5//29
f 1//28 4//28 6//30
f 7//29 5//29 3//27
f 8//30 6//30 4//28
f 5//29 7//29 9//31
f 8//30 10//32 6//30
f 11//31 9//31 7//29
f 12//32 6//30 10//32
f 9//31 11//31 13//33
f 10//32 14//34 12//32
f 15//33 13//33 11//31
f 16//34 12//32 14//34
f 15//33 17//35 13//33
f 14//34 18//15 16//34
f 19//35 13//33 17//35
f 20//15 16//34 18//15
f 19//36 17//36 21//37
f 20//22 18//22 22//22
f 23//37 21//37 17//36
f 24//22 22//22 18//22
f 21//37 23//37 25//38
f 24//10 26//10 22//10
f 27//38 25//38 23//37
f 28//10 22//10 26//10
f 27//38 29//39 25//38
f 28//22 26//22 30//40
f 31//39 25//38 29//39
f 32//40 30//40 26//22
f 29//39 33//41 31//39
f 30//40 32//40 34//42
f 35//41 31//39 33//41
f 36//42 34//42 32//40
f 33//41 37//41 35//41
f 34//42 36//42 38//43
f 39//41 35//41 37//41
f 40//43 38//43 36//42
f 37//41 41//15 39//41
f 40//43 42//44 38//43
f 43//15 39//41 41//15
f 44//44 38//43 42//44
f 43//13 41//13 45//13
f 42//10 46//10 44//10
f 47//13 45//13 41//13
f 48//10 44//10 46//10
f 47//10 49//10 45//10
f 48//45 46//45 50//46
f 51//10 45//10 49//10
f 52//46 50//46 46//45
f 51//13 49//13 53//13
f 50//46 52//46 54//47
f 55//13 53//13 49//13
f 56//47 54//47 52//46
f 56//47 57//48 54//47
f 58//48 54//47 57//48
f 57//48 59//10 58//48
f 60//10 58//48 59//10
f 60//22 59//22 61//22
f 62//22 61//22 59//22
usemtl material_2_0
f 53/43/22 49/44/22 51/45/22
f 49/44/22 53/43/22 55/46/22
f 61/46/13 59/45/13 60/44/13
f 59/45/13 61/46/13 62/43/13
