# SSTK version 0.8.0
# 41
mtllib original-41.mtl
o LT_11_TC1/LT_11_TC/mesh32/mesh32-geometry#mesh32-geometry
v -0.100346 0.290059 0.357436
v -0.610074 0.290059 0.361573
v -0.610074 0.290059 0.357436
v -0.100346 0.290059 0.361573
v -0.610074 0.284445 0.357436
v -0.100346 0.333789 0.361573
v -0.100346 0.284445 0.357436
v -0.610074 0.333789 0.361573
v -0.610074 0.282001 0.356899
v -0.610074 0.333789 0.359869
v -0.100346 0.282001 0.356899
v -0.100346 0.333789 0.359869
v -0.610074 0.280007 0.355387
v -0.610074 0.334115 0.358652
v -0.100346 0.280007 0.355387
v -0.100346 0.334115 0.358652
v -0.100346 0.278831 0.353178
v -0.100346 0.335005 0.357762
v -0.610074 0.278831 0.353178
v -0.610074 0.335005 0.357762
v -0.100346 0.278831 0.351912
v -0.100346 0.336221 0.357436
v -0.610074 0.278831 0.351912
v -0.610074 0.336221 0.357436
v -0.610074 0.272036 0.350091
v -0.100346 0.339948 0.357436
v -0.100346 0.272036 0.350091
v -0.610074 0.339948 0.357436
v -0.610074 0.271344 0.349399
v -0.100346 0.345964 0.356450
v -0.100346 0.271344 0.349399
v -0.610074 0.345964 0.356450
v -0.100346 0.271091 0.348454
v -0.100346 0.347702 0.355756
v -0.610074 0.271091 0.348454
v -0.610074 0.347702 0.355756
v -0.100346 0.271091 0.345238
v -0.100346 0.349033 0.354439
v -0.610074 0.271091 0.345238
v -0.610074 0.349033 0.354439
v -0.610074 0.262912 0.345238
v -0.610074 0.349744 0.352709
v -0.100346 0.262912 0.345238
v -0.100346 0.349744 0.352709
v -0.100346 0.351690 0.352627
v -0.610074 0.351690 0.352627
v -0.100346 0.353237 0.351443
v -0.610074 0.353237 0.351443
v -0.610074 0.353823 0.349585
v -0.100346 0.353823 0.349585
v -0.610074 0.353823 0.346596
v -0.100346 0.353823 0.346596
v -0.610074 0.346008 0.334760
v -0.100346 0.346008 0.334760
v -0.610074 0.346008 0.333207
v -0.100346 0.346008 0.333207
v -0.100346 0.271091 0.333207
v -0.610074 0.271091 0.333207
v -0.610074 0.271091 0.338147
v -0.100346 0.271091 0.338147
v -0.100346 0.262912 0.338147
v -0.610074 0.262912 0.338147
vt 1.61611 0.446646
vt 1.373089 0.446646
vt 1.373089 0.443554
vt 1.61611 0.470735
vt 1.61611 0.443554
vt 1.373089 0.470735
vt 1.373089 0.442208
vt 1.61611 0.442208
vt 1.373089 0.441109
vt 1.373089 0.470914
vt 1.61611 0.441109
vt 1.61611 0.470914
vt 1.61611 0.440461
vt 1.61611 0.471405
vt 1.373089 0.440461
vt 1.373089 0.471405
vt 1.61611 0.472075
vt 1.373089 0.472075
vt 1.373089 0.436719
vt 1.61611 0.474128
vt 1.61611 0.436719
vt 1.373089 0.474128
vt 1.373089 0.436337
vt 1.61611 0.477442
vt 1.61611 0.436337
vt 1.373089 0.477442
vt 1.61611 0.436198
vt 1.61611 0.478399
vt 1.373089 0.436198
vt 1.373089 0.478399
vt 1.61611 0.479132
vt 1.373089 0.479132
vt 1.373089 0.479524
vt 1.61611 0.479524
vt 1.61611 0.480596
vt 1.373089 0.480596
vt 1.61611 0.481448
vt 1.373089 0.481448
vt 1.373089 0.481771
vt 1.61611 0.481771
vt 1.373089 0.477466
vt 1.61611 0.477466
vt 1.536901 0.431693
vt 1.779921 0.436198
vt 1.536901 0.436198
vt 1.779921 0.431693
vn 0 -1 0
vn 0 -0.10793894836822614 0.994157524452318
vn 0 0 1
vn 0 -0.41923205272577074 0.9078791141816935
vn 0 1 0
vn 0 0.9914448886106773 0.13052598533534132
vn 0 -0.7612240147308268 0.6484890125492351
vn 0 0.8660253028382761 0.500000174843842
vn 0 -0.8826627565537015 0.4700068703678928
vn 0 0.5000001748438415 0.8660253028382763
vn 0 0.13052598533534088 0.9914448886106773
vn 0 -0.500000174843842 0.8660253028382761
vn 0 -0.2588189595935757 0.9659258492011171
vn 0 0.08117498901600982 0.9966998651340587
vn 0 -0.8660253028382763 0.5000001748438415
vn 0 0.2677888922143229 0.9634776121979305
vn 0 -0.9914448886106773 0.13052598533534088
vn 0 0.5479590874800312 0.8365051335455459
vn 0 0.8307398269897261 0.5566608840695382
vn 0 0.9248689496145281 0.38028597928259106
vn 0 0.34076781398716854 0.9401474868074724
vn 0 0.04195502101556875 0.9991195004660768
vn 0 0.8187698428846323 0.5741218898306131
vn 0 0.988336156236192 0.152288024073693
vn 0 0.9577262639316769 -0.2876810792795941
vn 0 0 -1
vn 0 0.10793894836822614 -0.994157524452318
vn 0 0.41923205272577074 -0.9078791141816935
vn 0 -0.9914448886106773 -0.13052598533534132
vn 0 0.7612240147308268 -0.6484890125492351
vn 0 -0.8660253028382761 -0.500000174843842
vn 0 0.8826627565537015 -0.4700068703678928
vn 0 -0.5000001748438415 -0.8660253028382763
vn 0 -0.13052598533534088 -0.9914448886106773
vn 0 0.2588189595935757 -0.9659258492011171
vn 0 0.500000174843842 -0.8660253028382761
vn 0 -0.08117498901600982 -0.9966998651340587
vn 0 0.8660253028382763 -0.5000001748438415
vn 0 -0.2677888922143229 -0.9634776121979305
vn 0 0.9914448886106773 -0.13052598533534088
vn 0 -0.5479590874800312 -0.8365051335455459
vn 0 -0.8307398269897261 -0.5566608840695382
vn 0 -0.9248689496145281 -0.38028597928259106
vn 0 -0.04195502101556875 -0.9991195004660768
vn 0 -0.34076781398716854 -0.9401474868074724
vn 0 -0.8187698428846323 -0.5741218898306131
vn 0 -0.988336156236192 -0.152288024073693
vn 0 -0.9577262639316769 0.2876810792795941
usemtl material_0_0
f 1/1/1 2/2/1 3/2/1
f 2/2/1 1/1/1 4/1/1
f 5/3/2 1/1/3 3/2/3
f 6/4/3 2/2/3 4/1/3
f 1/1/3 5/3/2 7/5/2
f 2/2/3 6/4/3 8/6/3
f 9/7/4 7/5/2 5/3/2
f 6/4/5 10/6/6 8/6/5
f 7/5/2 9/7/4 11/8/4
f 10/6/6 6/4/5 12/4/6
f 13/9/7 11/8/4 9/7/4
f 12/4/6 14/10/8 10/6/6
f 11/8/4 13/9/7 15/11/7
f 14/10/8 12/4/6 16/12/8
f 13/9/7 17/13/9 15/11/7
f 18/14/10 14/10/8 16/12/8
f 17/13/9 13/9/7 19/15/9
f 14/10/8 18/14/10 20/16/10
f 19/15/1 21/13/1 17/13/1
f 22/17/11 20/16/10 18/14/10
f 21/13/1 19/15/1 23/15/1
f 20/16/10 22/17/11 24/18/11
f 25/19/12 21/13/13 23/15/13
f 26/20/14 24/18/11 22/17/11
f 21/13/13 25/19/12 27/21/12
f 24/18/11 26/20/14 28/22/14
f 29/23/15 27/21/12 25/19/12
f 30/24/16 28/22/14 26/20/14
f 27/21/12 29/23/15 31/25/15
f 28/22/14 30/24/16 32/26/16
f 29/23/15 33/27/17 31/25/15
f 34/28/18 32/26/16 30/24/16
f 33/27/17 29/23/15 35/29/17
f 32/26/16 34/28/18 36/30/18
f 35/29/17 37/27/1 33/27/17
f 38/31/19 36/30/18 34/28/18
f 37/27/1 35/29/17 39/29/1
f 36/30/18 38/31/19 40/32/19
f 38/31/19 42/33/20 40/32/19
f 42/33/20 38/31/19 44/34/20
f 45/35/21 42/33/22 44/34/22
f 42/33/22 45/35/21 46/36/21
f 47/37/23 46/36/21 45/35/21
f 46/36/21 47/37/23 48/38/23
f 47/37/23 49/39/24 48/38/23
f 49/39/24 47/37/23 50/40/24
f 50/40/24 51/39/25 49/39/24
f 51/39/25 50/40/24 52/40/25
f 52/40/25 53/41/25 51/39/25
f 53/41/25 52/40/25 54/42/25
f 54/42/25 55/41/5 53/41/25
f 55/41/5 54/42/25 56/42/5
f 57/27/26 55/41/26 56/42/26
f 55/41/26 57/27/26 58/29/26
f 57/27/1 59/29/1 58/29/1
f 59/29/1 57/27/1 60/27/1
usemtl material_1_0
f 3//5 2//5 1//5
f 4//5 1//5 2//5
f 3//26 1//26 5//27
f 4//26 2//26 6//26
f 7//27 5//27 1//26
f 8//26 6//26 2//26
f 5//27 7//27 9//28
f 8//1 10//29 6//1
f 11//28 9//28 7//27
f 12//29 6//1 10//29
f 9//28 11//28 13//30
f 10//29 14//31 12//29
f 15//30 13//30 11//28
f 16//31 12//29 14//31
f 15//30 17//32 13//30
f 16//31 14//31 18//33
f 19//32 13//30 17//32
f 20//33 18//33 14//31
f 17//5 21//5 19//5
f 18//33 20//33 22//34
f 23//5 19//5 21//5
f 24//34 22//34 20//33
f 23//35 21//35 25//36
f 22//34 24//34 26//37
f 27//36 25//36 21//35
f 28//37 26//37 24//34
f 25//36 27//36 29//38
f 26//37 28//37 30//39
f 31//38 29//38 27//36
f 32//39 30//39 28//37
f 31//38 33//40 29//38
f 30//39 32//39 34//41
f 35//40 29//38 33//40
f 36//41 34//41 32//39
f 33//40 37//5 35//40
f 34//41 36//41 38//42
f 39//5 35//40 37//5
f 40//42 38//42 36//41
f 39//26 37//26 41//26
f 40//42 42//43 38//42
f 43//26 41//26 37//26
f 44//43 38//42 42//43
f 44//44 42//44 45//45
f 46//45 45//45 42//44
f 45//45 46//45 47//46
f 48//46 47//46 46//45
f 48//46 49//47 47//46
f 50//47 47//46 49//47
f 49//47 51//48 50//47
f 52//48 50//47 51//48
f 51//48 53//48 52//48
f 54//48 52//48 53//48
f 53//48 55//1 54//48
f 56//1 54//48 55//1
f 56//3 55//3 57//3
f 58//3 57//3 55//3
f 58//5 59//5 57//5
f 60//5 57//5 59//5
f 60//3 59//3 61//3
f 62//3 61//3 59//3
usemtl material_2_0
f 41/43/3 37/44/3 39/45/3
f 37/44/3 41/43/3 43/46/3
f 61/46/26 59/45/26 60/44/26
f 59/45/26 61/46/26 62/43/26
