# SSTK version 0.8.0
# 34
mtllib original-34.mtl
o DF_12_CL1/DF_12_CL/mesh26/mesh26-geometry#mesh26-geometry
v -0.684341 0.582439 0.359463
v -0.685570 0.389952 0.358901
v -0.684341 0.389952 0.359463
v -0.685570 0.582439 0.358901
v -0.683352 0.582439 0.360385
v -0.691838 0.389952 0.357178
v -0.683352 0.389952 0.360385
v -0.691838 0.582439 0.357178
v -0.682705 0.389952 0.361573
v -0.693270 0.389952 0.356986
v -0.682705 0.582439 0.361573
v -0.693270 0.582439 0.356986
v -0.676202 0.582439 0.361573
v -0.694535 0.389952 0.356289
v -0.676202 0.389952 0.361573
v -0.694535 0.582439 0.356289
v -0.695460 0.582439 0.355180
v -0.695460 0.389952 0.355180
v -0.695895 0.582439 0.354000
v -0.695895 0.389952 0.354000
v -0.696782 0.582439 0.353107
v -0.696782 0.389952 0.353107
v -0.697959 0.389952 0.352665
v -0.697959 0.582439 0.352665
v -0.697959 0.582439 0.346755
v -0.697959 0.389952 0.346755
v -0.692068 0.582439 0.333207
v -0.692068 0.389952 0.333207
v -0.676202 0.389952 0.333207
v -0.676202 0.582439 0.333207
vt 1.534854 0.118119
vt 1.534177 0.009485
vt 1.534854 0.009485
vt 1.534177 0.118119
vt 1.535399 0.118119
vt 1.530724 0.009485
vt 1.535399 0.009485
vt 1.530724 0.118119
vt 1.535755 0.009485
vt 1.529935 0.009485
vt 1.535755 0.118119
vt 1.529935 0.118119
vt 1.539337 0.118119
vt 1.529239 0.009485
vt 1.539337 0.009485
vt 1.529239 0.118119
vt 1.528729 0.118119
vt 1.528729 0.009485
vt 1.528489 0.118119
vt 1.528489 0.009485
vt 1.528001 0.118119
vt 1.528001 0.009485
vt 1.527352 0.009485
vt 1.527352 0.118119
vt 1.530598 0.118119
vt 1.530598 0.009485
vn -0.5561451284000215 0 0.831085191876816
vn -0.3415701083399073 0 0.9398562981055477
vn -0.7902874156656056 0 0.6127363222794763
vn -0.19924609851556419 0 0.9799494845278128
vn -0.8781812000738501 0 0.4783281089763097
vn -0.313149904471131 0 0.9497037102853298
vn 0 0 1
vn -0.6362082861178815 0 0.7715173469695595
vn -0.8656245142718199 0 0.5006937190455619
vn -0.8431879188410588 0 0.5376189482528346
vn -0.5431503107567498 0 0.8396354803870821
vn -0.8221859635948395 0 0.5692189747958382
vn -0.9790396130346695 0 -0.2036699194994802
vn -0.9170370483402338 0 -0.39880202102225093
vn 0 0 -1
vn 0.5561451284000215 0 -0.831085191876816
vn 0.3415701083399073 0 -0.9398562981055477
vn 0.7902874156656056 0 -0.6127363222794763
vn 0.19924609851556419 0 -0.9799494845278128
vn 0.8781812000738501 0 -0.4783281089763097
vn 0.313149904471131 0 -0.9497037102853298
vn 0.6362082861178815 0 -0.7715173469695595
vn 0.8656245142718199 0 -0.5006937190455619
vn 0.8431879188410588 0 -0.5376189482528346
vn 0.5431503107567498 0 -0.8396354803870821
vn 0.8221859635948395 0 -0.5692189747958382
vn 0.9790396130346695 0 0.2036699194994802
vn 0.9170370483402338 0 0.39880202102225093
usemtl material_0_0
f 1/1/1 2/2/2 3/3/1
f 2/2/2 1/1/1 4/4/2
f 3/3/1 5/5/3 1/1/1
f 4/4/2 6/6/4 2/2/2
f 5/5/3 3/3/1 7/7/3
f 6/6/4 4/4/2 8/8/4
f 9/9/5 5/5/3 7/7/3
f 8/8/4 10/10/6 6/6/4
f 5/5/3 9/9/5 11/11/5
f 10/10/6 8/8/4 12/12/6
f 9/9/7 13/13/7 11/11/7
f 12/12/6 14/14/8 10/10/6
f 13/13/7 9/9/7 15/15/7
f 14/14/8 12/12/6 16/16/8
f 17/17/9 14/14/8 16/16/8
f 14/14/8 17/17/9 18/18/9
f 19/19/10 18/18/9 17/17/9
f 18/18/9 19/19/10 20/20/10
f 21/21/11 20/20/10 19/19/10
f 20/20/10 21/21/11 22/22/11
f 21/21/11 23/23/12 22/22/11
f 23/23/12 21/21/11 24/24/12
f 25/24/13 23/23/12 24/24/12
f 23/23/12 25/24/13 26/23/13
f 27/25/14 26/23/13 25/24/13
f 26/23/13 27/25/14 28/26/14
f 27/25/15 29/15/15 28/26/15
f 29/15/15 27/25/15 30/13/15
usemtl material_1_0
f 3//16 2//17 1//16
f 4//17 1//16 2//17
f 1//16 5//18 3//16
f 2//17 6//19 4//17
f 7//18 3//16 5//18
f 8//19 4//17 6//19
f 7//18 5//18 9//20
f 6//19 10//21 8//19
f 11//20 9//20 5//18
f 12//21 8//19 10//21
f 11//15 13//15 9//15
f 10//21 14//22 12//21
f 15//15 9//15 13//15
f 16//22 12//21 14//22
f 16//22 14//22 17//23
f 18//23 17//23 14//22
f 17//23 18//23 19//24
f 20//24 19//24 18//23
f 19//24 20//24 21//25
f 22//25 21//25 20//24
f 22//25 23//26 21//25
f 24//26 21//25 23//26
f 24//26 23//26 25//27
f 26//27 25//27 23//26
f 25//27 26//27 27//28
f 28//28 27//28 26//27
f 28//7 29//7 27//7
f 30//7 27//7 29//7
