# SSTK version 0.8.0
# 35
mtllib original-35.mtl
o DF_12_CR1/DF_12_CR/mesh27/mesh27-geometry#mesh27-geometry
v 0.698906 0.389952 0.355180
v 0.697980 0.582439 0.356289
v 0.697980 0.389952 0.356289
v 0.698906 0.582439 0.355180
v 0.696715 0.389952 0.356986
v 0.699341 0.389952 0.354000
v 0.696715 0.582439 0.356986
v 0.699341 0.582439 0.354000
v 0.695283 0.389952 0.357178
v 0.700227 0.389952 0.353107
v 0.695283 0.582439 0.357178
v 0.700227 0.582439 0.353107
v 0.689015 0.389952 0.358901
v 0.701405 0.582439 0.352665
v 0.689015 0.582439 0.358901
v 0.701405 0.389952 0.352665
v 0.687786 0.389952 0.359463
v 0.701405 0.389952 0.346755
v 0.687786 0.582439 0.359463
v 0.701405 0.582439 0.346755
v 0.686797 0.389952 0.360385
v 0.695513 0.389952 0.333207
v 0.686797 0.582439 0.360385
v 0.695513 0.582439 0.333207
v 0.686150 0.582439 0.361573
v 0.679647 0.582439 0.333207
v 0.686150 0.389952 0.361573
v 0.679647 0.389952 0.333207
v 0.679647 0.389952 0.361573
v 0.679647 0.582439 0.361573
vt 2.143163 0.009485
vt 2.142653 0.118119
vt 2.142653 0.009485
vt 2.143163 0.118119
vt 2.141956 0.009485
vt 2.143403 0.009485
vt 2.141956 0.118119
vt 2.143403 0.118119
vt 2.141168 0.009485
vt 2.143891 0.009485
vt 2.141168 0.118119
vt 2.143891 0.118119
vt 2.137715 0.009485
vt 2.14454 0.118119
vt 2.137715 0.118119
vt 2.14454 0.009485
vt 2.137038 0.009485
vt 2.137038 0.118119
vt 2.136493 0.009485
vt 2.141294 0.009485
vt 2.136493 0.118119
vt 2.141294 0.118119
vt 2.136137 0.118119
vt 2.132555 0.118119
vt 2.136137 0.009485
vt 2.132555 0.009485
vn 0.8656245142718199 0 0.5006937190455619
vn 0.6362082861178815 0 0.7715173469695595
vn 0.313149904471131 0 0.9497037102853298
vn 0.8431879188410588 0 0.5376189482528346
vn 0.19924609851556419 0 0.9799494845278128
vn 0.5431503107567498 0 0.8396354803870821
vn 0.3415701083399073 0 0.9398562981055477
vn 0.8221859635948395 0 0.5692189747958382
vn 0.5561451284000215 0 0.831085191876816
vn 0.9790396130346695 0 -0.2036699194994802
vn 0.7902874156656056 0 0.6127363222794763
vn 0.9170370483402338 0 -0.39880202102225093
vn 0.8781812000738501 0 0.4783281089763097
vn 0 0 -1
vn 0 0 1
vn -0.6362082861178815 0 -0.7715173469695595
vn -0.8656245142718199 0 -0.5006937190455619
vn -0.313149904471131 0 -0.9497037102853298
vn -0.8431879188410588 0 -0.5376189482528346
vn -0.19924609851556419 0 -0.9799494845278128
vn -0.5431503107567498 0 -0.8396354803870821
vn -0.3415701083399073 0 -0.9398562981055477
vn -0.8221859635948395 0 -0.5692189747958382
vn -0.5561451284000215 0 -0.831085191876816
vn -0.9790396130346695 0 0.2036699194994802
vn -0.7902874156656056 0 -0.6127363222794763
vn -0.9170370483402338 0 0.39880202102225093
vn -0.8781812000738501 0 -0.4783281089763097
usemtl material_0_0
f 1/1/1 2/2/2 3/3/2
f 2/2/2 1/1/1 4/4/1
f 2/2/2 5/5/3 3/3/2
f 6/6/4 4/4/1 1/1/1
f 5/5/3 2/2/2 7/7/3
f 4/4/1 6/6/4 8/8/4
f 7/7/3 9/9/5 5/5/3
f 10/10/6 8/8/4 6/6/4
f 9/9/5 7/7/3 11/11/5
f 8/8/4 10/10/6 12/12/6
f 11/11/5 13/13/7 9/9/5
f 10/10/6 14/14/8 12/12/6
f 13/13/7 11/11/5 15/15/7
f 14/14/8 10/10/6 16/16/8
f 15/15/7 17/17/9 13/13/7
f 18/16/10 14/14/8 16/16/8
f 17/17/9 15/15/7 19/18/9
f 14/14/8 18/16/10 20/14/10
f 19/18/9 21/19/11 17/17/9
f 22/20/12 20/14/10 18/16/10
f 21/19/11 19/18/9 23/21/11
f 20/14/10 22/20/12 24/22/12
f 25/23/13 21/19/11 23/21/11
f 22/20/14 26/24/14 24/22/14
f 21/19/11 25/23/13 27/25/13
f 26/24/14 22/20/14 28/26/14
f 25/23/15 29/26/15 27/25/15
f 29/26/15 25/23/15 30/24/15
usemtl material_1_0
f 3//16 2//16 1//17
f 4//17 1//17 2//16
f 3//16 5//18 2//16
f 1//17 4//17 6//19
f 7//18 2//16 5//18
f 8//19 6//19 4//17
f 5//18 9//20 7//18
f 6//19 8//19 10//21
f 11//20 7//18 9//20
f 12//21 10//21 8//19
f 9//20 13//22 11//20
f 12//21 14//23 10//21
f 15//22 11//20 13//22
f 16//23 10//21 14//23
f 13//22 17//24 15//22
f 16//23 14//23 18//25
f 19//24 15//22 17//24
f 20//25 18//25 14//23
f 17//24 21//26 19//24
f 18//25 20//25 22//27
f 23//26 19//24 21//26
f 24//27 22//27 20//25
f 23//26 21//26 25//28
f 24//15 26//15 22//15
f 27//28 25//28 21//26
f 28//15 22//15 26//15
f 27//14 29//14 25//14
f 30//14 25//14 29//14
