# SSTK version 0.8.0
# 55
mtllib original-55.mtl
o RT_11_TC1/RT_11_TC/mesh44/mesh44-geometry#mesh44-geometry
v 0.613519 0.347702 0.355756
v 0.103791 0.345964 0.356450
v 0.613519 0.345964 0.356450
v 0.103791 0.347702 0.355756
v 0.103791 0.339948 0.357436
v 0.613519 0.349033 0.354439
v 0.613519 0.339948 0.357436
v 0.103791 0.349033 0.354439
v 0.103791 0.336221 0.357436
v 0.103791 0.349744 0.352709
v 0.613519 0.336221 0.357436
v 0.613519 0.349744 0.352709
v 0.103791 0.335005 0.357762
v 0.613519 0.351690 0.352627
v 0.613519 0.335005 0.357762
v 0.103791 0.351690 0.352627
v 0.103791 0.334115 0.358652
v 0.613519 0.353237 0.351443
v 0.613519 0.334115 0.358652
v 0.103791 0.353237 0.351443
v 0.613519 0.333789 0.359869
v 0.103791 0.353823 0.349585
v 0.103791 0.333789 0.359869
v 0.613519 0.353823 0.349585
v 0.613519 0.333789 0.361573
v 0.103791 0.353823 0.346596
v 0.103791 0.333789 0.361573
v 0.613519 0.353823 0.346596
v 0.103791 0.290059 0.361573
v 0.103791 0.346008 0.334760
v 0.613519 0.290059 0.361573
v 0.613519 0.346008 0.334760
v 0.613519 0.290059 0.357436
v 0.103791 0.346008 0.333207
v 0.103791 0.290059 0.357436
v 0.613519 0.346008 0.333207
v 0.103791 0.284445 0.357436
v 0.613519 0.271091 0.333207
v 0.613519 0.284445 0.357436
v 0.103791 0.271091 0.333207
v 0.103791 0.282001 0.356899
v 0.103791 0.271091 0.338147
v 0.613519 0.282001 0.356899
v 0.613519 0.271091 0.338147
v 0.103791 0.280007 0.355387
v 0.613519 0.262912 0.338147
v 0.613519 0.280007 0.355387
v 0.103791 0.262912 0.338147
v 0.613519 0.278831 0.353178
v 0.103791 0.278831 0.353178
v 0.613519 0.278831 0.351912
v 0.103791 0.278831 0.351912
v 0.103791 0.272036 0.350091
v 0.613519 0.272036 0.350091
v 0.103791 0.271344 0.349399
v 0.613519 0.271344 0.349399
v 0.613519 0.271091 0.348454
v 0.103791 0.271091 0.348454
v 0.613519 0.271091 0.345238
v 0.103791 0.271091 0.345238
v 0.103791 0.262912 0.345238
v 0.613519 0.262912 0.345238
vt 1.61611 0.478399
vt 1.373089 0.477442
vt 1.61611 0.477442
vt 1.373089 0.478399
vt 1.373089 0.474128
vt 1.61611 0.479132
vt 1.61611 0.474128
vt 1.373089 0.479132
vt 1.373089 0.472075
vt 1.373089 0.479524
vt 1.61611 0.472075
vt 1.61611 0.479524
vt 1.373089 0.471405
vt 1.61611 0.480596
vt 1.61611 0.471405
vt 1.373089 0.480596
vt 1.373089 0.470914
vt 1.61611 0.481448
vt 1.61611 0.470914
vt 1.373089 0.481448
vt 1.61611 0.470735
vt 1.373089 0.481771
vt 1.373089 0.470735
vt 1.61611 0.481771
vt 1.373089 0.446646
vt 1.373089 0.477466
vt 1.61611 0.446646
vt 1.61611 0.477466
vt 1.373089 0.443554
vt 1.61611 0.436198
vt 1.61611 0.443554
vt 1.373089 0.436198
vt 1.373089 0.442208
vt 1.61611 0.442208
vt 1.373089 0.441109
vt 1.61611 0.441109
vt 1.61611 0.440461
vt 1.373089 0.440461
vt 1.373089 0.436719
vt 1.61611 0.436719
vt 1.373089 0.436337
vt 1.61611 0.436337
vt 1.779921 0.431693
vt 1.536901 0.436198
vt 1.779921 0.436198
vt 1.536901 0.431693
vn 0 0.5479590874800312 0.8365051335455459
vn 0 0.2677888922143229 0.9634776121979305
vn 0 0.08117498901600982 0.9966998651340587
vn 0 0.8307398269897261 0.5566608840695382
vn 0 0.13052598533534088 0.9914448886106773
vn 0 0.9248689496145281 0.38028597928259106
vn 0 0.5000001748438415 0.8660253028382763
vn 0 0.34076781398716854 0.9401474868074724
vn 0 0.04195502101556875 0.9991195004660768
vn 0 0.8660253028382761 0.500000174843842
vn 0 0.8187698428846323 0.5741218898306131
vn 0 0.9914448886106773 0.13052598533534132
vn 0 0.988336156236192 0.152288024073693
vn 0 1 0
vn 0 0.9577262639316769 -0.2876810792795941
vn 0 0 1
vn 0 -1 0
vn 0 -0.10793894836822614 0.994157524452318
vn 0 0 -1
vn 0 -0.41923205272577074 0.9078791141816935
vn 0 -0.7612240147308268 0.6484890125492351
vn 0 -0.8826627565537015 0.4700068703678928
vn 0 -0.500000174843842 0.8660253028382761
vn 0 -0.2588189595935757 0.9659258492011171
vn 0 -0.8660253028382763 0.5000001748438415
vn 0 -0.9914448886106773 0.13052598533534088
vn 0 -0.2677888922143229 -0.9634776121979305
vn 0 -0.5479590874800312 -0.8365051335455459
vn 0 -0.08117498901600982 -0.9966998651340587
vn 0 -0.8307398269897261 -0.5566608840695382
vn 0 -0.13052598533534088 -0.9914448886106773
vn 0 -0.9248689496145281 -0.38028597928259106
vn 0 -0.5000001748438415 -0.8660253028382763
vn 0 -0.04195502101556875 -0.9991195004660768
vn 0 -0.34076781398716854 -0.9401474868074724
vn 0 -0.8660253028382761 -0.500000174843842
vn 0 -0.8187698428846323 -0.5741218898306131
vn 0 -0.9914448886106773 -0.13052598533534132
vn 0 -0.988336156236192 -0.152288024073693
vn 0 -0.9577262639316769 0.2876810792795941
vn 0 0.10793894836822614 -0.994157524452318
vn 0 0.41923205272577074 -0.9078791141816935
vn 0 0.7612240147308268 -0.6484890125492351
vn 0 0.8826627565537015 -0.4700068703678928
vn 0 0.2588189595935757 -0.9659258492011171
vn 0 0.500000174843842 -0.8660253028382761
vn 0 0.8660253028382763 -0.5000001748438415
vn 0 0.9914448886106773 -0.13052598533534088
usemtl material_0_0
f 1/1/1 2/2/2 3/3/2
f 2/2/2 1/1/1 4/4/1
f 5/5/3 3/3/2 2/2/2
f 6/6/4 4/4/1 1/1/1
f 3/3/2 5/5/3 7/7/3
f 4/4/1 6/6/4 8/8/4
f 9/9/5 7/7/3 5/5/3
f 6/6/4 10/10/6 8/8/4
f 7/7/3 9/9/5 11/11/5
f 10/10/6 6/6/4 12/12/6
f 13/13/7 11/11/5 9/9/5
f 14/14/8 10/10/9 12/12/9
f 11/11/5 13/13/7 15/15/7
f 10/10/9 14/14/8 16/16/8
f 17/17/10 15/15/7 13/13/7
f 18/18/11 16/16/8 14/14/8
f 15/15/7 17/17/10 19/19/10
f 16/16/8 18/18/11 20/20/11
f 17/17/10 21/21/12 19/19/10
f 18/18/11 22/22/13 20/20/11
f 21/21/12 17/17/10 23/23/12
f 22/22/13 18/18/11 24/24/13
f 23/23/12 25/21/14 21/21/12
f 24/24/13 26/22/15 22/22/13
f 25/21/14 23/23/12 27/23/14
f 26/22/15 24/24/13 28/24/15
f 29/25/16 25/21/16 27/23/16
f 28/24/15 30/26/15 26/22/15
f 25/21/16 29/25/16 31/27/16
f 30/26/15 28/24/15 32/28/15
f 29/25/17 33/27/17 31/27/17
f 32/28/15 34/26/14 30/26/15
f 33/27/17 29/25/17 35/25/17
f 34/26/14 32/28/15 36/28/14
f 37/29/18 33/27/16 35/25/16
f 38/30/19 34/26/19 36/28/19
f 33/27/16 37/29/18 39/31/18
f 34/26/19 38/30/19 40/32/19
f 41/33/20 39/31/18 37/29/18
f 38/30/17 42/32/17 40/32/17
f 39/31/18 41/33/20 43/34/20
f 42/32/17 38/30/17 44/30/17
f 45/35/21 43/34/20 41/33/20
f 43/34/20 45/35/21 47/36/21
f 45/35/21 49/37/22 47/36/21
f 49/37/22 45/35/21 50/38/22
f 50/38/17 51/37/17 49/37/17
f 51/37/17 50/38/17 52/38/17
f 53/39/23 51/37/24 52/38/24
f 51/37/24 53/39/23 54/40/23
f 55/41/25 54/40/23 53/39/23
f 54/40/23 55/41/25 56/42/25
f 55/41/25 57/30/26 56/42/25
f 57/30/26 55/41/25 58/32/26
f 58/32/26 59/30/17 57/30/26
f 59/30/17 58/32/26 60/32/17
usemtl material_1_0
f 3//27 2//27 1//28
f 4//28 1//28 2//27
f 2//27 3//27 5//29
f 1//28 4//28 6//30
f 7//29 5//29 3//27
f 8//30 6//30 4//28
f 5//29 7//29 9//31
f 8//30 10//32 6//30
f 11//31 9//31 7//29
f 12//32 6//30 10//32
f 9//31 11//31 13//33
f 12//34 10//34 14//35
f 15//33 13//33 11//31
f 16//35 14//35 10//34
f 13//33 15//33 17//36
f 14//35 16//35 18//37
f 19//36 17//36 15//33
f 20//37 18//37 16//35
f 19//36 21//38 17//36
f 20//37 22//39 18//37
f 23//38 17//36 21//38
f 24//39 18//37 22//39
f 21//38 25//17 23//38
f 22//39 26//40 24//39
f 27//17 23//38 25//17
f 28//40 24//39 26//40
f 27//19 25//19 29//19
f 26//40 30//40 28//40
f 31//19 29//19 25//19
f 32//40 28//40 30//40
f 31//14 33//14 29//14
f 30//40 34//17 32//40
f 35//14 29//14 33//14
f 36//17 32//40 34//17
f 35//19 33//19 37//41
f 36//16 34//16 38//16
f 39//41 37//41 33//19
f 40//16 38//16 34//16
f 37//41 39//41 41//42
f 40//14 42//14 38//14
f 43//42 41//42 39//41
f 44//14 38//14 42//14
f 41//42 43//42 45//43
f 44//16 42//16 46//16
f 47//43 45//43 43//42
f 48//16 46//16 42//16
f 47//43 49//44 45//43
f 50//44 45//43 49//44
f 49//14 51//14 50//14
f 52//14 50//14 51//14
f 52//45 51//45 53//46
f 54//46 53//46 51//45
f 53//46 54//46 55//47
f 56//47 55//47 54//46
f 56//47 57//48 55//47
f 58//48 55//47 57//48
f 57//48 59//14 58//48
f 60//14 58//48 59//14
f 60//19 59//19 61//19
f 62//19 61//19 59//19
usemtl material_2_0
f 46/43/19 42/44/19 44/45/19
f 42/44/19 46/43/19 48/46/19
f 61/46/16 59/45/16 60/44/16
f 59/45/16 61/46/16 62/43/16
